<?xml version="1.0" standalone="no"?>
<!DOCTYPE svg PUBLIC "-//W3C//DTD SVG 20010904//EN"
 "http://www.w3.org/TR/2001/REC-SVG-20010904/DTD/svg10.dtd">
<svg version="1.0" xmlns="http://www.w3.org/2000/svg"
 width="700.000000pt" height="700.000000pt" viewBox="0 0 700.000000 700.000000"
 preserveAspectRatio="xMidYMid meet">
<metadata>
Created by potrace 1.14, written by Peter Selinger 2001-2017
</metadata>
<g transform="translate(0.000000,700.000000) scale(0.100000,-0.100000)"
fill="#000000" stroke="none">
<path d="M3328 6855 c-1 -1 -48 -6 -103 -9 -54 -4 -101 -9 -105 -11 -3 -1 -31
-6 -63 -9 -32 -4 -64 -9 -70 -11 -7 -2 -28 -6 -47 -9 -175 -26 -531 -149 -735
-254 -323 -167 -584 -362 -889 -668 -234 -233 -369 -407 -550 -707 -166 -275
-309 -673 -361 -1007 -9 -58 -20 -127 -25 -155 -10 -56 -7 -620 4 -675 4 -19
14 -80 22 -135 13 -80 38 -200 68 -320 36 -143 112 -344 201 -532 129 -271
289 -518 495 -763 112 -134 171 -216 243 -341 102 -178 200 -304 342 -439 221
-213 544 -415 821 -516 98 -35 329 -98 394 -108 19 -2 62 -9 95 -15 177 -32
567 -34 780 -6 187 26 278 45 405 86 282 92 490 201 687 362 208 169 346 343
448 561 39 83 55 106 118 163 169 158 379 376 460 477 307 387 503 799 601
1262 24 115 30 150 42 259 3 28 10 79 14 115 9 67 6 525 -3 570 -3 14 -8 48
-11 75 -21 169 -84 443 -143 615 -159 469 -470 928 -879 1300 -73 67 -249 206
-344 272 -205 142 -374 235 -650 356 -76 33 -349 120 -450 142 -157 35 -186
40 -405 66 -46 6 -402 14 -407 9z m-198 -268 c14 -2 52 -7 85 -11 33 -4 74 -9
90 -11 17 -2 53 -7 80 -10 28 -4 57 -8 65 -10 8 -2 42 -7 75 -10 54 -5 208
-25 310 -40 334 -49 758 -206 1065 -395 320 -196 651 -499 869 -794 219 -296
413 -743 475 -1096 8 -46 16 -95 21 -125 22 -137 22 -651 0 -735 -2 -8 -6 -37
-10 -65 -17 -136 -38 -221 -106 -429 -87 -264 -241 -543 -450 -812 -91 -117
-205 -238 -218 -230 -5 3 -14 30 -21 58 -64 284 -231 537 -462 701 -115 82
-339 182 -452 201 -16 3 -30 6 -31 8 -2 2 0 21 4 43 10 55 5 162 -10 199 -7
17 -30 57 -51 88 -57 85 -57 84 5 102 345 100 718 404 910 741 67 116 101 207
144 377 3 13 7 82 9 153 4 146 -13 234 -64 330 -28 52 -126 155 -271 285 l-83
75 0 70 c0 39 -4 93 -9 120 -5 28 -10 61 -13 75 -10 58 -20 89 -53 155 -106
214 -319 392 -543 454 -77 22 -213 23 -280 3 -97 -29 -109 -26 -233 58 -141
95 -357 193 -559 255 -115 34 -141 40 -268 59 -79 12 -368 13 -415 2 -123 -28
-164 -39 -208 -58 -298 -124 -447 -365 -392 -630 8 -42 24 -100 33 -130 33
-96 11 -125 -130 -169 -240 -73 -371 -176 -455 -356 -49 -107 -62 -174 -59
-321 2 -103 7 -138 25 -183 29 -77 88 -166 160 -243 55 -60 59 -67 71 -137 30
-180 85 -314 188 -457 28 -40 52 -77 52 -81 0 -5 -119 -50 -150 -56 -30 -6
-225 -72 -265 -90 -105 -46 -172 -138 -161 -220 4 -40 31 -102 61 -141 23 -30
23 -32 6 -48 -10 -9 -21 -16 -26 -16 -22 0 -207 -135 -258 -189 -120 -125
-131 -225 -37 -342 l49 -61 -29 -45 c-29 -45 -54 -141 -59 -222 -1 -8 -18 13
-38 46 -21 32 -43 68 -50 79 -65 104 -163 317 -211 459 -49 143 -102 369 -117
494 -4 30 -9 63 -11 75 -7 33 -18 234 -18 316 0 82 12 283 18 315 2 11 7 43
11 70 12 82 13 87 29 164 47 217 138 466 238 651 101 184 257 413 369 537 111
123 348 352 449 433 110 88 139 117 140 137 0 24 42 109 85 173 87 131 224
249 361 311 72 33 207 74 274 83 25 4 68 10 95 14 49 8 307 7 355 -1z m-76
-392 c38 -3 99 -13 135 -21 36 -8 77 -17 91 -20 89 -18 350 -117 433 -163 18
-10 55 -30 82 -46 132 -73 325 -212 450 -325 64 -58 233 -211 259 -235 58 -54
276 -241 426 -365 275 -229 336 -297 361 -408 7 -31 4 -38 -21 -61 -23 -22
-148 -89 -225 -122 -60 -25 -204 -72 -261 -84 -11 -2 -50 -11 -89 -20 -243
-57 -348 -68 -670 -67 -304 1 -394 7 -540 37 -263 53 -439 177 -533 373 -31
64 -44 183 -28 257 45 213 195 396 386 471 110 43 153 39 63 -6 -61 -30 -161
-131 -191 -192 -45 -93 -62 -230 -42 -338 18 -97 86 -210 125 -210 7 0 15 12
18 28 13 66 85 94 127 50 38 -41 21 -90 -42 -118 l-40 -18 23 -16 c32 -22 158
-74 200 -82 133 -25 237 -5 320 60 128 100 195 271 165 420 -6 34 -56 136 -66
136 -3 0 -20 -15 -37 -34 -16 -19 -47 -46 -68 -60 -117 -79 -271 44 -224 178
17 47 61 74 137 83 81 9 113 -2 171 -58 119 -118 164 -225 156 -374 -11 -206
-87 -329 -278 -453 -39 -25 -66 -47 -60 -49 6 -2 46 10 88 28 150 62 258 205
294 389 13 66 8 217 -9 280 -14 53 -68 169 -87 188 -7 7 -13 17 -13 21 0 16
-132 142 -188 180 -112 76 -228 123 -329 136 -66 8 -214 8 -263 1 -228 -35
-447 -239 -510 -476 -19 -70 -22 -236 -5 -307 13 -57 69 -184 115 -263 25 -43
22 -62 -9 -67 -60 -9 -126 -71 -137 -128 -9 -47 3 -61 30 -36 32 30 70 41 140
41 73 0 115 -12 171 -50 88 -60 265 -132 360 -147 17 -2 46 -8 65 -13 19 -5
55 -11 80 -14 25 -3 61 -9 80 -12 19 -4 202 -8 405 -10 322 -2 384 0 480 16
281 47 458 101 653 200 46 23 85 40 87 38 7 -6 -53 -175 -84 -235 -42 -85
-130 -195 -245 -308 -231 -228 -547 -391 -907 -471 -59 -13 -146 -17 -419 -19
-316 -3 -415 1 -462 20 -10 4 -18 3 -18 -3 0 -12 99 -60 233 -112 60 -23 105
-45 100 -49 -4 -4 -46 -18 -93 -30 -46 -13 -117 -36 -158 -52 -41 -17 -80 -28
-86 -26 -6 2 -12 26 -12 53 -3 87 -3 89 -14 78 -16 -16 -88 -299 -79 -308 3
-3 33 6 68 20 75 30 188 55 321 70 25 3 104 6 175 7 142 1 166 -6 216 -60 54
-57 62 -163 20 -258 -57 -129 -295 -265 -344 -195 -21 30 -9 62 58 153 29 40
51 75 48 80 -5 8 -28 4 -138 -28 -120 -35 -222 -48 -400 -48 -224 -1 -222 -2
-230 105 -7 94 -17 283 -17 300 1 39 -18 25 -32 -23 -26 -86 -37 -166 -38
-273 -1 -91 2 -108 23 -146 41 -74 65 -85 182 -84 56 1 153 5 215 9 l112 7 0
-36 c0 -43 -1 -34 15 -96 7 -27 11 -50 8 -50 -3 0 -17 8 -31 18 -15 11 -57 33
-93 51 -64 31 -71 32 -192 32 -149 0 -179 -7 -316 -73 -89 -43 -116 -62 -191
-136 -72 -72 -95 -102 -128 -172 -39 -83 -56 -148 -55 -220 2 -100 7 -102 59
-22 52 79 215 238 299 294 134 88 230 126 336 135 80 6 136 -15 192 -72 54
-56 68 -111 71 -278 3 -158 -10 -258 -49 -369 -14 -39 -23 -73 -22 -75 2 -1
21 6 43 16 59 29 117 11 159 -49 49 -71 46 -143 -7 -174 -47 -29 -218 -32
-269 -5 -82 41 -115 117 -125 283 -5 88 -7 141 -13 319 -1 50 -16 47 -37 -10
-37 -100 -142 -228 -230 -279 -64 -38 -159 -45 -207 -15 -37 22 -57 27 -57 12
0 -10 87 -101 140 -146 77 -66 177 -152 210 -182 19 -17 49 -42 65 -54 17 -13
36 -29 43 -36 50 -49 211 -135 332 -178 75 -27 316 -87 400 -100 25 -4 54 -10
65 -12 11 -3 117 -7 235 -9 163 -2 234 1 295 12 165 32 359 113 453 189 192
155 281 347 283 608 1 284 -207 539 -486 593 -74 14 -208 7 -290 -15 -101 -28
-178 -75 -252 -154 -122 -131 -160 -297 -102 -452 52 -140 148 -227 286 -258
108 -25 194 -9 283 52 122 84 145 238 50 333 -37 37 -62 45 -125 38 -51 -5
-61 -51 -15 -75 40 -21 52 -46 39 -83 -17 -50 -85 -70 -173 -50 -78 17 -122
71 -129 159 -10 127 66 222 212 265 179 52 403 -89 454 -286 39 -147 -26 -338
-150 -448 -172 -153 -372 -202 -567 -137 -165 54 -323 196 -400 359 -57 119
-68 166 -72 316 -4 141 8 207 57 303 103 204 293 359 528 431 78 24 96 25 245
22 146 -2 168 -5 241 -31 161 -56 273 -126 389 -242 213 -212 303 -492 252
-778 -58 -322 -270 -601 -621 -821 -167 -104 -503 -220 -748 -259 -162 -26
-586 -27 -722 -2 -122 23 -122 23 -201 42 -400 96 -744 286 -1022 564 -156
156 -234 264 -324 451 -62 128 -77 165 -97 241 -20 73 -23 86 -36 182 -4 27
-9 59 -11 70 -10 42 -13 333 -5 377 5 25 11 59 14 75 28 177 126 417 245 605
132 208 330 413 465 481 l40 21 52 -26 c29 -14 77 -35 109 -46 66 -25 72 -40
17 -40 -44 0 -91 -15 -91 -28 0 -11 454 -2 630 13 56 5 130 25 130 36 0 9 -26
18 -67 25 -90 14 -97 16 -83 24 8 4 32 11 54 14 53 10 34 23 -44 31 -232 22
-397 72 -524 158 -34 22 -99 79 -146 126 -68 68 -95 104 -128 172 -109 220
-129 488 -55 709 79 234 267 405 505 456 76 17 108 39 108 76 0 11 21 60 46
108 97 188 262 315 492 379 57 16 103 20 215 20 206 0 315 -25 476 -109 104
-54 152 -89 262 -190 49 -45 92 -80 95 -77 3 3 -6 27 -19 54 -81 159 -290 356
-461 433 -120 55 -197 71 -366 75 -144 4 -213 -5 -346 -46 -241 -74 -444 -249
-572 -489 l-39 -75 -104 -53 c-147 -76 -229 -133 -301 -211 -105 -114 -177
-254 -208 -405 l-12 -60 -18 40 c-10 21 -26 71 -36 110 -17 68 -17 73 0 145
48 196 135 281 352 344 170 49 244 99 292 196 31 65 28 125 -13 265 -39 130
-41 177 -10 266 47 135 223 236 445 256 87 8 105 7 224 -3z m1509 -421 c63
-32 191 -161 230 -231 48 -90 87 -242 58 -231 -5 2 -74 64 -152 138 -246 232
-283 266 -331 310 -27 23 -48 46 -48 51 0 14 72 15 133 2 31 -7 81 -25 110
-39z m-375 -2731 c138 -70 137 -198 -2 -238 -101 -28 -106 -29 -107 -9 -1 11
-3 33 -5 51 -3 42 -43 128 -83 177 -17 21 -31 43 -31 49 0 6 32 8 86 4 68 -4
98 -11 142 -34z"/>
<path d="M1295 4188 c-34 -62 -63 -90 -122 -120 -23 -12 -43 -24 -43 -28 0 -3
24 -18 54 -32 58 -29 95 -70 122 -133 l16 -40 27 51 c39 76 51 89 109 119 29
15 54 30 56 34 3 4 -20 19 -49 35 -63 33 -75 45 -113 114 l-29 52 -28 -52z"/>
<path d="M1055 3763 c-18 -33 -40 -53 -101 -89 -17 -10 -15 -13 17 -28 47 -22
73 -47 89 -85 7 -17 15 -31 19 -31 3 0 18 21 33 45 19 31 41 52 72 67 l46 22
-47 25 c-32 18 -55 40 -71 69 -13 23 -27 42 -30 42 -4 0 -16 -17 -27 -37z"/>
<path d="M5642 3597 c-32 -57 -73 -94 -129 -118 -18 -8 -33 -17 -33 -20 0 -3
19 -15 42 -25 48 -21 108 -70 108 -88 0 -6 9 -26 21 -45 l21 -34 29 53 c39 71
50 82 109 110 28 13 50 26 50 30 0 4 -22 17 -50 30 -59 28 -70 39 -108 109
l-29 52 -31 -54z"/>
<path d="M5172 3274 c-23 -46 -43 -65 -96 -91 l-39 -20 52 -28 c37 -21 59 -42
79 -77 l29 -49 18 42 c18 39 70 89 92 89 6 0 16 6 23 14 9 12 4 19 -31 37 -43
21 -78 55 -79 75 0 5 -6 19 -14 29 -13 18 -15 17 -34 -21z"/>
<path d="M5575 2961 c-36 -77 -77 -118 -159 -160 l-67 -34 31 -18 c17 -11 34
-19 38 -19 4 0 30 -15 58 -34 41 -28 59 -50 91 -111 l40 -78 24 49 c26 53 65
112 89 132 8 6 43 26 78 43 34 16 62 32 62 34 0 3 -26 18 -59 34 -84 43 -114
72 -155 151 -20 38 -38 70 -40 70 -1 0 -15 -27 -31 -59z"/>
<path d="M2533 5925 c-75 -32 -86 -156 -12 -138 54 13 96 74 80 117 -12 31
-30 37 -68 21z"/>
<path d="M5083 4788 c-28 -36 -16 -77 37 -122 43 -35 80 -44 96 -22 18 25 0
70 -48 118 -39 39 -68 48 -85 26z"/>
<path d="M4651 4691 c-16 -16 -18 -26 -10 -67 5 -26 17 -56 26 -67 41 -44 109
-61 133 -32 20 24 -7 91 -56 142 -45 47 -65 52 -93 24z"/>
<path d="M3059 4123 c59 -82 146 -155 240 -203 138 -69 372 -117 520 -106 89
6 109 12 70 20 -100 20 -267 63 -329 83 -71 24 -275 120 -420 198 -36 19 -73
35 -83 35 -17 0 -17 -2 2 -27z"/>
<path d="M2377 3334 c-4 -4 -7 -11 -7 -15 0 -12 141 -24 250 -20 42 2 71 17
53 29 -15 10 -286 15 -296 6z"/>
<path d="M2014 3216 c-46 -46 -47 -94 -4 -119 27 -16 32 -17 60 -2 56 29 84
103 53 137 -26 29 -71 22 -109 -16z"/>
<path d="M1733 2874 c-60 -30 -89 -144 -47 -184 30 -29 56 -32 92 -10 37 23
52 54 52 108 0 56 -9 78 -36 91 -30 13 -22 14 -61 -5z"/>
<path d="M1846 2448 c-19 -27 -21 -79 -4 -96 21 -21 76 -15 89 9 13 26 5 89
-13 101 -24 15 -57 8 -72 -14z"/>
<path d="M1542 2379 c-42 -25 -68 -83 -71 -158 -4 -103 33 -156 108 -153 42 2
68 24 93 80 61 137 -27 294 -130 231z"/>
<path d="M1786 2048 c-19 -27 -21 -82 -3 -96 25 -21 79 -18 102 5 20 19 14 67
-12 95 -23 25 -68 23 -87 -4z"/>
<path d="M1562 1804 c-46 -32 -50 -115 -12 -217 28 -74 64 -117 98 -117 36 0
70 42 78 95 12 81 -47 224 -100 242 -36 12 -44 11 -64 -3z"/>
<path d="M1764 1315 c-13 -52 58 -107 93 -72 12 12 13 19 3 38 -33 63 -84 81
-96 34z"/>
</g>
</svg>
