<?xml version="1.0" encoding="UTF-8" standalone="no"?>
<!-- Created with Inkscape (http://www.inkscape.org/) -->

<svg
   version="1.1"
   id="svg1"
   width="791.26227"
   height="791.26227"
   viewBox="0 0 791.26227 791.26227"
   xmlns="http://www.w3.org/2000/svg"
   xmlns:svg="http://www.w3.org/2000/svg">
  <defs
     id="defs1" />
  <g
     id="g1"
     transform="translate(-129.97873,-42.954498)">
    <path
       style="display:none;fill:#ffffff;fill-opacity:1;stroke-width:0.772369"
       d="m 435.00912,735.14643 c -43.16837,-17.65622 -81.81504,-51.63327 -105.67268,-91.70901 -21.41987,-35.9808 -44.20346,-84.40358 -27.15791,-122.65117 1.30157,-2.92051 8.35085,-4.71953 8.35085,-4.71953 l -4.63491,-5.15513 c -6.95623,-7.73701 -8.41128,-15.12004 -4.62482,-23.46673 4.30032,-9.47941 12.8621,-17.46335 29.28895,-27.31218 4.53125,-2.71673 8.40125,-5.08048 8.60006,-5.2528 0.1988,-0.17232 -0.82956,-1.8748 -2.28524,-3.7833 -5.78028,-7.57832 -7.2792,-15.8471 -4.20601,-23.20228 3.38034,-8.09028 10.04213,-12.15753 29.81577,-18.20358 20.52742,-6.27651 25.2307,-8.06782 25.2307,-9.60941 0,-0.79642 -1.54305,-3.25073 -3.42899,-5.45404 -9.05219,-10.57543 -16.56678,-28.05638 -19.64723,-45.70468 -1.51423,-8.67515 -1.7509,-9.16161 -7.45253,-15.31716 -7.11998,-7.68684 -12.88088,-16.40351 -16.01324,-24.22923 -2.02672,-5.06349 -2.3283,-7.67575 -2.33569,-20.23174 -0.007,-11.41347 0.39387,-15.59773 1.92251,-20.08158 6.32673,-18.55777 17.22726,-31.58723 32.53762,-38.89241 4.81444,-2.29715 12.71483,-5.36284 17.55645,-6.81265 10.53462,-3.15456 13.84038,-5.97 13.06766,-11.12947 -0.2809,-1.87561 -1.72519,-7.98799 -3.20953,-13.58306 -3.08772,-11.63887 -3.3639,-18.25053 -1.12193,-26.85805 4.08304,-15.67586 15.53109,-29.04713 31.68205,-37.00451 16.9196,-8.33608 22.38888,-9.38039 49.12706,-9.38039 22.84614,0 23.35447,0.0474 36.25137,3.38063 24.85184,6.42299 49.91872,17.26862 68.11319,29.47038 5.57458,3.73847 10.93528,6.79724 11.91264,6.79724 0.97735,0 5.22134,-0.91594 9.43106,-2.03541 4.20971,-1.11949 9.97114,-2.03827 12.80316,-2.04177 17.73775,-0.0219 39.01374,10.29162 53.76802,26.06398 15.40316,16.46603 21.43946,30.89269 22.43298,53.61448 l 0.40853,9.34294 7.00752,6.57533 c 26.50546,24.87073 28.99715,28.08505 32.8349,42.35764 2.30458,8.57073 2.27373,26.31547 -0.0653,37.5886 -8.25033,39.76245 -42.53032,80.36198 -85.2483,100.96388 -6.24195,3.01035 -14.31649,6.27663 -17.94341,7.25839 -7.6451,2.06944 -7.62961,1.70354 -0.51313,12.12372 l 4.82524,7.06526 v 12.19668 12.19667 c 0,0 4.92755,0.77958 7.19182,1.76188 23.88709,10.36275 49.54451,22.05566 65.40847,42.70306 15.83361,20.60787 25.02098,48.07947 24.36576,74.05943 -0.73625,29.19305 -11.99807,60.03226 -31.53931,81.73286 -27.55348,30.5982 -69.66176,47.85712 -109.97043,56.26282 -51.28445,10.69453 -108.37505,10.13765 -156.86371,-9.6946 z m 132.92405,-11.00115 c 39.87391,-4.3743 79.95064,-20.42308 102.15014,-40.90619 18.32972,-16.91251 33.54454,-47.49235 36.98767,-74.34049 3.48526,-27.17657 -11.15688,-58.26901 -36.39652,-77.28764 -9.74763,-7.34506 -18.96073,-12.17092 -29.62373,-15.51701 -6.91538,-2.17008 -9.66361,-2.42335 -26.26053,-2.42 -18.40272,0.004 -18.61047,0.0291 -28.71398,3.5102 -25.16917,8.67184 -42.61153,27.7053 -47.44393,51.77173 -2.00011,9.96098 -2.02332,26.91241 -0.0498,36.34473 4.41473,21.09967 21.33281,40.36676 41.76665,47.56575 10.32804,3.63865 26.42092,4.4622 36.91968,1.88934 18.97161,-4.64923 33.05337,-19.8991 36.31963,-39.33241 3.28977,-19.5731 -7.16378,-41.55365 -23.41942,-49.24381 -13.53893,-6.40493 -24.84043,-5.75967 -33.17812,1.89433 -11.33351,10.40417 -12.60958,25.49699 -3.00249,35.51247 6.96612,7.26226 14.18054,8.49237 18.65056,3.18006 1.46636,-1.74268 2.66611,-3.86939 2.66611,-4.72607 0,-0.85668 -2.0854,-3.58436 -4.63421,-6.06151 -5.17798,-5.03243 -5.92248,-8.44164 -2.57456,-11.78955 6.03865,-6.03866 21.70904,3.26373 24.79974,14.72182 4.75555,17.63019 -10.62425,33.57882 -31.31402,32.47218 -9.37503,-0.50144 -15.63833,-3.50967 -23.41677,-11.24693 -14.74359,-14.66553 -18.02913,-35.53009 -8.57178,-54.43422 7.54014,-15.07186 23.26077,-23.70989 43.13704,-23.70256 23.33922,0.009 44.55814,12.13777 58.36387,33.36192 10.74222,16.51451 10.88204,40.00685 0.36818,61.86607 -7.20318,14.97602 -25.43473,30.58645 -45.199,38.70082 -14.90656,6.12001 -23.02894,7.48387 -44.42779,7.46007 -28.94251,-0.0322 -51.87608,-4.3175 -78.37751,-14.64543 -21.51103,-8.3831 -35.85106,-16.8063 -51.70421,-30.37055 -4.70933,-4.02939 -10.27038,-8.62108 -12.35789,-10.20374 -10.61483,-8.04767 -14.11732,-13.1381 -11.68117,-16.97715 0.64275,-1.0129 1.5276,-0.7746 3.8238,1.02982 4.34677,3.41584 12.36362,3.14136 20.87265,-0.71466 8.67833,-3.93273 18.05904,-14.1021 23.52275,-25.50034 l 3.94893,-8.23817 0.68215,5.01273 c 0.37519,2.75699 0.73242,11.96402 0.79384,20.46008 0.12872,17.80356 1.63429,26.52534 5.55567,32.18389 6.09757,8.7988 12.76626,10.98818 24.378,8.00348 7.65815,-1.96846 10.5945,-3.6113 12.99047,-7.26803 1.5712,-2.39795 1.56697,-2.90591 -0.0597,-7.16514 -1.8766,-4.91382 -6.37561,-9.39978 -10.45361,-10.42329 -1.38225,-0.34692 -4.59047,0.0532 -7.1294,0.88896 -2.53894,0.83584 -4.61623,1.19238 -4.61623,0.79228 0,-0.40008 0.92388,-3.41275 2.05307,-6.69479 5.51497,-16.02955 6.65664,-39.4609 2.61753,-53.72132 -3.10865,-10.97535 -11.05099,-17.79643 -20.78186,-17.84799 -5.76152,-0.0305 -16.99963,3.5103 -24.738,7.7943 -15.42696,8.54043 -37.74138,27.95967 -42.16957,36.69829 -5.23584,10.33242 -7.29472,3.84431 -3.49482,-11.01316 3.79349,-14.8324 12.82864,-30.15273 22.27024,-37.76221 5.22304,-4.20953 18.86216,-10.7208 26.61371,-12.7053 3.53099,-0.904 10.59244,-1.57138 16.62618,-1.57138 12.0759,0 20.59992,2.1558 28.60386,7.23419 3.95566,2.50982 4.87258,2.79179 4.30627,1.32423 -0.39572,-1.02551 -1.26205,-5.26438 -1.92516,-9.41969 l -1.20565,-7.55515 -16.48835,0.84843 c -26.17292,1.34674 -27.89269,0.99272 -33.22299,-6.83909 -2.08447,-3.06273 -2.3171,-4.64296 -2.3171,-15.74011 0,-8.88523 0.5995,-14.88913 2.14332,-21.46496 3.56806,-15.19795 4.25414,-13.57165 5.80331,13.75613 0.6878,12.13306 1.21283,15.53227 2.61574,16.93517 1.40068,1.40068 4.25071,1.84419 14.10991,2.19571 16.14596,0.57566 32.77861,-1.20883 47.22371,-5.06653 6.40819,-1.71138 12.11092,-2.95837 12.67274,-2.7711 0.56183,0.18728 -1.78485,4.2266 -5.21484,8.97628 -8.61017,11.92295 -8.27863,17.51617 0.96479,16.27636 6.71331,-0.90043 13.49846,-4.84238 20.75985,-12.06078 5.46957,-5.4372 7.18128,-7.92604 8.49605,-12.35334 3.36639,-11.33587 1.53048,-19.22899 -5.84293,-25.12026 -3.52146,-2.81359 -4.73793,-3.14487 -12.99827,-3.5398 -17.21051,-0.82285 -45.52479,3.19879 -56.40466,8.01148 -2.63015,1.16344 -5.03128,1.86616 -5.33583,1.56161 -0.58343,-0.58342 0.5906,-6.18373 3.4513,-16.46335 0.94575,-3.39842 2.20044,-8.14006 2.7882,-10.537 1.4546,-5.93185 2.87112,-4.54384 2.87112,2.81331 0,3.33157 0.37372,6.28836 0.83049,6.57067 0.45675,0.28229 5.67025,-1.26329 11.58553,-3.43463 5.91528,-2.17135 13.41972,-4.49322 16.67653,-5.15971 3.25682,-0.66651 5.92149,-1.60641 5.92149,-2.08869 0,-0.48228 -4.51835,-2.60833 -10.04079,-4.72456 -17.88214,-6.85254 -30.7548,-14.15188 -18.64079,-10.57012 3.33817,0.987 13.58075,1.27328 40.16876,1.12271 32.03797,-0.18143 36.72507,-0.42576 45.8272,-2.38885 37.88605,-8.17101 74.28255,-28.60191 96.82755,-54.35339 12.9826,-14.82906 17.61642,-22.6277 22.92683,-38.58552 1.28284,-3.85492 2.1017,-7.23968 1.8197,-7.52169 -0.282,-0.282 -5.0797,1.77905 -10.66156,4.58011 -17.26916,8.66593 -36.47868,14.59485 -60.70699,18.73688 -10.24923,1.7522 -16.74418,2.04311 -45.61445,2.04311 -53.88337,0 -78.51514,-4.39698 -99.85242,-17.82449 -8.45554,-5.32105 -12.73021,-6.79064 -19.91364,-6.8461 -6.62669,-0.0512 -10.6122,1.1771 -13.94279,4.29696 -2.07588,1.94453 -2.35264,1.98266 -2.9571,0.40748 -1.33911,-3.48967 2.52362,-10.6357 7.54794,-13.96369 2.61049,-1.72911 5.5664,-3.14385 6.56868,-3.14385 3.34969,0 3.11048,-1.98421 -1.09196,-9.05796 -14.73032,-24.79481 -14.95744,-51.68403 -0.61875,-73.25252 8.19966,-12.33405 20.39997,-21.68378 34.54932,-26.47694 7.67338,-2.59941 31.37203,-2.57023 41.10382,0.0506 15.20244,4.0941 33.24248,16.00284 42.18556,27.84788 14.77807,19.5734 17.5585,44.53545 7.3445,65.93697 -5.35255,11.21528 -13.96318,19.28612 -25.6348,24.02781 -8.63953,3.50987 -9.521,2.61567 -2.12068,-2.15129 10.7796,-6.94375 14.22789,-9.97294 18.93268,-16.63153 5.9347,-8.39926 8.71486,-16.37728 9.4765,-27.19395 0.71902,-10.21109 -1.12155,-19.40092 -5.32081,-26.5664 -3.42228,-5.83968 -12.44664,-15.56807 -16.28056,-17.55066 -3.87119,-2.00188 -14.16042,-1.4123 -18.99646,1.08851 -11.40777,5.89919 -6.17505,25.90444 7.34982,28.09924 4.74493,0.76999 10.35739,-2.04662 16.22615,-8.14309 5.5985,-5.81569 6.18347,-5.51858 8.73724,4.43763 1.98723,7.74748 1.51309,19.45083 -1.0817,26.70062 -5.69302,15.90619 -20.10423,24.91204 -40.21337,25.13017 -8.14049,0.0883 -10.04173,-0.25674 -15.62289,-2.83534 -3.49495,-1.61474 -7.31828,-3.96182 -8.49627,-5.21573 l -2.14182,-2.27986 3.62313,-1.72775 c 4.92226,-2.34726 6.51023,-5.93471 4.19262,-9.47181 -0.9599,-1.465 -2.89272,-3.18645 -4.29513,-3.82543 -2.11467,-0.9635 -3.02811,-0.80937 -5.35211,0.90311 -1.54125,1.1357 -3.24566,3.53329 -3.78759,5.32799 -0.54194,1.79469 -1.40628,3.26307 -1.92076,3.26307 -1.8886,0 -8.22421,-7.87869 -10.6334,-13.22326 -6.17982,-13.70927 -5.52913,-30.09712 1.63105,-41.0793 4.77686,-7.32668 14.58305,-16.74014 20.70787,-19.87852 6.39233,-3.27546 3.57841,-3.6711 -4.96895,-0.69862 -18.67044,6.49294 -34.76517,24.23891 -39.89221,43.98497 -1.20314,4.63373 -1.60425,9.30204 -1.30329,15.16846 0.37672,7.3431 0.97519,9.54308 4.48234,16.47693 7.33018,14.49219 20.32911,25.24935 37.76279,31.25029 15.55542,5.35441 24.77602,6.36503 62.5734,6.85829 33.40164,0.43589 35.01951,0.36497 50.85738,-2.22956 17.02375,-2.78879 30.75955,-5.97747 45.19236,-10.49111 10.01899,-3.13328 30.08936,-12.89593 33.60646,-16.34686 2.3592,-2.31482 2.41115,-2.64681 1.13003,-7.22249 -0.73856,-2.63788 -3.05879,-7.42318 -5.15605,-10.634 -4.17957,-6.39873 -7.81036,-9.73938 -36.03544,-33.15587 -10.47847,-8.69329 -28.02883,-23.94479 -39.00081,-33.89222 -29.32326,-26.58508 -32.56072,-29.3572 -44.37214,-37.99425 -27.46658,-20.08481 -53.17432,-31.67541 -86.29707,-38.9079 -11.85467,-2.58851 -36.28821,-2.35747 -46.74096,0.44197 -20.62617,5.52409 -31.43532,15.94537 -33.30863,32.1134 -0.54141,4.67276 -0.0918,7.46634 2.56928,15.96229 5.71258,18.23858 5.25199,25.42472 -2.17002,33.85656 -5.55423,6.30995 -10.52512,9.05806 -23.58318,13.03775 -23.41312,7.13559 -32.1808,15.42353 -36.63523,34.63062 -1.44871,6.24667 -1.44434,7.553 0.0474,14.1693 0.90373,4.00852 2.49328,9.14191 3.53235,11.40753 l 1.88922,4.11929 0.73184,-4.11929 c 2.99981,-16.88482 12.10188,-33.81412 24.38858,-45.36126 7.38779,-6.94309 12.75486,-10.50182 25.39715,-16.84003 11.4263,-5.72857 11.15934,-5.4464 19.78212,-20.90985 1.98242,-3.55511 7.51606,-10.54642 12.29697,-15.53625 12.80664,-13.36624 26.34652,-21.72878 44.03796,-27.19883 8.51618,-2.63313 10.23125,-2.8006 28.62561,-2.79531 19.23332,0.006 19.73333,0.0614 29.35,3.27573 5.43812,1.81771 13.67115,5.65952 18.53683,8.64989 10.04126,6.1712 26.32061,21.78342 32.2964,30.97285 3.87223,5.95462 7.32877,13.14042 6.32084,13.14042 -0.29906,0 -4.79363,-3.97587 -9.98791,-8.83528 -11.26674,-10.54035 -14.89917,-13.11947 -27.08458,-19.23076 -13.03928,-6.53953 -21.52507,-8.89529 -36.50183,-10.13332 -14.36381,-1.18738 -20.67654,-0.74539 -31.77391,2.22464 -21.15742,5.66243 -39.48515,20.05176 -48.51241,38.08765 -2.31893,4.6331 -4.21625,9.45688 -4.21625,10.71952 0,3.4756 -2.83111,5.26423 -11.29697,7.13717 -20.18078,4.46471 -36.77965,17.88595 -45.98979,37.18564 -5.77272,12.09667 -7.85943,21.82872 -7.83878,36.55878 0.0453,32.35781 13.31712,56.50842 40.92467,74.47048 8.88918,5.7835 27.66804,11.12962 44.28245,12.6067 11.69715,1.03993 13.64793,1.96794 7.47902,3.55785 -2.68337,0.69159 -4.66594,1.60195 -4.4057,2.02303 0.26023,0.42108 2.99558,1.06206 6.07853,1.4244 3.08295,0.36234 6.33993,0.94068 7.23774,1.2852 8.78159,3.36981 -18.8182,6.52056 -57.06765,6.51473 -16.13757,-0.002 -17.75274,-0.15662 -15.44737,-1.47448 1.416,-0.80947 4.5441,-1.48818 6.95132,-1.50826 2.4072,-0.0201 4.37675,-0.43695 4.37675,-0.9264 0,-0.48946 -2.20126,-1.70511 -4.89168,-2.70145 -2.69041,-0.99636 -7.59799,-3.15883 -10.9057,-4.80551 l -6.01406,-2.99396 -5.31401,3.25943 c -25.85791,15.8603 -52.41943,52.23398 -63.92367,87.53786 -7.22245,22.1641 -8.93884,38.9627 -6.30206,61.67952 2.91381,25.10354 4.67388,31.6517 13.54316,50.38577 18.68316,39.4634 54.21717,71.78462 100.98164,91.85142 34.28963,14.71379 78.76474,20.17874 123.91234,15.2259 z M 358.05786,620.99967 c -2.10767,-2.53957 -2.47882,-6.51884 -0.74245,-7.9599 1.40531,-1.1663 2.07143,-1.06813 4.36332,0.64301 3.58156,2.67403 4.8787,4.87027 4.09014,6.92523 -0.77342,2.0155 -6.13725,2.28794 -7.71101,0.39166 z m -13.416,-19.5648 c -5.36591,-2.58166 -8.10172,-13.97899 -4.86019,-20.2474 2.05873,-3.98116 8.22592,-6.85834 11.50158,-5.36586 5.36746,2.44559 8.62014,12.06612 6.60711,19.54198 -1.76938,6.57094 -7.11673,9.02142 -13.2485,6.07128 z m 19.97452,-31.22185 c -2.23024,-2.23025 -2.02538,-5.82501 0.51611,-9.05598 2.54753,-3.23867 5.35421,-3.46343 8.16385,-0.65379 2.30621,2.30621 2.78197,8.13416 0.82386,10.09227 -1.76267,1.76268 -7.5933,1.52801 -9.50382,-0.3825 z M 340.55365,551.1858 c -2.77469,-1.11357 -5.36083,-6.68963 -5.36083,-11.55869 0,-4.44888 4.5208,-13.48933 7.8297,-15.6574 1.43244,-0.93858 4.04731,-1.55019 5.87236,-1.37353 9.1808,0.88867 9.68439,23.48572 0.62776,28.1691 -3.27233,1.69218 -5.53593,1.79832 -8.96899,0.42052 z m 28.57206,-28.88198 c -1.2016,-2.2452 -0.5593,-6.68097 1.29004,-8.90929 1.68546,-2.03085 6.7705,-1.58625 7.99347,0.6989 1.43953,2.68976 1.34801,7.61242 -0.16973,9.13017 -2.09655,2.09655 -7.80797,1.52014 -9.11378,-0.91978 z m -14.29147,-26.3035 c -2.5309,-3.21752 -2.61698,-4.43633 -0.64633,-9.15276 1.99909,-4.7845 6.11143,-8.73029 9.09878,-8.73029 3.21835,0 6.92017,4.05138 6.92017,7.57364 0,3.62807 -3.56063,10.59175 -6.1146,11.9586 -3.46276,1.85321 -6.99847,1.22337 -9.25802,-1.64919 z m 29.99613,-13.96971 c -1.93176,-1.93176 -1.46832,-4.50879 1.43031,-7.95362 5.98557,-7.11343 13.30991,-0.83716 7.55741,6.47597 -2.29636,2.91935 -6.8048,3.66057 -8.98772,1.47765 z m 0.46856,-26.39312 c -2.44041,-2.69661 -2.10945,-5.71584 1.03637,-9.45443 6.67706,-7.93525 15.66575,-5.3521 12.69533,3.64836 -2.21475,6.71076 -9.95223,9.98234 -13.7317,5.80607 z m 44.20303,-19.60111 c -3.4505,-0.37161 -6.28266,-1.21581 -6.52223,-1.9441 -0.32522,-0.9887 2.88097,-1.28363 13.82246,-1.27152 13.2399,0.0146 18.35983,0.84779 16.51949,2.68813 -1.01154,1.01153 -16.20178,1.34793 -23.81972,0.52749 z m 118.86457,-51.30025 c -13.71335,-2.21813 -28.1094,-6.82672 -36.72751,-11.7575 -6.64763,-3.80338 -17.51335,-13.68055 -20.29242,-18.44621 l -1.92431,-3.29989 2.43923,0.75046 c 1.34156,0.41274 8.35224,3.92225 15.57929,7.7989 22.8729,12.26923 37.38995,17.76592 57.29096,21.69245 7.81054,1.54104 11.04102,2.5539 9.75631,3.05893 -1.99131,0.78279 -21.59501,0.93504 -26.12155,0.20286 z M 655.9832,314.83222 c -4.12031,-2.12036 -6.45323,-5.31472 -7.23459,-9.90585 -2.01019,-11.81193 9.56042,-10.07935 14.85324,2.22412 3.52185,8.18677 0.0889,11.64816 -7.61865,7.68173 z m 39.97448,-15.19884 c -3.4055,-3.21762 -4.703,-5.23875 -4.703,-7.32589 0,-8.05875 9.87079,-4.95133 14.10601,4.44071 3.8006,8.42822 -1.73773,10.12757 -9.40301,2.88518 z M 434.26501,188.53364 c -4.45571,-4.45571 3.57622,-16.14389 9.52513,-13.86109 2.12715,0.81626 3.10931,5.48529 1.77151,8.42144 -1.92488,4.22468 -9.0707,7.6656 -11.29664,5.43965 z m 169.9391,297.16215 c 2.81673,-0.89516 5.95685,-2.84693 7.46622,-4.64072 8.64749,-10.27696 -6.84073,-23.45261 -26.21828,-22.30358 l -5.29572,0.31403 4.69657,6.03894 c 4.82718,6.20687 7.79609,13.81391 7.79609,19.97541 0,3.39866 0.0963,3.48005 3.34693,2.83005 1.8408,-0.36808 5.53449,-1.36444 8.20819,-2.21413 z m 66.27301,-253.97596 c -1.40504,-8.78663 -6.361,-19.02622 -13.07979,-27.02437 -7.67184,-9.13268 -14.39482,-14.0709 -23.18855,-17.03264 -5.84244,-1.96775 -16.45049,-2.52851 -17.11497,-0.90472 -0.41914,1.02422 52.22822,50.154 53.16041,49.60855 0.48582,-0.28426 0.58613,-2.37533 0.2229,-4.64682 z m 72.08248,278.84829 c -3.40101,-8.13973 -7.43984,-12.4603 -15.65707,-16.74927 l -7.96401,-4.15681 7.14076,-3.61444 c 8.43172,-4.26787 11.52043,-7.34485 15.63072,-15.57133 l 3.04594,-6.09627 3.32937,6.24656 c 4.33977,8.14224 7.95193,11.71842 15.49455,15.34025 3.39454,1.62999 6.17488,3.19533 6.17853,3.47853 0.004,0.2832 -3.26197,2.29509 -7.25694,4.47087 -7.53147,4.10183 -11.25319,8.11859 -14.79052,15.96298 -1.06199,2.35507 -2.31771,4.28195 -2.79048,4.28195 -0.47279,0 -1.53517,-1.61686 -2.36085,-3.59302 z m -41.61685,-50.37927 c -1.66029,-3.12969 -3.81986,-5.28926 -6.94954,-6.94956 -2.4974,-1.32485 -4.54072,-2.70097 -4.54072,-3.05803 0,-0.35706 1.3924,-1.22594 3.09422,-1.93086 3.44414,-1.42661 8.71832,-6.95567 9.75712,-10.22862 0.37135,-1.17002 1.07615,-2.12732 1.56621,-2.12732 0.49007,0 1.19486,0.9573 1.56621,2.12732 1.0388,3.27295 6.31298,8.80201 9.75712,10.22862 1.70182,0.70492 3.09422,1.5738 3.09422,1.93086 0,0.35706 -2.04332,1.73318 -4.54071,3.05803 -3.12969,1.6603 -5.28926,3.81987 -6.94956,6.94956 -1.32485,2.49738 -2.64214,4.5407 -2.92728,4.5407 -0.28514,0 -1.60244,-2.04332 -2.92729,-4.5407 z m 47.70178,-25.37494 c -2.07489,-4.60132 -6.24764,-8.65822 -12.10501,-11.76898 -2.10892,-1.12001 -3.83307,-2.27856 -3.83145,-2.57456 0.002,-0.29601 2.66628,-1.92846 5.92148,-3.62767 4.81911,-2.51555 6.57278,-4.19905 9.4403,-9.06251 l 3.52174,-5.97305 3.17212,5.90757 c 2.70106,5.0303 4.14284,6.43623 9.70894,9.46756 l 6.5368,3.55999 -4.80983,2.31813 c -6.11192,2.94567 -9.0078,5.68524 -12.02842,11.37918 -1.32593,2.4994 -2.68877,4.54437 -3.02851,4.54437 -0.33977,0 -1.46393,-1.87651 -2.49816,-4.17003 z M 293.09254,411.47447 c -1.50456,-3.63232 -5.4967,-7.61801 -9.8493,-9.83336 l -3.03292,-1.54367 4.40491,-2.24721 c 2.42269,-1.23598 5.17777,-3.64332 6.12238,-5.34965 3.70747,-6.69714 3.70961,-6.69762 6.73604,-1.5334 1.83183,3.12578 4.35542,5.00052 7.02077,6.92393 1.28258,0.92555 4.22677,2.15634 4.22677,2.15634 l -3.9833,2.23436 c -3.54877,1.99063 -5.60783,4.32535 -9.25342,10.49224 -0.97914,1.65632 -1.22227,1.52423 -2.39193,-1.29958 z m 23.65996,-32.38615 c -1.91462,-5.49231 -6.20713,-10.12132 -12.03686,-12.98049 -3.06168,-1.50158 -5.56668,-3.00395 -5.56668,-3.33856 0,-0.33463 1.50613,-1.15443 3.34693,-1.82176 5.05807,-1.83365 10.36012,-6.68718 13.07805,-11.9717 1.33962,-2.60466 2.79373,-4.73574 3.23135,-4.73574 0.43762,0 1.86601,2.14313 3.1742,4.76253 2.64032,5.28674 7.85719,10.09653 12.95588,11.94491 1.84081,0.66733 3.34693,1.50446 3.34693,1.86025 0,0.3558 -2.30575,1.72686 -5.12388,3.04681 -5.82191,2.72683 -7.7929,4.67379 -11.74052,11.59734 -1.534,2.69043 -2.95593,4.89167 -3.15985,4.89167 -0.20391,0 -0.88142,-1.46486 -1.50555,-3.25526 z"
       id="path1" />
    <circle
       style="fill:none;stroke:#000000;stroke-width:15.3296"
       id="path2"
       cx="525.60986"
       cy="438.58563"
       r="380.63113" />
    <circle
       style="display:inline;fill:none;stroke:#ffffff;stroke-width:30;stroke-dasharray:none;stroke-opacity:1"
       id="path2-5"
       cx="525.60986"
       cy="438.58563"
       r="380.63113" />
    <circle
       style="display:inline;fill:none;stroke:#ffffff;stroke-width:13.6133;stroke-dasharray:none;stroke-dashoffset:0;stroke-opacity:1"
       id="path2-2"
       cx="525.60986"
       cy="438.58563"
       r="344.86273" />
  </g>
  <path
     id="path1-4"
     style="fill:#ffffff;fill-opacity:1;stroke-width:1.12108"
     d="m 305.15414,153.82731 c -12.44708,0.17172 -25.0344,0.15448 -37.2499,2.85708 -10.9461,2.42799 -21.10521,7.37436 -31.05561,12.39716 -16.51602,8.68172 -30.74343,22.16069 -39.10754,38.9484 -4.38844,8.85519 -7.28519,18.54003 -7.90062,28.42786 -0.63986,11.21591 2.4236,22.16634 5.22329,32.91023 1.14562,4.86338 2.5314,9.6913 3.24238,14.64232 0.35186,2.46433 -1.03452,4.8072 -3.03202,6.16073 -4.88648,3.42636 -10.78722,4.86364 -16.382,6.69612 -8.75226,2.93607 -17.39106,6.27953 -25.67609,10.36388 -13.14677,6.64919 -24.44849,16.76914 -32.72545,28.9376 -6.37211,9.31985 -11.18262,19.67504 -14.55356,30.43657 -2.20221,7.85897 -2.0927,16.10502 -2.20871,24.19672 0.0353,7.71832 -0.18636,15.46884 0.66232,23.15364 0.83921,7.2354 4.03226,13.91824 7.37924,20.29312 5.75423,10.61607 13.22325,20.21598 21.49511,28.98002 2.12605,2.36655 4.64244,5.05855 5.71794,8.30147 1.66631,5.10992 2.10578,10.51141 3.3092,15.734 3.55273,16.62269 9.37322,32.8434 17.9079,47.57411 3.24197,5.6322 7.04329,10.92888 11.26566,15.86559 1.03761,1.3294 2.03082,2.70398 2.83374,4.18954 -67.60116,42.32755 292.2543,107.61042 353.86501,72.61054 0.83518,-0.47445 5.68811,-3.90361 8.6518,-5.66365 19.9656,-11.85682 42.66557,-19.05465 61.39422,-32.91863 24.41206,-18.07148 45.7463,-40.44298 62.00089,-66.13695 11.77745,-18.71766 20.91187,-39.333 25.1017,-61.12138 2.03707,-11.57454 2.51383,-23.38674 2.07043,-35.11647 -0.33432,-7.45399 -1.10506,-14.95242 -3.351,-22.10054 -1.95026,-7.08418 -4.76388,-14.00779 -9.11286,-19.97651 -5.95992,-8.29683 -13.35244,-15.41631 -20.60811,-22.55901 -8.94309,-8.66265 -18.05594,-17.13981 -27.12617,-25.6671 -0.51067,-11.40672 -0.72261,-22.88809 -2.88908,-34.13559 -2.36351,-13.19996 -7.2657,-25.95709 -14.58052,-37.21036 -5.99261,-9.26816 -13.20582,-17.7171 -21.08207,-25.43214 -13.59144,-12.98676 -29.92991,-23.21523 -47.77914,-29.20275 -9.53239,-3.14073 -19.57213,-5.11101 -29.64055,-4.75767 -7.29442,0.54132 -14.44988,2.1647 -21.50358,4.03537 -2.87433,0.66642 -5.74898,1.41918 -8.67709,1.78475 -4.66682,-2.07748 -8.94924,-4.919 -13.25964,-7.63888 -12.35416,-8.39294 -25.43563,-15.68365 -38.9545,-22.02015 -22.29025,-10.47031 -45.65881,-18.60423 -69.58039,-24.43747 -6.69363,-1.74445 -13.55024,-2.89502 -20.47142,-3.12521 -11.19688,-0.43246 -22.41018,-0.26182 -33.61316,-0.27636 z m 6.42963,38.86972 c 4.77124,0.004 9.34913,0.12794 14.10944,0.41108 2.26892,0.14471 4.96291,0.34733 7.21942,0.58625 8.02264,0.70739 15.82392,2.79954 23.62332,4.70069 22.97903,5.81841 45.39249,14.01945 66.42302,24.99017 7.63256,3.96542 15.08624,8.26941 22.374,12.83651 1.10109,0.69889 2.64662,1.67939 3.75016,2.39277 10.53508,6.83575 20.6944,14.16665 30.58514,21.865 11.81182,9.36705 22.85615,19.5393 34.06323,29.58384 14.59725,13.1948 29.14309,26.44818 44.02001,39.32775 13.93011,12.18449 28.07401,24.12171 42.33979,35.9112 9.81069,8.24144 19.74116,16.35941 29.12059,25.09553 0.53556,0.51022 1.56782,1.38323 0.31913,0.61588 -3.28852,-1.78611 -7.73051,-2.52493 -10.91265,-0.11877 -3.12803,2.38385 -3.84975,6.81476 -3.09034,10.46999 1.21774,4.48032 4.76522,7.76927 8.01608,10.86658 3.43551,3.07089 7.34845,6.08497 12.02302,6.80775 2.86908,0.50997 6.12307,-0.91536 7.15413,-3.75653 1.09511,-2.73181 0.47662,-5.79125 -0.43148,-8.48607 2.64014,4.8662 5.09585,9.97254 5.91934,15.49856 0.0683,1.38727 -1.40567,2.15741 -2.19133,3.10329 -1.31282,1.14822 -3.07625,2.22764 -4.38005,3.03717 -9.77749,5.78848 -20.08959,10.62625 -30.52847,15.09029 -5.96952,2.55019 -12.09398,4.71998 -18.33939,6.49012 -8.37423,2.50434 -16.83043,4.73118 -25.34212,6.71787 -14.30585,3.3175 -29.0589,5.9461 -43.63941,8.15377 -5.7659,0.87568 -11.5748,1.46524 -17.40231,1.71178 -0.99748,0.0388 -2.46296,0.0856 -3.64006,0.12751 -15.90468,0.32461 -31.81262,-0.0664 -47.717,-0.23658 -12.1317,-0.18488 -24.13837,-0.40887 -36.2352,-1.01421 -6.8652,-0.35921 -13.81994,-0.88312 -20.53484,-1.79391 -11.6278,-1.52168 -22.96631,-4.80988 -33.8641,-9.08734 -9.43881,-3.79739 -18.37844,-8.9103 -26.23075,-15.39796 -0.3878,-0.34727 -1.29012,-1.08038 -1.8637,-1.59657 -8.74221,-7.60787 -15.7945,-17.09608 -20.67997,-27.59859 -1.58947,-3.24252 -3.19352,-6.93182 -3.8694,-10.65262 -0.45233,-2.43095 -0.65713,-4.88215 -0.80485,-7.2315 -0.20335,-3.15926 -0.32418,-6.64019 -0.19833,-9.92742 0.31187,-11.29412 4.0969,-22.23334 9.36192,-32.13339 8.61008,-15.96825 21.77676,-29.58091 37.78544,-38.19933 2.36602,-1.25955 4.79305,-2.40577 7.27726,-3.41327 -7.77572,6.22299 -14.8183,13.40017 -20.76875,21.39086 -8.20574,10.95046 -11.44417,24.98087 -10.85381,38.50017 0.46275,10.04781 2.89895,20.0666 7.46944,29.04504 3.07227,5.59387 6.83286,10.85411 11.33874,15.3842 1.75483,1.66849 3.97668,3.70677 6.59738,3.07259 2.47971,-0.98494 3.50518,-3.7406 4.35815,-6.06054 1.11769,-3.54559 3.6579,-6.75214 7.06094,-8.3324 1.33987,-0.35317 2.64417,0.60079 3.73066,1.27492 2.11908,1.65013 4.45298,3.70805 4.74012,6.54664 0.0519,2.86511 -2.53573,4.81695 -4.7882,6.1008 -3.29549,1.68127 -9.34765,1.17446 -10.00162,4.81653 -0.59919,3.33698 4.36114,5.26829 7.05603,7.32549 5.0363,3.84457 10.80011,6.74096 16.68225,9.11081 5.85314,2.44155 12.29705,2.43777 18.52937,2.37309 13.68519,-0.0416 27.70372,-2.87709 39.40422,-10.23827 9.85486,-6.11163 17.52584,-15.54588 21.69873,-26.34883 3.17881,-8.05084 4.12418,-16.80117 4.19703,-25.39885 0.038,-6.85712 -0.79075,-13.73345 -2.77301,-20.30943 -0.96633,-3.18709 -1.63876,-6.68194 -3.91361,-9.24417 -1.68332,-1.8306 -4.58223,-1.90134 -6.58429,-0.56295 -3.89286,2.51344 -6.61626,6.3952 -10.17704,9.31397 -4.08736,3.48978 -8.84314,6.79501 -14.35206,7.27768 -5.89313,0.22069 -11.48038,-3.1305 -14.98181,-7.72436 -4.21999,-5.52804 -6.22486,-13.09346 -4.12277,-19.85384 1.30305,-4.26318 4.86847,-7.61058 9.10582,-8.89455 5.77061,-1.8123 11.94153,-2.34152 17.95004,-1.72285 2.40339,0.24353 4.80707,0.96427 6.6518,2.58835 5.88089,4.71815 10.93566,10.38385 15.64324,16.24931 3.52951,4.39235 6.48986,9.26777 8.39381,14.58674 0.21433,0.61222 0.48737,1.34598 0.7399,2.12623 0.8849,2.75195 1.57189,5.59812 2.0422,8.32992 0.54307,3.04826 0.85744,6.40705 0.98268,9.33168 0.26218,9.20834 -0.66743,18.52253 -3.35497,27.35656 -0.73114,2.36061 -1.57027,4.61278 -2.59795,6.94175 -1.15471,2.61858 -2.52919,5.21102 -3.92883,7.55286 -4.3284,7.06556 -9.42255,13.81094 -16.0414,18.8919 -5.80424,4.6655 -12.25385,8.42396 -18.33675,12.69446 -1.72758,1.35821 -3.92993,2.70173 -4.39318,5.00841 -0.0955,0.8435 0.0471,1.62483 0.57766,2.30563 1.05359,1.57672 3.26343,1.57247 4.93912,1.12973 4.90651,-1.292 9.6104,-3.28181 14.18161,-5.46299 11.88886,-5.77746 22.14548,-14.89384 29.11157,-26.1427 7.27802,-11.80671 11.63453,-25.35747 12.96145,-39.1457 1.87344,-19.33812 -2.62788,-39.12408 -12.21683,-55.98136 -4.69737,-8.32614 -10.57222,-16.00725 -17.60492,-22.49977 -11.08923,-10.31335 -23.93798,-18.71878 -37.73787,-24.93856 -7.62782,-3.372 -15.62023,-6.14067 -23.95011,-7.05238 -11.81691,-1.42597 -23.77115,-1.60873 -35.64654,-0.90948 -6.67834,0.48537 -13.48886,1.08949 -19.73892,3.67461 -22.38722,8.32992 -41.64335,24.87147 -53.02406,45.89744 -8.59722,15.66239 -12.45847,33.82855 -11.13911,51.63598 1.24974,18.19706 7.61659,35.78728 17.0137,51.33012 1.42113,2.50637 2.95316,4.99927 3.82252,7.76301 -2.98968,0.0962 -5.63694,1.74892 -8.22353,3.08561 -4.15729,2.22505 -7.84955,5.31307 -10.62307,9.13859 -2.84719,3.95116 -5.27754,8.58427 -5.24463,13.57082 0.13301,2.28333 0.85136,4.93217 2.95684,6.15465 1.96462,0.95028 4.06389,-0.26615 5.47141,-1.64143 2.56779,-2.58514 5.71612,-4.65167 9.29538,-5.4928 5.21726,-1.24041 10.66905,-1.18308 15.97507,-0.63264 8.25477,0.90603 15.46581,5.39384 22.36663,9.68107 13.01468,8.15813 27.45784,13.89271 42.37301,17.47039 20.83069,5.00117 42.28246,6.65891 63.62992,7.58913 22.27411,0.88997 44.57352,0.76655 66.86023,0.58385 12.97492,-0.16346 26.01507,-0.47752 38.81872,-2.78307 28.67086,-4.8451 57.12646,-12.23483 83.51562,-24.64846 5.5207,-2.58894 10.90893,-5.46009 16.51842,-7.85975 -2.0578,7.23394 -4.61876,14.32793 -7.56408,21.24713 -4.57262,10.79123 -11.14175,20.61298 -18.56237,29.64129 -3.66178,4.49385 -7.53924,9.0407 -11.37685,13.24056 -9.59213,10.42466 -20.56906,19.95818 -32.11881,28.36073 -18.73286,13.61421 -39.33957,24.68795 -60.94214,33.19391 -13.33137,5.24178 -27.41997,9.60432 -41.581,12.71937 -7.6508,1.81323 -15.48592,2.71953 -23.33679,3.00207 -15.02505,0.60452 -30.19713,0.55674 -45.29996,0.68438 -13.39854,0.0505 -26.92217,0.12287 -40.24186,-0.19831 -54.13932,-2.3493 -43.94804,-8.91741 -37.92574,-10.81813 2.0549,-0.68083 4.4633,-2.01759 4.58553,-4.44173 0.16908,-2.35517 -2.03125,-3.95072 -4.02794,-4.6578 -3.60548,-1.18199 -7.41822,-1.56717 -11.16308,-2.08994 1.92558,-0.59211 4.30788,-1.47152 4.80151,-3.66227 0.47653,-1.8917 -1.0237,-3.65005 -2.76602,-4.20182 -4.21075,-1.36764 -8.68372,-1.58997 -13.0547,-2.10415 -14.39778,-1.17133 -28.73808,-3.92003 -42.56949,-8.18665 -2.56521,-0.81229 -5.4037,-1.75261 -8.03045,-2.74552 -6.37321,-2.3642 -12.5865,-5.27372 -18.11609,-9.26408 -2.70992,-1.83695 -5.68945,-4.0166 -8.27341,-6.02735 -3.26443,-2.54234 -6.67882,-5.43682 -9.79736,-8.37035 -2.12487,-1.98486 -4.42709,-4.28783 -6.48644,-6.53208 -11.69799,-12.57418 -20.46327,-27.87286 -25.21076,-44.38879 -3.22084,-11.0235 -4.76739,-22.49089 -5.08512,-33.95705 -0.0475,-1.9991 -0.0759,-4.33768 -0.0419,-6.46924 0.024,-3.57057 0.16255,-7.14048 0.41883,-10.70192 0.12779,-1.7009 0.32786,-3.76347 0.55602,-5.59687 0.43238,-3.50998 1.00175,-6.8226 1.8009,-10.30003 2.40504,-10.32355 6.53345,-20.20046 11.66467,-29.45453 9.27507,-16.51526 23.46411,-30.3294 40.52849,-38.64351 7.36898,-3.66141 15.25954,-6.1724 23.29895,-7.86962 4.52483,-1.18868 9.32671,-2.32235 12.99915,-5.38775 2.17379,-1.80529 3.29501,-4.61467 3.27958,-7.40606 1.20914,-4.55935 3.27721,-8.84236 5.2878,-13.09365 8.64676,-17.77827 23.14344,-32.32239 40.00065,-42.44709 0.48264,-0.28743 1.50472,-0.8794 2.19386,-1.28342 10.06465,-5.75914 21.02807,-9.86829 32.32851,-12.4285 8.30016,-2.02425 16.86506,-2.8805 25.40202,-2.59653 2.67939,0.0631 5.08496,0.189 7.76362,0.35676 9.72934,0.65434 19.48899,1.52488 29.0115,3.71046 1.78015,0.40915 3.88803,0.95119 5.77211,1.50418 10.66951,3.08639 20.73268,8.0867 30.46674,13.18278 7.35941,3.8092 14.34223,8.36587 20.59672,13.81458 8.71606,7.39877 16.66107,15.67 25.52768,22.89575 0.81885,0.49593 1.77761,1.28241 2.75747,0.76634 1.00712,-0.0694 1.70367,-0.82096 2.21823,-1.60805 0.95511,-2.36059 -0.43337,-4.78442 -1.28814,-6.95548 -2.91399,-6.31119 -6.38201,-12.38538 -10.43047,-18.03857 -6.91522,-9.24432 -15.0808,-17.47697 -23.53018,-25.313 -7.36693,-6.68124 -14.99336,-13.19067 -23.55659,-18.30421 -8.12524,-4.63797 -16.64276,-8.61733 -25.4569,-11.75961 -6.18899,-2.1044 -12.47172,-4.21139 -19.04509,-4.62962 -9.30939,-0.66328 -18.65291,-0.41163 -27.97867,-0.47401 -8.64938,0.0759 -17.34048,-0.16979 -25.94335,0.88524 -6.88244,0.95165 -13.48392,3.2402 -20.04568,5.44034 -15.9081,5.5168 -30.92423,13.69434 -43.93106,24.41297 -11.5807,9.51966 -21.86474,20.61995 -30.51181,32.86301 -3.20899,4.68417 -5.63688,9.84241 -8.57309,14.69469 -2.79747,4.76558 -5.79206,9.75233 -10.64962,12.68413 -5.35149,3.30261 -11.03182,5.75563 -16.57323,8.72163 -9.59393,4.94567 -18.95584,10.51977 -27.05441,17.71322 -9.94617,8.48476 -18.432,18.64248 -25.10388,29.88013 -7.10317,11.89399 -12.35806,24.92622 -15.2134,38.4929 -2.32967,-6.63216 -4.16288,-13.46047 -5.25222,-20.40834 -0.74483,-5.20112 0.89724,-10.31537 2.05974,-15.32557 2.444,-9.50905 6.4483,-18.94159 13.47833,-25.98695 7.72948,-7.83051 17.97799,-12.48302 28.18237,-16.17684 2.36718,-0.83207 4.76546,-1.64229 7.04305,-2.34944 9.40994,-2.95412 19.11792,-5.79214 27.38899,-11.36648 5.41592,-3.72301 10.01192,-8.57597 13.78961,-13.93297 3.6925,-5.28889 5.67176,-11.70926 5.61774,-18.15789 -0.0113,-9.05594 -2.51339,-17.86597 -5.06003,-26.48144 -1.00911,-3.30993 -2.14164,-6.83228 -2.99059,-10.03302 -1.28948,-4.57436 -2.03313,-9.37327 -1.34849,-14.1164 0.95034,-8.86748 4.27909,-17.58909 10.17584,-24.35625 7.35587,-8.57044 17.70354,-13.90405 28.23086,-17.53991 0.54069,-0.16886 1.65561,-0.54454 2.4161,-0.79257 5.38593,-1.78549 10.9603,-2.94692 16.60318,-3.5278 6.86067,-0.77789 13.77564,-1.10881 20.60268,-1.19599 1.00975,-0.0166 2.01974,-0.0127 3.0296,-0.0203 z m -55.27548,32.20482 c -5.09479,0.26591 -9.33066,3.86587 -12.16962,7.85959 -2.71257,3.9108 -4.65642,8.91774 -3.36691,13.69174 0.7755,2.89113 3.16118,5.53853 6.27949,5.7472 4.35556,0.34959 8.51801,-1.74118 11.91052,-4.29591 3.36305,-2.56605 6.09057,-6.33439 6.30206,-10.68202 0.23953,-3.8484 -0.61792,-8.20673 -3.69109,-10.80676 -1.47372,-1.15392 -3.42721,-1.55007 -5.26445,-1.51384 z m 260.26365,22.39596 c 6.2225,0.0312 12.51144,0.7686 18.43358,2.73757 8.89222,2.97752 16.90504,8.23067 23.57843,14.77831 7.40007,7.214 13.94155,15.38893 18.73532,24.57373 1.74002,3.27285 3.3667,6.88533 4.59499,10.21486 1.49981,4.09666 2.70687,8.31964 3.3112,12.64664 -12.74427,-11.08426 -25.08386,-22.62392 -37.44358,-34.13235 -10.80007,-10.15063 -21.63386,-20.27357 -32.0831,-30.78759 0.29106,-0.01 0.58206,-0.0231 0.87316,-0.0312 z m 45.21148,155.49311 c -3.53105,10e-4 -6.73769,2.52681 -7.79608,5.85698 -1.44119,4.32733 -0.698,9.06541 0.66522,13.31301 1.79953,5.50854 6.09992,9.94921 11.27521,12.43719 3.6239,1.78144 7.86486,3.35576 11.89909,2.08526 3.17194,-0.9518 5.06817,-4.25028 5.07963,-7.44666 0.0832,-4.9523 -2.00014,-9.64638 -4.35896,-13.89412 -3.00431,-5.1349 -7.32394,-9.96024 -13.12973,-11.84704 -1.17615,-0.34825 -2.40567,-0.54932 -3.63438,-0.50462 z m -239.10374,83.1712 c 1.96887,3.40173 3.84927,6.89456 6.5175,9.81738 6.2771,7.11918 13.43305,13.44776 21.07817,19.06017 7.59734,5.57698 16.41468,9.16717 25.22728,12.33588 11.65997,4.05886 23.68836,7.09652 35.89278,8.96824 8.16571,0.71436 16.37978,0.60856 24.56886,0.49295 4.35509,-0.16251 8.75265,-0.12004 13.05694,-0.87621 1.70475,-0.31962 3.18621,-1.86414 2.94859,-3.6642 -0.30953,-2.20305 -2.64717,-3.11056 -4.5248,-3.6726 -7.8623,-2.2768 -15.99995,-3.3839 -23.93038,-5.38848 -8.17346,-1.94107 -16.59744,-4.41636 -24.66269,-7.346 -11.64807,-4.20122 -22.95489,-9.40583 -33.93339,-14.9631 -11.39969,-5.76284 -22.48007,-12.16607 -34.11777,-17.45008 -3.89868,-1.40423 -7.9176,-2.46512 -11.8632,-3.73505 1.24737,2.14037 2.49473,4.28075 3.74211,6.4211 z" />
</svg>
