<?xml version="1.0" encoding="UTF-8" standalone="no"?>
<!-- Created with Inkscape (http://www.inkscape.org/) -->

<svg
   version="1.1"
   id="svg1"
   width="779.67853"
   height="645.91608"
   viewBox="0 0 779.67853 645.91608"
   xmlns="http://www.w3.org/2000/svg"
   xmlns:svg="http://www.w3.org/2000/svg">
  <defs
     id="defs1" />
  <path
     id="path1-4"
     style="fill:#ffffff;fill-opacity:1;stroke-width:1.49721"
     d="m 269.00703,0.02843805 c -16.6231,0.229333 -33.4335,0.206309 -49.74733,3.81563695 -14.61854,3.242588 -28.18606,9.84848 -41.47485,16.556437 -22.05718,11.594465 -41.05792,29.595655 -52.2282,52.015685 -5.86078,11.82613 -9.7294,24.76025 -10.55131,37.965483 -0.85454,14.97887 3.23673,29.6032 6.97572,43.95169 1.52998,6.49506 3.38069,12.94275 4.33021,19.55486 0.46991,3.2911 -1.38161,6.42003 -4.04928,8.22766 -6.5259,4.57592 -14.40636,6.4954 -21.87819,8.94269 -11.688669,3.92113 -23.225796,8.38632 -34.290475,13.84098 -17.55755,8.88001 -32.651017,22.39523 -43.704921,38.64624 -8.509971,12.44669 -14.9344203,26.27607 -19.4363119,40.64811 -2.94105551,10.49567 -2.79481181,21.5083 -2.94973601,32.31478 0.047176,10.30784 -0.2488923,20.65867 0.8845277,30.92175 1.12076571,9.66289 5.38509091,18.58784 9.85499121,27.1015 7.684785,14.17779 17.65968,26.9985 28.706773,38.70289 2.839342,3.16054 6.199993,6.7557 7.636325,11.08664 2.225359,6.82431 2.812268,14.03801 4.41944,21.0128 4.744685,22.19963 12.517956,43.86244 23.916051,63.53534 4.329655,7.52181 9.406318,14.59554 15.045306,21.18852 1.385737,1.77542 2.712159,3.61118 3.784465,5.59515 -90.2815133,56.52855 390.306325,143.71397 472.587575,96.97155 1.11539,-0.63362 7.5965,-5.21328 11.55451,-7.56382 26.6641,-15.83481 56.97997,-25.44753 81.99212,-43.96291 32.60236,-24.13451 61.0943,-54.01169 82.80235,-88.32605 15.7288,-24.99749 27.92785,-52.52932 33.52338,-81.62776 2.72051,-15.45782 3.35722,-31.23304 2.76506,-46.89813 -0.44649,-9.95483 -1.47581,-19.96899 -4.47526,-29.51532 -2.60458,-9.46094 -6.36217,-18.70744 -12.17026,-26.67868 -7.95948,-11.08044 -17.83221,-20.58851 -27.52218,-30.12762 -11.94351,-11.56899 -24.11375,-22.89025 -36.22707,-34.27846 -0.68199,-15.23371 -0.96504,-30.56711 -3.85837,-45.58817 -3.15647,-17.62858 -9.70336,-34.66576 -19.47232,-49.69453 -8.00314,-12.37765 -17.6364,-23.66123 -28.15515,-33.96468 -18.1514,-17.343853 -39.97146,-31.004013 -63.80915,-39.000353 -12.73054,-4.19445 -26.13863,-6.82577 -39.58503,-6.35388 -9.74171,0.72294 -19.29786,2.89096 -28.71809,5.38924 -3.83867,0.89002 -7.67777,1.89533 -11.58827,2.38355 -6.23255,-2.77449 -11.95174,-6.56935 -17.70829,-10.20175 -16.499,-11.20879 -33.96933,-20.94556 -52.02382,-29.40796 C 404.39328,23.224416 373.18451,12.361551 341.23718,4.571244 332.29783,2.241526 323.14081,0.70493705 313.89755,0.39751805 c -14.95346,-0.577551 -29.92885,-0.349662 -44.89046,-0.36908 z m 8.58679,51.91060895 c 6.372,0.005 12.48579,0.17085 18.84319,0.54899 3.03015,0.19327 6.62798,0.46386 9.64155,0.78294 10.71425,0.94472 21.13288,3.73879 31.54901,6.27779 30.68854,7.77051 60.62178,18.72301 88.7081,33.37443 10.19331,5.29583 20.14772,11.043833 29.88052,17.143193 1.47052,0.93337 3.53458,2.24283 5.00836,3.19555 14.06963,9.12916 27.63742,18.91959 40.84653,29.20077 15.77471,12.50971 30.52444,26.09477 45.49152,39.50928 19.49467,17.62169 38.92067,35.32161 58.78884,52.52231 18.60369,16.27242 37.4929,32.21459 56.54489,47.9595 13.10219,11.00646 26.36436,21.84803 38.89062,33.51513 0.71524,0.68141 2.09382,1.84731 0.42619,0.82252 -4.39182,-2.38536 -10.32411,-3.37206 -14.57386,-0.15862 -4.1775,3.18364 -5.14136,9.10113 -4.12716,13.9827 1.62629,5.98347 6.36396,10.37588 10.70549,14.51234 4.58813,4.10118 9.81388,8.12648 16.05678,9.09177 3.83165,0.68106 8.17737,-1.22247 9.55435,-5.01686 1.46252,-3.64834 0.63653,-7.73422 -0.57624,-11.33317 3.52591,6.49883 6.80551,13.31835 7.9053,20.69836 0.0912,1.85272 -1.87729,2.88123 -2.92653,4.14446 -1.75328,1.53345 -4.10834,2.97502 -5.84957,4.05614 -13.05786,7.73053 -26.82969,14.19139 -40.77085,20.15313 -7.97231,3.40578 -16.15154,6.30354 -24.4923,8.66758 -11.18381,3.34453 -22.47709,6.31849 -33.84446,8.97172 -19.10549,4.43053 -38.80824,7.94103 -58.28054,10.88939 -7.70037,1.16946 -15.45817,1.95682 -23.24082,2.28608 -1.33214,0.0519 -3.2893,0.11431 -4.86131,0.17028 -21.24073,0.43352 -42.48583,-0.0887 -63.72618,-0.31595 -16.2019,-0.24691 -32.23685,-0.54605 -48.3922,-1.35448 -9.16848,-0.47972 -18.45656,-1.1794 -27.42432,-2.39577 -15.52896,-2.03221 -30.67157,-6.42361 -45.22558,-12.13616 -12.60557,-5.07143 -24.54447,-11.89974 -35.03123,-20.56402 -0.51792,-0.46378 -1.72297,-1.44285 -2.48899,-2.13222 -11.67524,-10.16033 -21.09358,-22.83186 -27.61814,-36.85798 -2.12275,-4.3304 -4.26496,-9.25747 -5.1676,-14.2266 -0.60409,-3.24654 -0.8776,-6.52013 -1.07487,-9.6577 -0.27158,-4.21919 -0.43295,-8.86798 -0.26487,-13.25809 0.4165,-15.08331 5.47141,-29.69267 12.50286,-42.91422 11.49877,-21.32563 29.08291,-39.50538 50.46254,-51.01529 3.15983,-1.68213 6.40114,-3.21292 9.71879,-4.55843 -10.38448,8.31082 -19.78986,17.89596 -27.7367,28.56754 -10.95879,14.62436 -15.28373,33.36202 -14.49529,51.41708 0.618,13.41887 3.87155,26.79899 9.97545,38.78972 4.10302,7.47063 9.1253,14.49569 15.14292,20.54563 2.34358,2.22827 5.31086,4.9504 8.81082,4.10345 3.31165,-1.31538 4.68117,-4.99557 5.82031,-8.09386 1.49268,-4.73514 4.88514,-9.0175 9.42991,-11.12793 1.7894,-0.47168 3.53129,0.80235 4.9823,1.70264 2.83005,2.20376 5.94696,4.95212 6.33044,8.74305 0.0692,3.82638 -3.38646,6.43305 -6.39465,8.14764 -4.40114,2.24535 -12.48381,1.56849 -13.35719,6.43249 -0.80022,4.45654 5.82431,7.03582 9.42335,9.78321 6.72598,5.13444 14.42357,9.00257 22.27919,12.16751 7.81687,3.2607 16.42273,3.25565 24.74602,3.16926 18.2766,-0.0555 36.99837,-3.84236 52.62443,-13.67323 13.16118,-8.1621 23.40579,-20.76156 28.97871,-35.18893 4.2453,-10.7519 5.50785,-22.438 5.60513,-33.92021 0.0508,-9.15771 -1.05604,-18.34106 -3.70335,-27.1233 -1.29054,-4.25637 -2.18858,-8.92375 -5.22664,-12.34562 -2.24808,-2.44477 -6.11959,-2.53924 -8.79333,-0.75182 -5.19893,3.35671 -8.83604,8.54081 -13.59146,12.43883 -5.45868,4.66062 -11.81004,9.07475 -19.16723,9.71936 -7.87028,0.29473 -15.33207,-4.18079 -20.00824,-10.3159 -5.6358,-7.3827 -8.3133,-17.48634 -5.50596,-26.51485 1.74023,-5.69349 6.50185,-10.16395 12.16084,-11.87869 7.70666,-2.42033 15.94795,-3.12711 23.97232,-2.30087 3.20974,0.32523 6.41986,1.28778 8.88349,3.45675 7.85396,6.30109 14.60461,13.86765 20.89159,21.70099 4.71367,5.86598 8.66722,12.37713 11.20996,19.48062 0.28624,0.81762 0.65088,1.79757 0.98813,2.83959 1.18179,3.67524 2.09926,7.4763 2.72736,11.12463 0.72529,4.07096 1.14513,8.55663 1.31239,12.46248 0.35013,12.29776 -0.89136,24.73687 -4.48058,36.53475 -0.97643,3.1526 -2.09709,6.16038 -3.46958,9.27073 -1.54211,3.49711 -3.37773,6.95932 -5.24695,10.08686 -5.78058,9.43608 -12.58384,18.44454 -21.42332,25.23018 -7.75159,6.23079 -16.36506,11.25022 -24.48877,16.95347 -2.3072,1.81389 -5.24844,3.60817 -5.86712,6.68875 -0.12754,1.1265 0.0629,2.16996 0.77147,3.07917 1.40707,2.10572 4.35833,2.10004 6.59621,1.50876 6.55265,-1.72547 12.83472,-4.38286 18.93956,-7.29582 15.87762,-7.71583 29.57535,-19.89078 38.87858,-34.91365 9.71982,-15.7679 15.53795,-33.86497 17.31005,-52.27919 2.50199,-25.8261 -3.50954,-52.25029 -16.3156,-74.76324 -6.27336,-11.11957 -14.11923,-21.37771 -23.51142,-30.04849 -14.80969,-13.77351 -31.96923,-24.99898 -50.39902,-33.3055 -10.18696,-4.50332 -20.86085,-8.20089 -31.98542,-9.41847 -15.78152,-1.90439 -31.74643,-2.14847 -47.60604,-1.21462 -8.91894,0.64821 -18.01441,1.45502 -26.36139,4.90745 -29.89818,11.12463 -55.61479,33.21591 -70.81375,61.29615 -11.48162,20.91716 -16.63832,45.1781 -14.87631,68.95997 1.66903,24.30222 10.17197,47.794 22.72183,68.5515 1.89793,3.34726 3.94396,6.67653 5.10499,10.36752 -3.99272,0.12848 -7.52815,2.33568 -10.98254,4.12084 -5.55208,2.97156 -10.4831,7.09562 -14.18714,12.2046 -3.80243,5.2768 -7.04816,11.46432 -7.00421,18.12387 0.17763,3.04939 1.13699,6.58693 3.94886,8.21954 2.62377,1.26911 5.42734,-0.35543 7.30709,-2.19212 3.42929,-3.45246 7.63389,-6.21231 12.414,-7.33565 6.96767,-1.65657 14.24853,-1.58001 21.33474,-0.84489 11.02426,1.21 20.65464,7.20348 29.87069,12.92908 17.38114,10.89521 36.67001,18.55375 56.58925,23.33176 27.81945,6.67907 56.46834,8.89298 84.97792,10.13531 29.74713,1.18854 59.52804,1.02372 89.292,0.77973 17.32804,-0.21831 34.74319,-0.63773 51.8425,-3.7168 38.29,-6.47065 76.29252,-16.33965 111.5353,-32.91808 7.37292,-3.45754 14.56891,-7.29197 22.0604,-10.49672 -2.7482,9.66094 -6.16837,19.13499 -10.10185,28.3756 -6.10674,14.41171 -14.87983,27.52868 -24.79009,39.58601 -4.89031,6.00155 -10.06866,12.07388 -15.19381,17.6828 -12.81031,13.92215 -27.47004,26.65419 -42.89474,37.87583 -25.0178,18.1818 -52.5381,32.97081 -81.38838,44.33055 -17.80408,7.0004 -36.61945,12.82659 -55.53153,16.98675 -10.21766,2.42157 -20.68148,3.63193 -31.16634,4.00926 -20.06599,0.80734 -40.32834,0.74352 -60.49821,0.91399 -17.89377,0.0675 -35.95462,0.1641 -53.74309,-0.26484 -72.3032,-3.1375 -58.69272,-11.90922 -50.64993,-14.44764 2.74433,-0.90924 5.96075,-2.69449 6.12399,-5.93194 0.22581,-3.14533 -2.71275,-5.2762 -5.37932,-6.2205 -4.81513,-1.57856 -9.90706,-2.09296 -14.90832,-2.79112 2.57162,-0.79077 5.75318,-1.96522 6.41243,-4.89097 0.63639,-2.52637 -1.36715,-4.87466 -3.69403,-5.61155 -5.62347,-1.82648 -11.59714,-2.1234 -17.43459,-2.81009 -19.22826,-1.56431 -38.37977,-5.23522 -56.85166,-10.93328 -3.42584,-1.08483 -7.21665,-2.34062 -10.72468,-3.66666 -8.51144,-3.15739 -16.80931,-7.04306 -24.19407,-12.3722 -3.61912,-2.45325 -7.59828,-5.36419 -11.04917,-8.04955 -4.35966,-3.39529 -8.91958,-7.26089 -13.08441,-11.17861 -2.83776,-2.65078 -5.91238,-5.72641 -8.66264,-8.72362 -15.6227,-16.79284 -27.32875,-37.22427 -33.66904,-59.28133 -4.30143,-14.72192 -6.36686,-30.03664 -6.79119,-45.34973 -0.0634,-2.66979 -0.101355,-5.79297 -0.056,-8.63968 0.0321,-4.7685 0.21708,-9.53613 0.55934,-14.29244 0.17067,-2.27156 0.43786,-5.02612 0.74256,-7.47464 0.57745,-4.68758 1.33784,-9.11159 2.40512,-13.7557 3.21192,-13.78714 8.72543,-26.97777 15.57819,-39.3366 12.38687,-22.05617 31.33638,-40.50499 54.1259,-51.6085 9.84129,-4.88983 20.37915,-8.24327 31.1158,-10.5099 6.04292,-1.58749 12.45584,-3.10151 17.3604,-7.19535 2.90311,-2.41097 4.40048,-6.16291 4.37989,-9.89082 1.61481,-6.08903 4.37671,-11.80899 7.06186,-17.4866 11.54777,-23.74292 30.90812,-43.16663 53.42097,-56.68819 0.64457,-0.38386 2.00956,-1.17444 2.9299,-1.71401 13.44137,-7.69135 28.08304,-13.17913 43.1748,-16.59829 11.08489,-2.7034 22.52334,-3.84692 33.92447,-3.46767 3.57832,0.0842 6.79097,0.25241 10.36833,0.47645 12.99355,0.87387 26.02759,2.03647 38.74493,4.95532 2.37739,0.54642 5.19247,1.27032 7.70867,2.00884 14.24915,4.12188 27.68854,10.79981 40.68841,17.60564 9.8285,5.08719 19.15407,11.17264 27.50696,18.4494 11.64032,9.88107 22.2509,20.92733 34.09228,30.57733 1.09358,0.66231 2.37401,1.71266 3.68261,1.02345 1.34501,-0.0926 2.27525,-1.09639 2.96245,-2.14755 1.27555,-3.15258 -0.57877,-6.38961 -1.72032,-9.28906 -3.89164,-8.42862 -8.52319,-16.54071 -13.92991,-24.09056 -9.23529,-12.34582 -20.14045,-23.34053 -31.42462,-33.80557 -9.83855,-8.92282 -20.02366,-17.61618 -31.45988,-24.44531 -10.85127,-6.19403 -22.22644,-11.50847 -33.99775,-15.705 -8.26541,-2.81043 -16.65601,-5.62433 -25.43477,-6.18286 -12.4327,-0.885823 -24.911,-0.54973 -37.36558,-0.633053 -11.55126,0.101373 -23.15825,-0.22676 -34.6474,1.182253 -9.19152,1.27093 -18.00781,4.32728 -26.77106,7.26558 -21.2453,7.3677 -41.29937,18.28882 -58.67003,32.60358 -15.46606,12.71353 -29.20042,27.538 -40.7486,43.88863 -4.28562,6.25572 -7.52807,13.14456 -11.44938,19.62479 -3.73604,6.36446 -7.73531,13.02427 -14.2226,16.93969 -7.14693,4.41064 -14.73302,7.68666 -22.13359,11.64776 -12.81272,6.60496 -25.31556,14.04918 -36.13123,23.65605 -13.283135,11.33142 -24.61597,24.89708 -33.526291,39.90499 -9.486294,15.88445 -16.504205,33.28903 -20.317528,51.40735 -3.11128,-8.85726 -5.559534,-17.97648 -7.014352,-27.25538 -0.994721,-6.94611 1.198265,-13.7762 2.750792,-20.46734 3.263963,-12.69936 8.611717,-25.29654 18.000343,-34.70563 10.322738,-10.45767 24.009641,-16.6711 37.637616,-21.60421 3.16137,-1.11123 6.36427,-2.19329 9.40601,-3.13769 12.567,-3.94523 25.53202,-7.73541 36.57806,-15.17995 7.23298,-4.9721 13.37095,-11.45324 18.41607,-18.60753 4.93133,-7.06331 7.57464,-15.63774 7.5025,-24.2499 -0.0151,-12.09424 -3.35664,-23.86005 -6.75769,-35.36603 -1.34766,-4.42041 -2.86016,-9.12453 -3.99394,-13.39912 -1.7221,-6.10907 -2.71525,-12.51803 -1.8009,-18.85249 1.26918,-11.84254 5.71473,-23.490273 13.58985,-32.527833 9.82378,-11.44584 23.64313,-18.56889 37.70238,-23.42459 0.7221,-0.22552 2.21108,-0.72723 3.22671,-1.05848 7.19291,-2.38452 14.63751,-3.93562 22.17359,-4.71139 9.16244,-1.03887 18.3974,-1.48082 27.51492,-1.59724 1.34853,-0.0222 2.69738,-0.017 4.04604,-0.0271 z m -73.82054,43.00961 c -6.8041,0.35512 -12.46112,5.162883 -16.25256,10.496503 -3.62264,5.22289 -6.21866,11.90967 -4.49651,18.28536 1.03568,3.8611 4.22176,7.39672 8.38627,7.67539 5.81686,0.46689 11.37583,-2.32534 15.90652,-5.73719 4.49137,-3.42697 8.13397,-8.45958 8.41642,-14.26586 0.3199,-5.13956 -0.82523,-10.96011 -4.92945,-14.432463 -1.96817,-1.54106 -4.57705,-2.07013 -7.03069,-2.02174 z m 347.58274,29.909863 c 8.31016,0.0417 16.70905,1.02647 24.6181,3.65603 11.87557,3.97649 22.57671,10.99209 31.48904,19.73648 9.88281,9.63431 18.61897,20.55195 25.02107,32.81826 2.32379,4.37092 4.49623,9.19538 6.13661,13.64198 2.00301,5.4711 3.61504,11.1109 4.42212,16.88962 -17.02,-14.80305 -33.49956,-30.21431 -50.00599,-45.58384 -14.42352,-13.55619 -28.89207,-27.0754 -42.84706,-41.1169 0.3887,-0.0134 0.77734,-0.0308 1.16611,-0.0417 z m 60.38004,207.66143 c -4.71573,9.9e-4 -8.99821,3.37456 -10.41168,7.82202 -1.92471,5.77915 -0.93218,12.10687 0.8884,17.77955 2.40327,7.35667 8.14646,13.28719 15.05807,16.6099 4.83972,2.37911 10.50353,4.48161 15.89126,2.78487 4.23614,-1.27114 6.76855,-5.67627 6.78386,-9.94503 0.11111,-6.61381 -2.67118,-12.88277 -5.8214,-18.55565 -4.01226,-6.85766 -9.78114,-13.30191 -17.53479,-15.82174 -1.57074,-0.46509 -3.21277,-0.73361 -4.85372,-0.67392 z M 292.41243,443.5953 c 2.62943,4.54301 5.14071,9.20769 8.70414,13.11113 8.38308,9.50768 17.93987,17.95951 28.14995,25.4549 10.14626,7.44807 21.92184,12.24277 33.69109,16.4746 15.57192,5.42062 31.63587,9.47742 47.9349,11.97711 10.90532,0.95402 21.87523,0.81273 32.81177,0.65833 5.81623,-0.21704 11.68918,-0.16032 17.43757,-1.17017 2.27669,-0.42686 4.25519,-2.48957 3.93785,-4.89356 -0.41337,-2.94217 -3.5353,-4.15415 -6.04288,-4.90477 -10.50012,-3.04068 -21.36797,-4.5192 -31.95908,-7.19633 -10.91568,-2.5923 -22.16592,-5.89806 -32.93708,-9.8106 -15.55603,-5.61073 -30.65631,-12.5615 -45.31814,-19.98325 -15.2243,-7.69628 -30.02217,-16.24782 -45.56436,-23.30463 -5.20669,-1.87535 -10.57396,-3.29217 -15.84333,-4.98816 1.66587,2.85847 3.33173,5.71695 4.9976,8.5754 z" />
</svg>
