<?xml version="1.0" encoding="UTF-8" standalone="no"?>
<!-- Created with Inkscape (http://www.inkscape.org/) -->

<svg
   version="1.1"
   id="svg1"
   width="1813.3333"
   height="504"
   viewBox="0 0 1813.3333 504"
   sodipodi:docname="coins_background.svg"
   inkscape:export-filename="..\..\coins_background_plain.png"
   inkscape:export-xdpi="96"
   inkscape:export-ydpi="96"
   inkscape:version="1.4 (86a8ad7, 2024-10-11)"
   xmlns:inkscape="http://www.inkscape.org/namespaces/inkscape"
   xmlns:sodipodi="http://sodipodi.sourceforge.net/DTD/sodipodi-0.dtd"
   xmlns:xlink="http://www.w3.org/1999/xlink"
   xmlns="http://www.w3.org/2000/svg"
   xmlns:svg="http://www.w3.org/2000/svg">
  <sodipodi:namedview
     id="namedview1"
     pagecolor="#505050"
     bordercolor="#eeeeee"
     borderopacity="1"
     inkscape:showpageshadow="0"
     inkscape:pageopacity="0"
     inkscape:pagecheckerboard="0"
     inkscape:deskcolor="#505050"
     inkscape:zoom="0.5"
     inkscape:cx="984"
     inkscape:cy="527"
     inkscape:window-width="1920"
     inkscape:window-height="1137"
     inkscape:window-x="1912"
     inkscape:window-y="-8"
     inkscape:window-maximized="1"
     inkscape:current-layer="svg1" />
  <defs
     id="defs1">
    <linearGradient
       id="linearGradient74"
       inkscape:collect="always">
      <stop
         style="stop-color:#1ae560;stop-opacity:1;"
         offset="0.2"
         id="stop74" />
      <stop
         style="stop-color:#a21ae5;stop-opacity:1;"
         offset="0.89999998"
         id="stop75" />
    </linearGradient>
    <inkscape:path-effect
       effect="powerclip"
       message=""
       id="path-effect72"
       is_visible="true"
       lpeversion="1"
       inverse="true"
       flatten="false"
       hide_clip="false" />
    <clipPath
       clipPathUnits="userSpaceOnUse"
       id="clipPath72">
      <path
         style="display:none;fill:#ffffff;fill-opacity:1;stroke-width:0.110963"
         d="m 1340.2497,258.58125 c -6.2018,-2.53659 -11.754,-7.41794 -15.1815,-13.17546 -3.0774,-5.16922 -6.3506,-12.12593 -3.9017,-17.62081 0.187,-0.41958 1.1997,-0.67803 1.1997,-0.67803 l -0.6659,-0.74062 c -0.9993,-1.11155 -1.2084,-2.17224 -0.6644,-3.37137 0.6178,-1.36187 1.8479,-2.50889 4.2078,-3.92383 0.651,-0.39031 1.207,-0.7299 1.2356,-0.75465 0.029,-0.0248 -0.1192,-0.26935 -0.3283,-0.54353 -0.8305,-1.08875 -1.0458,-2.27669 -0.6043,-3.33338 0.4856,-1.1623 1.4427,-1.74663 4.2835,-2.61524 2.9491,-0.90172 3.6248,-1.15907 3.6248,-1.38054 0,-0.11442 -0.2217,-0.46702 -0.4926,-0.78356 -1.3005,-1.51933 -2.3801,-4.03075 -2.8227,-6.56621 -0.2175,-1.24633 -0.2515,-1.31622 -1.0706,-2.20056 -1.0229,-1.10434 -1.8506,-2.35663 -2.3006,-3.48092 -0.2912,-0.72745 -0.3345,-1.10274 -0.3356,-2.90661 -10e-4,-1.63973 0.057,-2.24086 0.2762,-2.88504 0.909,-2.66612 2.475,-4.53801 4.6746,-5.58752 0.6917,-0.33002 1.8267,-0.77045 2.5223,-0.97874 1.5134,-0.45321 1.9884,-0.85769 1.8773,-1.59893 -0.04,-0.26946 -0.2478,-1.1476 -0.4611,-1.95142 -0.4436,-1.67211 -0.4832,-2.62198 -0.1611,-3.85859 0.5865,-2.25209 2.2312,-4.17309 4.5516,-5.31629 2.4308,-1.19761 3.2165,-1.34765 7.0579,-1.34765 3.2822,0 3.3552,0.007 5.2081,0.48569 3.5703,0.92276 7.1716,2.48091 9.7855,4.23389 0.8009,0.53709 1.571,0.97653 1.7115,0.97653 0.1404,0 0.7501,-0.13159 1.3549,-0.29242 0.6048,-0.16083 1.4325,-0.29283 1.8394,-0.29333 2.5483,-0.003 5.6049,1.47855 7.7246,3.74451 2.2129,2.3656 3.0801,4.43823 3.2229,7.70257 l 0.059,1.34227 1.0068,0.94465 c 3.8079,3.57308 4.1659,4.03487 4.7172,6.08535 0.3311,1.23132 0.3267,3.78064 -0.01,5.40021 -1.1853,5.71251 -6.1102,11.54528 -12.2473,14.50507 -0.8968,0.43249 -2.0568,0.90174 -2.5779,1.04279 -1.0983,0.29731 -1.0961,0.24474 -0.074,1.74176 l 0.6932,1.01504 v 1.75225 1.75225 c 0,0 0.7079,0.112 1.0332,0.25312 3.4318,1.48877 7.1179,3.16865 9.397,6.13498 2.2748,2.96065 3.5947,6.90738 3.5006,10.63982 -0.1058,4.19405 -1.7238,8.6246 -4.5312,11.74223 -3.9585,4.39593 -10.008,6.87545 -15.799,8.08306 -7.3678,1.53644 -15.5698,1.45643 -22.536,-1.39279 z m 19.0967,-1.58049 c 5.7285,-0.62844 11.4862,-2.9341 14.6755,-5.87683 2.6334,-2.42975 4.8192,-6.82303 5.3139,-10.6802 0.5007,-3.90435 -1.6029,-8.37127 -5.229,-11.1036 -1.4004,-1.05524 -2.724,-1.74855 -4.2559,-2.22927 -0.9935,-0.31177 -1.3883,-0.34815 -3.7727,-0.34767 -2.6439,5.7e-4 -2.6737,0.004 -4.1253,0.50429 -3.6159,1.24585 -6.1218,3.98031 -6.816,7.43784 -0.2874,1.43106 -0.2907,3.8664 -0.01,5.2215 0.6342,3.03131 3.0648,5.79933 6.0004,6.83359 1.4838,0.52275 3.7958,0.64106 5.3041,0.27143 2.7256,-0.66794 4.7487,-2.85883 5.2179,-5.65073 0.4727,-2.81199 -1.0291,-5.96985 -3.3645,-7.07466 -1.9451,-0.92017 -3.5688,-0.82747 -4.7666,0.27215 -1.6282,1.49472 -1.8116,3.66305 -0.4314,5.10193 1.0008,1.04334 2.0373,1.22007 2.6795,0.45687 0.2107,-0.25036 0.383,-0.5559 0.383,-0.67898 0,-0.12307 -0.2996,-0.51495 -0.6658,-0.87083 -0.7439,-0.72299 -0.8508,-1.21278 -0.3698,-1.69376 0.8675,-0.86755 3.1188,0.46889 3.5629,2.11503 0.6832,2.53286 -1.5264,4.82413 -4.4988,4.66515 -1.3469,-0.072 -2.2467,-0.50422 -3.3642,-1.6158 -2.1182,-2.10694 -2.5902,-5.10447 -1.2315,-7.82035 1.0833,-2.16532 3.3418,-3.40631 6.1974,-3.40525 3.353,0.001 6.4014,1.74378 8.3849,4.79297 1.5432,2.37257 1.5633,5.74762 0.053,8.88805 -1.0348,2.15155 -3.6541,4.39423 -6.4935,5.55999 -2.1416,0.87924 -3.3085,1.07518 -6.3828,1.07176 -4.158,-0.005 -7.4528,-0.62028 -11.2602,-2.10405 -3.0904,-1.20437 -5.1505,-2.41449 -7.4281,-4.36321 -0.6766,-0.57889 -1.4755,-1.23856 -1.7754,-1.46594 -1.525,-1.15617 -2.0282,-1.88749 -1.6782,-2.43903 0.092,-0.14552 0.2195,-0.11129 0.5494,0.14795 0.6244,0.49074 1.7762,0.4513 2.9986,-0.10268 1.2468,-0.565 2.5945,-2.02599 3.3795,-3.66353 l 0.5673,-1.18354 0.098,0.72016 c 0.054,0.39608 0.1052,1.71882 0.114,2.93941 0.019,2.55777 0.2348,3.81079 0.7982,4.62373 0.876,1.26409 1.8341,1.57863 3.5023,1.14983 1.1002,-0.2828 1.5221,-0.51882 1.8663,-1.04417 0.2257,-0.3445 0.2251,-0.41748 -0.01,-1.02938 -0.2696,-0.70595 -0.9159,-1.35043 -1.5018,-1.49748 -0.1986,-0.0498 -0.6595,0.008 -1.0243,0.12772 -0.3647,0.12008 -0.6632,0.1713 -0.6632,0.11382 0,-0.0575 0.1328,-0.4903 0.295,-0.96181 0.7923,-2.3029 0.9563,-5.66919 0.376,-7.71793 -0.4466,-1.57679 -1.5876,-2.55674 -2.9856,-2.56415 -0.8277,-0.004 -2.4423,0.50431 -3.554,1.11978 -2.2163,1.22697 -5.4222,4.01685 -6.0584,5.27229 -0.7522,1.48442 -1.048,0.5523 -0.502,-1.58221 0.545,-2.13092 1.843,-4.33193 3.1994,-5.42515 0.7504,-0.60477 2.7099,-1.54021 3.8235,-1.82532 0.5073,-0.12987 1.5218,-0.22575 2.3886,-0.22575 1.7349,0 2.9595,0.30971 4.1094,1.0393 0.5683,0.36058 0.7001,0.40109 0.6187,0.19025 -0.057,-0.14733 -0.1813,-0.75631 -0.2766,-1.35329 l -0.1732,-1.08542 -2.3688,0.12189 c -3.7602,0.19348 -4.0072,0.14262 -4.773,-0.98254 -0.2995,-0.44001 -0.3329,-0.66704 -0.3329,-2.26132 0,-1.27651 0.086,-2.13906 0.3079,-3.08379 0.5126,-2.18342 0.6112,-1.94978 0.8338,1.97629 0.099,1.74311 0.1742,2.23146 0.3758,2.43301 0.2012,0.20123 0.6106,0.26495 2.0271,0.31545 2.3196,0.0827 4.7091,-0.17367 6.7844,-0.72789 0.9206,-0.24587 1.7399,-0.42502 1.8207,-0.39811 0.081,0.0269 -0.2565,0.60722 -0.7492,1.28959 -1.237,1.71292 -1.1894,2.51647 0.1386,2.33836 0.9644,-0.12937 1.9392,-0.69569 2.9824,-1.73273 0.7858,-0.78114 1.0318,-1.1387 1.2206,-1.77475 0.4837,-1.62858 0.2199,-2.76256 -0.8394,-3.60893 -0.5059,-0.40422 -0.6807,-0.45181 -1.8674,-0.50855 -2.4726,-0.11822 -6.5404,0.45956 -8.1034,1.15098 -0.3779,0.16714 -0.7229,0.2681 -0.7666,0.22435 -0.084,-0.0838 0.085,-0.88839 0.4958,-2.36523 0.1359,-0.48823 0.3162,-1.16945 0.4006,-1.51381 0.209,-0.8522 0.4125,-0.65279 0.4125,0.40418 0,0.47864 0.054,0.90343 0.1193,0.94398 0.066,0.0406 0.8146,-0.18149 1.6644,-0.49344 0.8499,-0.31195 1.928,-0.64552 2.3959,-0.74127 0.4679,-0.0958 0.8507,-0.23079 0.8507,-0.30007 0,-0.0693 -0.6491,-0.37473 -1.4425,-0.67876 -2.5691,-0.98448 -4.4184,-2.03315 -2.6781,-1.51857 0.4796,0.1418 1.9511,0.18293 5.7709,0.16129 4.6028,-0.0261 5.2762,-0.0612 6.5838,-0.34319 5.443,-1.1739 10.6719,-4.10912 13.9109,-7.80874 1.8651,-2.13043 2.5308,-3.25083 3.2938,-5.54342 0.1843,-0.55382 0.3019,-1.0401 0.2614,-1.08062 -0.041,-0.0405 -0.7298,0.25559 -1.5317,0.65801 -2.481,1.245 -5.2408,2.09678 -8.7215,2.69185 -1.4725,0.25174 -2.4056,0.29353 -6.5533,0.29353 -7.7412,0 -11.2799,-0.6317 -14.3454,-2.56077 -1.2148,-0.76446 -1.8289,-0.97559 -2.8609,-0.98356 -0.952,-0.007 -1.5246,0.16911 -2.0031,0.61733 -0.2982,0.27936 -0.338,0.28484 -0.4248,0.0585 -0.1924,-0.50134 0.3625,-1.52799 1.0843,-2.00611 0.3751,-0.24841 0.7997,-0.45166 0.9437,-0.45166 0.4813,0 0.4469,-0.28506 -0.1568,-1.30132 -2.1163,-3.56217 -2.1489,-7.42524 -0.089,-10.5239 1.178,-1.77198 2.9308,-3.11522 4.9635,-3.80383 1.1024,-0.37345 4.5071,-0.36926 5.9053,0.007 2.184,0.58818 4.7758,2.29906 6.0606,4.00079 2.1231,2.81203 2.5225,6.39823 1.0551,9.4729 -0.7689,1.61125 -2.006,2.77076 -3.6828,3.45198 -1.2412,0.50425 -1.3679,0.37578 -0.3047,-0.30907 1.5487,-0.99758 2.0441,-1.43277 2.72,-2.38938 0.8526,-1.20669 1.252,-2.35286 1.3615,-3.90685 0.1033,-1.46699 -0.1612,-2.78725 -0.7645,-3.81669 -0.4916,-0.83896 -1.7881,-2.2366 -2.3389,-2.52143 -0.5562,-0.2876 -2.0344,-0.2029 -2.7292,0.15638 -1.6389,0.84751 -0.8871,3.72159 1.0559,4.03691 0.6817,0.11062 1.4881,-0.29403 2.3312,-1.16989 0.8043,-0.83552 0.8883,-0.79283 1.2552,0.63754 0.2855,1.11305 0.2174,2.79442 -0.1554,3.83597 -0.8179,2.28518 -2.8883,3.57901 -5.7773,3.61035 -1.1695,0.0127 -1.4426,-0.0369 -2.2444,-0.40734 -0.5021,-0.23198 -1.0514,-0.56918 -1.2207,-0.74932 l -0.3077,-0.32754 0.5206,-0.24822 c 0.7071,-0.33722 0.9352,-0.85262 0.6023,-1.36078 -0.1379,-0.21047 -0.4156,-0.45778 -0.6171,-0.54958 -0.3038,-0.13843 -0.435,-0.11628 -0.7689,0.12974 -0.2214,0.16316 -0.4663,0.50762 -0.5441,0.76545 -0.078,0.25784 -0.2021,0.4688 -0.276,0.4688 -0.2713,0 -1.1815,-1.1319 -1.5276,-1.89974 -0.8879,-1.96955 -0.7944,-4.32393 0.2343,-5.9017 0.6863,-1.05259 2.0951,-2.40499 2.975,-2.85586 0.9184,-0.47058 0.5141,-0.52742 -0.7139,-0.10037 -2.6823,0.93281 -4.9945,3.48231 -5.7311,6.31914 -0.1729,0.66571 -0.2305,1.33639 -0.1873,2.1792 0.054,1.05495 0.1401,1.37101 0.644,2.36717 1.0531,2.08204 2.9206,3.62747 5.4252,4.4896 2.2348,0.76925 3.5595,0.91444 8.9897,0.98531 4.7987,0.0626 5.0311,0.0524 7.3065,-0.32031 2.4457,-0.40066 4.4191,-0.85876 6.4926,-1.50722 1.4394,-0.45015 4.3228,-1.85271 4.8281,-2.34849 0.3389,-0.33256 0.3464,-0.38025 0.1623,-1.03762 -0.1061,-0.37898 -0.4394,-1.06646 -0.7407,-1.52775 -0.6005,-0.91928 -1.1221,-1.39922 -5.1771,-4.76337 -1.5054,-1.24893 -4.0268,-3.44005 -5.6031,-4.86916 -4.2127,-3.81937 -4.6778,-4.21763 -6.3747,-5.45848 -3.9461,-2.88551 -7.6394,-4.55068 -12.398,-5.58975 -1.7031,-0.37188 -5.2134,-0.33868 -6.7151,0.0635 -2.9633,0.79362 -4.5162,2.29081 -4.7853,4.6136 -0.078,0.67132 -0.013,1.07266 0.3691,2.29324 0.8207,2.62027 0.7545,3.65267 -0.3117,4.86404 -0.798,0.90653 -1.5121,1.30134 -3.3881,1.87308 -3.3637,1.02514 -4.6233,2.21584 -5.2633,4.97524 -0.2081,0.89744 -0.2075,1.08511 0.01,2.03565 0.1299,0.57589 0.3582,1.31338 0.5075,1.63888 l 0.2714,0.5918 0.1052,-0.5918 c 0.4309,-2.42578 1.7386,-4.85794 3.5038,-6.51688 1.0613,-0.99748 1.8324,-1.50875 3.6487,-2.41934 1.6415,-0.823 1.6032,-0.78246 2.842,-3.00403 0.2848,-0.51075 1.0798,-1.51516 1.7667,-2.23203 1.8398,-1.92028 3.7851,-3.12169 6.3267,-3.90755 1.2235,-0.37829 1.4699,-0.40235 4.1125,-0.40159 2.7632,8.6e-4 2.835,0.009 4.2166,0.47061 0.7813,0.26114 1.9641,0.81308 2.6631,1.2427 1.4426,0.88659 3.7814,3.12953 4.6399,4.44974 0.5563,0.85548 1.0529,1.88783 0.9081,1.88783 -0.043,0 -0.6886,-0.57119 -1.4349,-1.26933 -1.6186,-1.51429 -2.1405,-1.88482 -3.8911,-2.7628 -1.8733,-0.93951 -3.0924,-1.27795 -5.2441,-1.45582 -2.0636,-0.17058 -2.9705,-0.10708 -4.5648,0.31961 -3.0396,0.8135 -5.6727,2.88076 -6.9696,5.4719 -0.3332,0.66562 -0.6057,1.35863 -0.6057,1.54003 0,0.49933 -0.4068,0.75629 -1.623,1.02537 -2.8993,0.64143 -5.284,2.5696 -6.6072,5.34231 -0.8293,1.73788 -1.1291,3.13605 -1.1262,5.25226 0.01,4.64871 1.9132,8.11834 5.8795,10.69887 1.2771,0.8309 3.975,1.59895 6.3619,1.81116 1.6805,0.1494 1.9607,0.28272 1.0745,0.51114 -0.3855,0.0994 -0.6704,0.23015 -0.633,0.29064 0.037,0.0605 0.4304,0.15258 0.8733,0.20464 0.4429,0.052 0.9108,0.13514 1.0398,0.18464 1.2616,0.48412 -2.7035,0.93678 -8.1987,0.93594 -2.3184,-2.8e-4 -2.5504,-0.0225 -2.2192,-0.21183 0.2034,-0.11629 0.6528,-0.2138 0.9986,-0.21669 0.3459,-0.003 0.6288,-0.0628 0.6288,-0.13309 0,-0.0703 -0.3162,-0.24496 -0.7027,-0.3881 -0.3866,-0.14315 -1.0916,-0.45382 -1.5668,-0.69039 l -0.864,-0.43013 -0.7635,0.46827 c -3.7149,2.27858 -7.5309,7.50424 -9.1836,12.57621 -1.0376,3.18423 -1.2842,5.59762 -0.9054,8.86125 0.4186,3.60653 0.6715,4.54728 1.9457,7.23872 2.6841,5.66955 7.7891,10.31301 14.5076,13.19593 4.9263,2.11387 11.3158,2.899 17.802,2.18745 z m -30.152,-14.81852 c -0.3028,-0.36485 -0.3561,-0.93653 -0.1066,-1.14356 0.2019,-0.16756 0.2976,-0.15346 0.6268,0.0924 0.5146,0.38416 0.7009,0.69969 0.5877,0.99492 -0.1112,0.28956 -0.8818,0.3287 -1.1079,0.0563 z m -1.9274,-2.81079 c -0.7709,-0.3709 -1.1639,-2.00831 -0.6982,-2.90887 0.2957,-0.57195 1.1818,-0.98531 1.6524,-0.77089 0.7711,0.35135 1.2384,1.73349 0.9492,2.80752 -0.2542,0.94402 -1.0225,1.29607 -1.9034,0.87224 z m 2.8697,-4.48552 c -0.3204,-0.32041 -0.291,-0.83686 0.074,-1.30104 0.366,-0.46528 0.7692,-0.49757 1.1729,-0.0939 0.3313,0.33132 0.3997,1.1686 0.1184,1.44991 -0.2533,0.25324 -1.0909,0.21952 -1.3654,-0.0549 z m -3.457,-2.73357 c -0.3986,-0.15998 -0.7702,-0.96107 -0.7702,-1.66059 0,-0.63915 0.6495,-1.93795 1.1249,-2.24943 0.2058,-0.13484 0.5814,-0.22271 0.8436,-0.19733 1.319,0.12767 1.3914,3.3741 0.09,4.04694 -0.4701,0.24311 -0.7953,0.25836 -1.2885,0.0604 z m 4.1048,-4.14935 c -0.1726,-0.32256 -0.08,-0.95983 0.1854,-1.27997 0.2421,-0.29176 0.9726,-0.22789 1.1483,0.10041 0.2069,0.38643 0.1937,1.09365 -0.024,1.3117 -0.3012,0.3012 -1.1218,0.21839 -1.3094,-0.13214 z m -2.0532,-3.77892 c -0.3636,-0.46225 -0.376,-0.63735 -0.093,-1.31494 0.2872,-0.68737 0.878,-1.25425 1.3071,-1.25425 0.4624,0 0.9942,0.58205 0.9942,1.08808 0,0.52123 -0.5115,1.52167 -0.8784,1.71804 -0.4975,0.26624 -1.0055,0.17576 -1.3301,-0.23693 z m 4.3094,-2.00698 c -0.2775,-0.27752 -0.2109,-0.64776 0.2055,-1.14266 0.86,-1.02196 1.9122,-0.12027 1.0858,0.93038 -0.3299,0.41941 -0.9776,0.5259 -1.2913,0.21228 z m 0.067,-3.79179 c -0.3506,-0.38741 -0.3031,-0.82117 0.1489,-1.35828 0.9592,-1.14003 2.2506,-0.76891 1.8238,0.52415 -0.3181,0.9641 -1.4298,1.43412 -1.9727,0.83413 z m 6.3504,-2.81601 c -0.4957,-0.0534 -0.9026,-0.17467 -0.937,-0.2793 -0.047,-0.14205 0.4139,-0.18442 1.9858,-0.18268 1.9022,0.002 2.6377,0.1218 2.3733,0.38619 -0.1453,0.14533 -2.3276,0.19366 -3.4221,0.0758 z m 17.0768,-7.37011 c -1.9701,-0.31867 -4.0383,-0.98076 -5.2765,-1.68915 -0.955,-0.54641 -2.516,-1.96543 -2.9153,-2.65009 l -0.2765,-0.47408 0.3505,0.10781 c 0.1927,0.0593 1.1999,0.5635 2.2382,1.12044 3.2861,1.76267 5.3717,2.55236 8.2308,3.11647 1.1221,0.22139 1.5862,0.3669 1.4016,0.43946 -0.2861,0.11246 -3.1025,0.13433 -3.7528,0.0291 z m 15.4609,-10.04281 c -0.592,-0.30462 -0.9271,-0.76355 -1.0394,-1.42314 -0.2888,-1.69697 1.3735,-1.44806 2.1339,0.31954 0.506,1.17616 0.013,1.67344 -1.0945,1.1036 z m 5.743,-2.18356 c -0.4893,-0.46226 -0.6757,-0.75263 -0.6757,-1.05248 0,-1.15777 1.4181,-0.71134 2.0266,0.63798 0.546,1.21085 -0.2497,1.45499 -1.3509,0.4145 z m -37.5964,-15.96125 c -0.6401,-0.64014 0.5138,-2.31933 1.3685,-1.99137 0.3056,0.11727 0.4467,0.78805 0.2545,1.20987 -0.2766,0.60695 -1.3032,1.10129 -1.623,0.7815 z m 24.4145,42.6921 c 0.4047,-0.12861 0.8558,-0.40901 1.0726,-0.66672 1.2424,-1.47645 -0.9827,-3.36934 -3.7666,-3.20426 l -0.7609,0.0451 0.6748,0.86759 c 0.6935,0.89172 1.12,1.98459 1.12,2.86979 0,0.48827 0.014,0.49996 0.4809,0.40658 0.2644,-0.0529 0.7951,-0.19602 1.1792,-0.31809 z m 9.5212,-36.48772 c -0.2019,-1.26234 -0.9139,-2.73342 -1.8791,-3.88248 -1.1022,-1.31206 -2.0681,-2.02151 -3.3315,-2.44701 -0.8393,-0.2827 -2.3633,-0.36326 -2.4588,-0.12998 -0.06,0.14715 7.5034,7.20543 7.6373,7.12706 0.07,-0.0408 0.084,-0.34125 0.032,-0.66759 z m 10.3558,40.06102 c -0.4886,-1.1694 -1.0689,-1.79012 -2.2494,-2.4063 l -1.1442,-0.59719 1.0259,-0.51927 c 1.2114,-0.61315 1.6551,-1.05521 2.2456,-2.23707 l 0.4376,-0.87583 0.4783,0.89742 c 0.6235,1.16976 1.1425,1.68354 2.2261,2.20387 0.4877,0.23418 0.8871,0.45906 0.8876,0.49975 6e-4,0.0407 -0.4686,0.32973 -1.0426,0.64231 -1.082,0.58929 -1.6167,1.16637 -2.1249,2.29334 -0.1525,0.33834 -0.3329,0.61517 -0.4009,0.61517 -0.068,0 -0.2205,-0.23229 -0.3391,-0.5162 z m -5.979,-7.23778 c -0.2385,-0.44963 -0.5487,-0.75989 -0.9984,-0.99842 -0.3588,-0.19034 -0.6523,-0.38804 -0.6523,-0.43933 0,-0.0513 0.2,-0.17613 0.4445,-0.2774 0.4948,-0.20496 1.2525,-0.9993 1.4018,-1.46951 0.053,-0.16809 0.1546,-0.30562 0.225,-0.30562 0.07,0 0.1717,0.13753 0.225,0.30562 0.1493,0.47021 0.907,1.26455 1.4018,1.46951 0.2445,0.10127 0.4445,0.2261 0.4445,0.2774 0,0.0513 -0.2935,0.24899 -0.6523,0.43933 -0.4497,0.23853 -0.7599,0.54879 -0.9984,0.99842 -0.1904,0.35878 -0.3796,0.65234 -0.4206,0.65234 -0.041,0 -0.2302,-0.29356 -0.4206,-0.65234 z m 6.8532,-3.64552 c -0.2981,-0.66105 -0.8976,-1.24389 -1.7391,-1.6908 -0.303,-0.16091 -0.5507,-0.32735 -0.5505,-0.36988 3e-4,-0.0425 0.3831,-0.27705 0.8508,-0.52117 0.6923,-0.3614 0.9442,-0.60326 1.3562,-1.30198 l 0.506,-0.85812 0.4557,0.84872 c 0.388,0.72268 0.5952,0.92466 1.3948,1.36016 l 0.9392,0.51145 -0.6911,0.33304 c -0.878,0.42319 -1.2941,0.81677 -1.728,1.6348 -0.1905,0.35908 -0.3863,0.65287 -0.4351,0.65287 -0.049,0 -0.2103,-0.26959 -0.3589,-0.59909 z m -65.4474,-3.35308 c -0.2161,-0.52185 -0.7897,-1.09445 -1.415,-1.41272 l -0.4357,-0.22178 0.6328,-0.32284 c 0.3481,-0.17757 0.7439,-0.52343 0.8796,-0.76857 0.5326,-0.96215 0.533,-0.96222 0.9678,-0.2203 0.2631,0.44907 0.6257,0.71841 1.0086,0.99474 0.1843,0.13297 0.6072,0.30979 0.6072,0.30979 l -0.5722,0.321 c -0.5099,0.28599 -0.8057,0.62141 -1.3294,1.50738 -0.1407,0.23796 -0.1756,0.21898 -0.3437,-0.1867 z m 3.3992,-4.65279 c -0.2751,-0.78906 -0.8918,-1.45409 -1.7293,-1.86486 -0.4399,-0.21572 -0.7998,-0.43156 -0.7998,-0.47964 0,-0.0481 0.2164,-0.16585 0.4809,-0.26172 0.7267,-0.26343 1.4884,-0.96072 1.8788,-1.71993 0.1925,-0.3742 0.4014,-0.68036 0.4643,-0.68036 0.063,0 0.2681,0.30789 0.456,0.68421 0.3793,0.75953 1.1288,1.45053 1.8613,1.71608 0.2645,0.0959 0.4809,0.21614 0.4809,0.26725 0,0.0511 -0.3313,0.24809 -0.7362,0.43773 -0.8364,0.39175 -1.1195,0.67146 -1.6867,1.66614 -0.2204,0.38652 -0.4246,0.70277 -0.4539,0.70277 -0.029,0 -0.1267,-0.21045 -0.2163,-0.46767 z"
         id="path72"
         clip-path="none" />
      <path
         id="lpe_path-effect72"
         style="display:inline;fill:#ffffff;fill-opacity:1;stroke-width:0.110963"
         class="powerclip"
         d="M -4.8267803,-4.8201057 H 1818.159 V 508.82047 H -4.8267803 Z M 1340.2497,258.58125 h -6e-4 c 6.9662,2.84922 15.1682,2.92923 22.536,1.39279 5.791,-1.20761 11.8405,-3.68713 15.799,-8.08306 2.8074,-3.11763 4.4254,-7.54818 4.5312,-11.74223 0.094,-3.73244 -1.2258,-7.67917 -3.5006,-10.63982 -2.2791,-2.96633 -5.9652,-4.64621 -9.397,-6.13498 -0.3253,-0.14112 -1.0332,-0.25312 -1.0332,-0.25312 v -1.75225 -1.75225 l -0.6932,-1.01504 c -1.0221,-1.49702 -1.0243,-1.44445 0.074,-1.74176 0.5211,-0.14105 1.6811,-0.6103 2.5779,-1.04279 6.1371,-2.95979 11.062,-8.79256 12.2473,-14.50507 0.3367,-1.61957 0.3411,-4.16889 0.01,-5.40021 -0.5513,-2.05048 -0.9093,-2.51227 -4.7172,-6.08535 l -1.0068,-0.94465 -0.059,-1.34227 c -0.1428,-3.26434 -1.01,-5.33697 -3.2229,-7.70257 -2.1197,-2.26596 -5.1763,-3.74751 -7.7246,-3.74451 -0.4069,5e-4 -1.2346,0.1325 -1.8394,0.29333 -0.6048,0.16083 -1.2145,0.29242 -1.3549,0.29242 -0.1405,0 -0.9106,-0.43944 -1.7115,-0.97653 -2.6139,-1.75298 -6.2152,-3.31113 -9.7855,-4.23389 -1.8529,-0.47869 -1.9259,-0.48569 -5.2081,-0.48569 -3.8414,0 -4.6271,0.15004 -7.0579,1.34765 -2.3204,1.1432 -3.9651,3.0642 -4.5516,5.31629 -0.3221,1.23661 -0.2825,2.18648 0.1611,3.85859 0.2133,0.80382 0.4211,1.68196 0.4611,1.95142 0.1111,0.74124 -0.3639,1.14572 -1.8773,1.59893 -0.6956,0.20829 -1.8306,0.64872 -2.5223,0.97874 -2.1996,1.04951 -3.7656,2.9214 -4.6746,5.58752 -0.2192,0.64418 -0.2772,1.24531 -0.2762,2.88504 0,1.80387 0.044,2.17916 0.3356,2.90661 0.45,1.12429 1.2777,2.37658 2.3006,3.48092 0.8191,0.88434 0.8531,0.95423 1.0706,2.20056 0.4426,2.53546 1.5222,5.04688 2.8227,6.56621 0.2709,0.31654 0.4926,0.66914 0.4926,0.78356 0,0.22147 -0.6757,0.47882 -3.6248,1.38054 -2.8408,0.86861 -3.7979,1.45294 -4.2835,2.61524 -0.4415,1.05669 -0.2262,2.24463 0.6043,3.33338 0.2091,0.27418 0.3573,0.51873 0.3283,0.54353 -0.029,0.0247 -0.5846,0.36434 -1.2356,0.75465 -2.3599,1.41494 -3.59,2.56196 -4.2078,3.92383 -0.544,1.19913 -0.3349,2.25982 0.6644,3.37137 l 0.6659,0.74062 c 0,0 -1.0127,0.25845 -1.1997,0.67803 -2.4489,5.49488 0.8243,12.45159 3.9017,17.62081 3.4275,5.75752 8.9797,10.63887 15.1815,13.17546 z m 19.0967,-1.58049 c 5.7285,-0.62844 11.4862,-2.9341 14.6755,-5.87683 2.6334,-2.42975 4.8192,-6.82303 5.3139,-10.6802 0.5007,-3.90435 -1.6029,-8.37127 -5.229,-11.1036 -1.4004,-1.05524 -2.724,-1.74855 -4.2559,-2.22927 -0.9935,-0.31177 -1.3883,-0.34815 -3.7727,-0.34767 -2.6439,5.7e-4 -2.6737,0.004 -4.1253,0.50429 -3.6159,1.24585 -6.1218,3.98031 -6.816,7.43784 -0.2874,1.43106 -0.2907,3.8664 -0.01,5.2215 0.6342,3.03131 3.0648,5.79933 6.0004,6.83359 1.4838,0.52275 3.7958,0.64106 5.3041,0.27143 2.7256,-0.66794 4.7487,-2.85883 5.2179,-5.65073 0.4727,-2.81199 -1.0291,-5.96985 -3.3645,-7.07466 -1.9451,-0.92017 -3.5688,-0.82747 -4.7666,0.27215 -1.6282,1.49472 -1.8116,3.66305 -0.4314,5.10193 1.0008,1.04334 2.0373,1.22007 2.6795,0.45687 0.2107,-0.25036 0.383,-0.5559 0.383,-0.67898 0,-0.12307 -0.2996,-0.51495 -0.6658,-0.87083 -0.7439,-0.72299 -0.8508,-1.21278 -0.3698,-1.69376 0.8675,-0.86755 3.1188,0.46889 3.5629,2.11503 0.6832,2.53286 -1.5264,4.82413 -4.4988,4.66515 -1.3469,-0.072 -2.2467,-0.50422 -3.3642,-1.6158 -2.1182,-2.10694 -2.5902,-5.10447 -1.2315,-7.82035 1.0833,-2.16532 3.3418,-3.40631 6.1974,-3.40525 3.353,0.001 6.4014,1.74378 8.3849,4.79297 1.5432,2.37257 1.5633,5.74762 0.053,8.88805 -1.0348,2.15155 -3.6541,4.39423 -6.4935,5.55999 -2.1416,0.87924 -3.3085,1.07518 -6.3828,1.07176 -4.158,-0.005 -7.4528,-0.62028 -11.2602,-2.10405 -3.0904,-1.20437 -5.1505,-2.41449 -7.4281,-4.36321 -0.6766,-0.57889 -1.4755,-1.23856 -1.7754,-1.46594 -1.525,-1.15617 -2.0282,-1.88749 -1.6782,-2.43903 0.092,-0.14552 0.2195,-0.11129 0.5494,0.14795 0.6244,0.49074 1.7762,0.4513 2.9986,-0.10268 1.2468,-0.565 2.5945,-2.02599 3.3795,-3.66353 l 0.5673,-1.18354 0.098,0.72016 c 0.054,0.39608 0.1052,1.71882 0.114,2.93941 0.019,2.55777 0.2348,3.81079 0.7982,4.62373 0.876,1.26409 1.8341,1.57863 3.5023,1.14983 1.1002,-0.2828 1.5221,-0.51882 1.8663,-1.04417 0.2257,-0.3445 0.2251,-0.41748 -0.01,-1.02938 -0.2696,-0.70595 -0.9159,-1.35043 -1.5018,-1.49748 -0.1986,-0.0498 -0.6595,0.008 -1.0243,0.12772 -0.3647,0.12008 -0.6632,0.1713 -0.6632,0.11382 0,-0.0575 0.1328,-0.4903 0.295,-0.96181 0.7923,-2.3029 0.9563,-5.66919 0.376,-7.71793 -0.4466,-1.57679 -1.5876,-2.55674 -2.9856,-2.56415 -0.8277,-0.004 -2.4423,0.50431 -3.554,1.11978 -2.2163,1.22697 -5.4222,4.01685 -6.0584,5.27229 -0.7522,1.48442 -1.048,0.5523 -0.502,-1.58221 0.545,-2.13092 1.843,-4.33193 3.1994,-5.42515 0.7504,-0.60477 2.7099,-1.54021 3.8235,-1.82532 0.5073,-0.12987 1.5218,-0.22575 2.3886,-0.22575 1.7349,0 2.9595,0.30971 4.1094,1.0393 0.5683,0.36058 0.7001,0.40109 0.6187,0.19025 -0.057,-0.14733 -0.1813,-0.75631 -0.2766,-1.35329 l -0.1732,-1.08542 -2.3688,0.12189 c -3.7602,0.19348 -4.0072,0.14262 -4.773,-0.98254 -0.2995,-0.44001 -0.3329,-0.66704 -0.3329,-2.26132 0,-1.27651 0.086,-2.13906 0.3079,-3.08379 0.5126,-2.18342 0.6112,-1.94978 0.8338,1.97629 0.099,1.74311 0.1742,2.23146 0.3758,2.43301 0.2012,0.20123 0.6106,0.26495 2.0271,0.31545 2.3196,0.0827 4.7091,-0.17367 6.7844,-0.72789 0.9206,-0.24587 1.7399,-0.42502 1.8207,-0.39811 0.081,0.0269 -0.2565,0.60722 -0.7492,1.28959 -1.237,1.71292 -1.1894,2.51647 0.1386,2.33836 0.9644,-0.12937 1.9392,-0.69569 2.9824,-1.73273 0.7858,-0.78114 1.0318,-1.1387 1.2206,-1.77475 0.4837,-1.62858 0.2199,-2.76256 -0.8394,-3.60893 -0.5059,-0.40422 -0.6807,-0.45181 -1.8674,-0.50855 -2.4726,-0.11822 -6.5404,0.45956 -8.1034,1.15098 -0.3779,0.16714 -0.7229,0.2681 -0.7666,0.22435 -0.084,-0.0838 0.085,-0.88839 0.4958,-2.36523 0.1359,-0.48823 0.3162,-1.16945 0.4006,-1.51381 0.209,-0.8522 0.4125,-0.65279 0.4125,0.40418 0,0.47864 0.054,0.90343 0.1193,0.94398 0.066,0.0406 0.8146,-0.18149 1.6644,-0.49344 0.8499,-0.31195 1.928,-0.64552 2.3959,-0.74127 0.4679,-0.0958 0.8507,-0.23079 0.8507,-0.30007 0,-0.0693 -0.6491,-0.37473 -1.4425,-0.67876 -2.5691,-0.98448 -4.4184,-2.03315 -2.6781,-1.51857 0.4796,0.1418 1.9511,0.18293 5.7709,0.16129 4.6028,-0.0261 5.2762,-0.0612 6.5838,-0.34319 5.443,-1.1739 10.6719,-4.10912 13.9109,-7.80874 1.8651,-2.13043 2.5308,-3.25083 3.2938,-5.54342 0.1843,-0.55382 0.3019,-1.0401 0.2614,-1.08062 -0.041,-0.0405 -0.7298,0.25559 -1.5317,0.65801 -2.481,1.245 -5.2408,2.09678 -8.7215,2.69185 -1.4725,0.25174 -2.4056,0.29353 -6.5533,0.29353 -7.7412,0 -11.2799,-0.6317 -14.3454,-2.56077 -1.2148,-0.76446 -1.8289,-0.97559 -2.8609,-0.98356 -0.952,-0.007 -1.5246,0.16911 -2.0031,0.61733 -0.2982,0.27936 -0.338,0.28484 -0.4248,0.0585 -0.1924,-0.50134 0.3625,-1.52799 1.0843,-2.00611 0.3751,-0.24841 0.7997,-0.45166 0.9437,-0.45166 0.4813,0 0.4469,-0.28506 -0.1568,-1.30132 -2.1163,-3.56217 -2.1489,-7.42524 -0.089,-10.5239 1.178,-1.77198 2.9308,-3.11522 4.9635,-3.80383 1.1024,-0.37345 4.5071,-0.36926 5.9053,0.007 2.184,0.58818 4.7758,2.29906 6.0606,4.00079 2.1231,2.81203 2.5225,6.39823 1.0551,9.4729 -0.7689,1.61125 -2.006,2.77076 -3.6828,3.45198 -1.2412,0.50425 -1.3679,0.37578 -0.3047,-0.30907 1.5487,-0.99758 2.0441,-1.43277 2.72,-2.38938 0.8526,-1.20669 1.252,-2.35286 1.3615,-3.90685 0.1033,-1.46699 -0.1612,-2.78725 -0.7645,-3.81669 -0.4916,-0.83896 -1.7881,-2.2366 -2.3389,-2.52143 -0.5562,-0.2876 -2.0344,-0.2029 -2.7292,0.15638 -1.6389,0.84751 -0.8871,3.72159 1.0559,4.03691 0.6817,0.11062 1.4881,-0.29403 2.3312,-1.16989 0.8043,-0.83552 0.8883,-0.79283 1.2552,0.63754 0.2855,1.11305 0.2174,2.79442 -0.1554,3.83597 -0.8179,2.28518 -2.8883,3.57901 -5.7773,3.61035 -1.1695,0.0127 -1.4426,-0.0369 -2.2444,-0.40734 -0.5021,-0.23198 -1.0514,-0.56918 -1.2207,-0.74932 l -0.3077,-0.32754 0.5206,-0.24822 c 0.7071,-0.33722 0.9352,-0.85262 0.6023,-1.36078 -0.1379,-0.21047 -0.4156,-0.45778 -0.6171,-0.54958 -0.3038,-0.13843 -0.435,-0.11628 -0.7689,0.12974 -0.2214,0.16316 -0.4663,0.50762 -0.5441,0.76545 -0.078,0.25784 -0.2021,0.4688 -0.276,0.4688 -0.2713,0 -1.1815,-1.1319 -1.5276,-1.89974 -0.8879,-1.96955 -0.7944,-4.32393 0.2343,-5.9017 0.6863,-1.05259 2.0951,-2.40499 2.975,-2.85586 0.9184,-0.47058 0.5141,-0.52742 -0.7139,-0.10037 -2.6823,0.93281 -4.9945,3.48231 -5.7311,6.31914 -0.1729,0.66571 -0.2305,1.33639 -0.1873,2.1792 0.054,1.05495 0.1401,1.37101 0.644,2.36717 1.0531,2.08204 2.9206,3.62747 5.4252,4.4896 2.2348,0.76925 3.5595,0.91444 8.9897,0.98531 4.7987,0.0626 5.0311,0.0524 7.3065,-0.32031 2.4457,-0.40066 4.4191,-0.85876 6.4926,-1.50722 1.4394,-0.45015 4.3228,-1.85271 4.8281,-2.34849 0.3389,-0.33256 0.3464,-0.38025 0.1623,-1.03762 -0.1061,-0.37898 -0.4394,-1.06646 -0.7407,-1.52775 -0.6005,-0.91928 -1.1221,-1.39922 -5.1771,-4.76337 -1.5054,-1.24893 -4.0268,-3.44005 -5.6031,-4.86916 -4.2127,-3.81937 -4.6778,-4.21763 -6.3747,-5.45848 -3.9461,-2.88551 -7.6394,-4.55068 -12.398,-5.58975 -1.7031,-0.37188 -5.2134,-0.33868 -6.7151,0.0635 -2.9633,0.79362 -4.5162,2.29081 -4.7853,4.6136 -0.078,0.67132 -0.013,1.07266 0.3691,2.29324 0.8207,2.62027 0.7545,3.65267 -0.3117,4.86404 -0.798,0.90653 -1.5121,1.30134 -3.3881,1.87308 -3.3637,1.02514 -4.6233,2.21584 -5.2633,4.97524 -0.2081,0.89744 -0.2075,1.08511 0.01,2.03565 0.1299,0.57589 0.3582,1.31338 0.5075,1.63888 l 0.2714,0.5918 0.1052,-0.5918 c 0.4309,-2.42578 1.7386,-4.85794 3.5038,-6.51688 1.0613,-0.99748 1.8324,-1.50875 3.6487,-2.41934 1.6415,-0.823 1.6032,-0.78246 2.842,-3.00403 0.2848,-0.51075 1.0798,-1.51516 1.7667,-2.23203 1.8398,-1.92028 3.7851,-3.12169 6.3267,-3.90755 1.2235,-0.37829 1.4699,-0.40235 4.1125,-0.40159 2.7632,8.6e-4 2.835,0.009 4.2166,0.47061 0.7813,0.26114 1.9641,0.81308 2.6631,1.2427 1.4426,0.88659 3.7814,3.12953 4.6399,4.44974 0.5563,0.85548 1.0529,1.88783 0.9081,1.88783 -0.043,0 -0.6886,-0.57119 -1.4349,-1.26933 -1.6186,-1.51429 -2.1405,-1.88482 -3.8911,-2.7628 -1.8733,-0.93951 -3.0924,-1.27795 -5.2441,-1.45582 -2.0636,-0.17058 -2.9705,-0.10708 -4.5648,0.31961 -3.0396,0.8135 -5.6727,2.88076 -6.9696,5.4719 -0.3332,0.66562 -0.6057,1.35863 -0.6057,1.54003 0,0.49933 -0.4068,0.75629 -1.623,1.02537 -2.8993,0.64143 -5.284,2.5696 -6.6072,5.34231 -0.8293,1.73788 -1.1291,3.13605 -1.1262,5.25226 0.01,4.64871 1.9132,8.11834 5.8795,10.69887 1.2771,0.8309 3.975,1.59895 6.3619,1.81116 1.6805,0.1494 1.9607,0.28272 1.0745,0.51114 -0.3855,0.0994 -0.6704,0.23015 -0.633,0.29064 0.037,0.0605 0.4304,0.15258 0.8733,0.20464 0.4429,0.052 0.9108,0.13514 1.0398,0.18464 1.2616,0.48412 -2.7035,0.93678 -8.1987,0.93594 -2.3184,-2.8e-4 -2.5504,-0.0225 -2.2192,-0.21183 0.2034,-0.11629 0.6528,-0.2138 0.9986,-0.21669 0.3459,-0.003 0.6288,-0.0628 0.6288,-0.13309 0,-0.0703 -0.3162,-0.24496 -0.7027,-0.3881 -0.3866,-0.14315 -1.0916,-0.45382 -1.5668,-0.69039 l -0.864,-0.43013 -0.7635,0.46827 c -3.7149,2.27858 -7.5309,7.50424 -9.1836,12.57621 -1.0376,3.18423 -1.2842,5.59762 -0.9054,8.86125 0.4186,3.60653 0.6715,4.54728 1.9457,7.23872 2.6841,5.66955 7.7891,10.31301 14.5076,13.19593 4.9263,2.11387 11.3158,2.899 17.802,2.18745 z m -30.152,-14.81852 v 6e-5 c 0.2261,0.2724 0.9967,0.23326 1.1079,-0.0563 0.1132,-0.29523 -0.073,-0.61076 -0.5877,-0.99492 -0.3292,-0.24586 -0.4249,-0.25996 -0.6268,-0.0924 -0.2495,0.20703 -0.1962,0.77871 0.1066,1.14356 z m -1.9274,-2.81079 c 0.8809,0.42383 1.6492,0.0718 1.9034,-0.87224 0.2892,-1.07403 -0.1781,-2.45617 -0.9492,-2.80752 -0.4706,-0.21442 -1.3567,0.19894 -1.6524,0.77089 -0.4657,0.90056 -0.073,2.53797 0.6982,2.90887 z m 2.8697,-4.48552 -10e-5,7e-5 c 0.2745,0.27442 1.1121,0.30814 1.3654,0.0549 0.2813,-0.28131 0.2129,-1.11859 -0.1184,-1.44991 -0.4037,-0.40367 -0.8069,-0.37138 -1.1729,0.0939 -0.365,0.46418 -0.3944,0.98063 -0.074,1.30104 z m -3.457,-2.73357 -2e-4,-10e-6 c 0.4932,0.19796 0.8184,0.18271 1.2885,-0.0604 1.3014,-0.67284 1.229,-3.91927 -0.09,-4.04694 -0.2622,-0.0254 -0.6378,0.0625 -0.8436,0.19733 -0.4754,0.31148 -1.1249,1.61028 -1.1249,2.24943 0,0.69952 0.3716,1.50061 0.7702,1.66059 z m 4.1048,-4.14935 h 3e-4 c 0.1876,0.35053 1.0082,0.43334 1.3094,0.13214 0.2177,-0.21805 0.2309,-0.92527 0.024,-1.3117 -0.1757,-0.3283 -0.9062,-0.39217 -1.1483,-0.10041 -0.2654,0.32014 -0.358,0.95741 -0.1854,1.27997 z m -2.0532,-3.77892 h -2e-4 c 0.3246,0.41269 0.8326,0.50317 1.3301,0.23693 0.3669,-0.19637 0.8784,-1.19681 0.8784,-1.71804 0,-0.50603 -0.5318,-1.08808 -0.9942,-1.08808 -0.4291,0 -1.0199,0.56688 -1.3071,1.25425 -0.283,0.67759 -0.2706,0.85269 0.093,1.31494 z m 4.3094,-2.00698 c 0.3137,0.31362 0.9614,0.20713 1.2913,-0.21228 0.8264,-1.05065 -0.2258,-1.95234 -1.0858,-0.93038 -0.4164,0.4949 -0.483,0.86514 -0.2055,1.14266 z m 0.067,-3.79179 c 0.5429,0.59999 1.6546,0.12997 1.9727,-0.83413 0.4268,-1.29306 -0.8646,-1.66418 -1.8238,-0.52415 -0.452,0.53711 -0.4995,0.97087 -0.1489,1.35828 z m 6.3504,-2.81601 v 1e-5 c 1.0945,0.11786 3.2768,0.0695 3.4221,-0.0758 0.2644,-0.26439 -0.4711,-0.38419 -2.3733,-0.38619 -1.5719,-0.002 -2.0328,0.0406 -1.9858,0.18268 0.034,0.10463 0.4413,0.2259 0.937,0.2793 z m 17.0768,-7.37011 v -4e-5 c 0.6503,0.10523 3.4667,0.0834 3.7528,-0.0291 0.1846,-0.0726 -0.2795,-0.21807 -1.4016,-0.43946 -2.8591,-0.56411 -4.9447,-1.3538 -8.2308,-3.11647 -1.0383,-0.55694 -2.0455,-1.06114 -2.2382,-1.12044 l -0.3505,-0.10781 0.2765,0.47408 c 0.3993,0.68466 1.9603,2.10368 2.9153,2.65009 1.2382,0.70839 3.3064,1.37048 5.2765,1.68915 z m 15.4609,-10.04281 c 1.1075,0.56984 1.6005,0.0726 1.0945,-1.1036 -0.7604,-1.7676 -2.4227,-2.01651 -2.1339,-0.31954 0.1123,0.65959 0.4474,1.11852 1.0394,1.42314 z m 5.743,-2.18356 c 1.1012,1.04049 1.8969,0.79635 1.3509,-0.4145 -0.6085,-1.34932 -2.0266,-1.79575 -2.0266,-0.63798 0,0.29985 0.1864,0.59022 0.6757,1.05248 z m -37.5964,-15.96125 c 0.3198,0.31979 1.3464,-0.17455 1.623,-0.7815 0.1922,-0.42182 0.051,-1.0926 -0.2545,-1.20987 -0.8547,-0.32796 -2.0086,1.35123 -1.3685,1.99137 z m 24.4145,42.6921 c 0.4047,-0.12861 0.8558,-0.40901 1.0726,-0.66672 1.2424,-1.47645 -0.9827,-3.36934 -3.7666,-3.20426 l -0.7609,0.0451 0.6748,0.86759 c 0.6935,0.89172 1.12,1.98459 1.12,2.86979 0,0.48827 0.014,0.49996 0.4809,0.40658 0.2644,-0.0529 0.7951,-0.19602 1.1792,-0.31809 z m 9.5212,-36.48772 c -0.2019,-1.26234 -0.9139,-2.73342 -1.8791,-3.88248 -1.1022,-1.31206 -2.0681,-2.02151 -3.3315,-2.44701 -0.8393,-0.2827 -2.3633,-0.36326 -2.4588,-0.12998 -0.06,0.14715 7.5034,7.20543 7.6373,7.12706 0.07,-0.0408 0.084,-0.34125 0.032,-0.66759 z m 10.3558,40.06102 c 0.1186,0.28391 0.2711,0.5162 0.3391,0.5162 0.068,0 0.2484,-0.27683 0.4009,-0.61517 0.5082,-1.12697 1.0429,-1.70405 2.1249,-2.29334 0.574,-0.31258 1.0432,-0.60161 1.0426,-0.64231 -5e-4,-0.0407 -0.3999,-0.26557 -0.8876,-0.49975 -1.0836,-0.52033 -1.6026,-1.03411 -2.2261,-2.20387 l -0.4783,-0.89742 -0.4376,0.87583 c -0.5905,1.18186 -1.0342,1.62392 -2.2456,2.23707 l -1.0259,0.51927 1.1442,0.59719 c 1.1805,0.61618 1.7608,1.2369 2.2494,2.4063 z m -5.979,-7.23778 c 0.1904,0.35878 0.3796,0.65234 0.4206,0.65234 0.041,0 0.2302,-0.29356 0.4206,-0.65234 0.2385,-0.44963 0.5487,-0.75989 0.9984,-0.99842 0.3588,-0.19034 0.6523,-0.38803 0.6523,-0.43933 0,-0.0513 -0.2,-0.17613 -0.4445,-0.2774 -0.4948,-0.20496 -1.2525,-0.9993 -1.4018,-1.46951 -0.053,-0.16809 -0.155,-0.30562 -0.225,-0.30562 -0.07,0 -0.172,0.13753 -0.225,0.30562 -0.1493,0.47021 -0.907,1.26455 -1.4018,1.46951 -0.2445,0.10127 -0.4445,0.2261 -0.4445,0.2774 0,0.0513 0.2935,0.24899 0.6523,0.43933 0.4497,0.23853 0.7599,0.54879 0.9984,0.99842 z m 6.8532,-3.64552 c 0.1486,0.3295 0.3099,0.59909 0.3589,0.59909 0.049,0 0.2446,-0.29379 0.4351,-0.65287 0.4339,-0.81803 0.85,-1.21161 1.728,-1.6348 l 0.6911,-0.33304 -0.9392,-0.51145 c -0.7996,-0.4355 -1.0068,-0.63748 -1.3948,-1.36016 l -0.4557,-0.84872 -0.506,0.85812 c -0.412,0.69872 -0.6639,0.94058 -1.3562,1.30198 -0.4677,0.24412 -0.8505,0.47867 -0.8508,0.52117 -2e-4,0.0425 0.2475,0.20897 0.5505,0.36988 0.8415,0.44691 1.441,1.02975 1.7391,1.6908 z m -65.4474,-3.35308 c 0.1681,0.40568 0.203,0.42466 0.3437,0.1867 0.5237,-0.88597 0.8195,-1.22139 1.3294,-1.50738 l 0.5722,-0.321 c 0,0 -0.4229,-0.17682 -0.6072,-0.30979 -0.3829,-0.27633 -0.7455,-0.54567 -1.0086,-0.99474 -0.4348,-0.74192 -0.4352,-0.74185 -0.9678,0.2203 -0.1357,0.24514 -0.5315,0.591 -0.8796,0.76857 l -0.6328,0.32284 0.4357,0.22178 c 0.6253,0.31827 1.1989,0.89087 1.415,1.41272 z m 3.3992,-4.65279 c 0.09,0.25722 0.1873,0.46767 0.2163,0.46767 0.029,0 0.2335,-0.31625 0.4539,-0.70277 0.5672,-0.99468 0.8503,-1.27439 1.6867,-1.66614 0.4049,-0.18964 0.7362,-0.38663 0.7362,-0.43773 0,-0.0511 -0.2164,-0.17135 -0.4809,-0.26725 -0.7325,-0.26555 -1.482,-0.95655 -1.8613,-1.71608 -0.1879,-0.37632 -0.393,-0.68421 -0.456,-0.68421 -0.063,0 -0.2718,0.30616 -0.4643,0.68036 -0.3904,0.75921 -1.1521,1.4565 -1.8788,1.71993 -0.2645,0.0959 -0.4809,0.21362 -0.4809,0.26172 0,0.0481 0.3599,0.26392 0.7998,0.47964 0.8375,0.41077 1.4542,1.0758 1.7293,1.86486 z" />
    </clipPath>
    <linearGradient
       inkscape:collect="always"
       xlink:href="#linearGradient74"
       id="linearGradient75"
       x1="264.53284"
       y1="-388.46716"
       x2="1551.4672"
       y2="898.46716"
       gradientUnits="userSpaceOnUse" />
  </defs>
  <rect
     style="display:none;fill:url(#linearGradient75);fill-opacity:1;stroke:none;stroke-width:57.8796;stroke-dasharray:34.7278"
     id="rect74"
     width="1820"
     height="518"
     x="-2"
     y="-4" />
  <g
     id="g1"
     style="fill:#000000;fill-opacity:1">
    <path
       id="path1"
       style="fill:#000000;fill-opacity:1"
       d="m 1547.0684,0.2265625 c -9.8508,0.3586975 -19.6076,3.1116731 -28.2012,8.2207031 -9.577,5.6936194 -18.1093,14.9209384 -23.1563,25.0429684 -7.9575,15.959217 -8.2425,35.498032 -0.7539,51.607422 8.981,19.319884 28.4607,32.918994 49.4707,34.535154 4.8505,0.37308 4.6596,0.37382 9.2325,0.0195 15.2809,-1.18394 28.0774,-7.22881 38.7597,-18.30859 18.626,-19.319214 22.1,-48.853076 8.4492,-71.814453 -5.6936,-9.57696 -14.919,-18.109221 -25.041,-23.1562501 -8.9642,-4.4697 -18.909,-6.5051819 -28.7597,-6.1464844 z m -440.5528,0.12695312 c -22.5455,-1.95803002 -43.2857,12.83340238 -48.8769,34.85742238 -4.063,16.004746 0.5036,32.601303 12.1855,44.283203 7.7094,7.7094 17.8348,12.484683 28.5645,13.470703 8.1355,0.74763 17.6523,-0.986025 24.6328,-4.484375 14.8684,-7.45146 24.5195,-21.57439 25.9433,-37.96875 2.2128,-25.478137 -16.7894,-47.9296934 -42.4492,-50.15820338 z M 291.83789,1.4726562 c -11.69758,0.00966 -23.3616,3.5467084 -33.81836,10.6113278 -4.96126,3.35185 -12.05793,10.474383 -15.32031,15.376954 -11.43935,17.190547 -13.66337,37.388149 -6.19531,56.25 1.56419,3.95063 3.31918,7.194848 6.2832,11.611328 3.30402,4.923084 10.42675,12.021634 15.3457,15.294924 8.98571,5.97948 18.98418,9.54797 29.02735,10.35937 13.61249,1.09976 27.13655,-2.5284 38.80859,-10.41406 4.96127,-3.35185 12.05793,-10.47439 15.32031,-15.376953 14.09449,-21.18059 14.0726,-46.924374 -0.0566,-67.837891 C 337.88057,22.386386 330.75803,15.289724 325.85547,12.027344 315.26517,4.980099 303.53547,1.463 291.83789,1.4726562 Z m -2.21484,21.1171878 c 0.20835,-0.23664 5.67438,0.986617 6.10937,1.367187 0.13059,0.11425 -0.28322,2.360165 -0.91797,4.990235 -0.63476,2.63006 -1.15429,4.961933 -1.15429,5.183593 0,0.36057 4.90114,1.768403 5.14062,1.476563 0.0528,-0.06432 0.66372,-2.417896 1.35742,-5.228516 1.17753,-4.77092 1.30744,-5.097991 1.96485,-4.925781 0.38728,0.10145 1.79192,0.442339 3.12109,0.755859 1.34568,0.31742 2.41602,0.747293 2.41602,0.970704 0,0.220659 -0.53338,2.615002 -1.18555,5.320312 -0.65218,2.7053 -1.06403,5.022058 -0.91602,5.148438 0.14801,0.126369 1.08824,0.55933 2.08985,0.96289 8.15828,3.28709 11.76296,8.1146 10.6875,14.3125 -0.75332,4.34141 -2.74015,7.187971 -6.07422,8.707031 l -1.89844,0.865235 2.22656,1.664062 c 1.75593,1.31152 2.45777,2.109461 3.31641,3.775391 0.96228,1.86699 1.08789,2.420677 1.08789,4.773437 0,4.6443 -2.0627,9.480131 -5.23828,12.275391 -3.44687,3.03405 -9.58064,3.889146 -17.76953,2.478516 L 292.8125,87.259766 291.50195,92.625 c -1.17086,4.78853 -1.386,5.361084 -1.99414,5.333984 -0.68461,-0.03048 -5.58598,-1.263725 -5.77539,-1.453125 -0.0838,-0.08384 1.91424,-8.416926 2.45117,-10.222656 0.12841,-0.43183 -0.37386,-0.674047 -2.51171,-1.210937 l -2.67383,-0.671875 -0.31836,1.210937 c -0.17566,0.66616 -0.79139,3.103999 -1.36719,5.417969 l -1.04688,4.208984 -2.99609,-0.763672 c -1.64836,-0.41941 -3.09057,-0.856193 -3.20508,-0.970703 -0.11451,-0.11451 0.36592,-2.538599 1.06836,-5.386718 0.71535,-2.90047 1.14954,-5.29473 0.98633,-5.44336 -0.16026,-0.14595 -2.96728,-0.921636 -6.23633,-1.722656 -3.26904,-0.80103 -6.08345,-1.543831 -6.25586,-1.650391 -0.24558,-0.15177 2.36887,-6.737434 2.88672,-7.271484 0.0677,-0.06978 1.09699,0.117065 2.28711,0.416015 3.06835,0.77074 4.39997,0.717162 5,-0.205078 0.50666,-0.77872 7.85938,-29.713054 7.85938,-30.927734 0,-2.04385 -1.46561,-3.124659 -5.43164,-4.005859 -1.06253,-0.23608 -2.00104,-0.542228 -2.08594,-0.679688 -0.25366,-0.41043 1.3111,-6.373164 1.71289,-6.527344 0.20389,-0.07824 3.08762,0.539167 6.4082,1.373047 3.32057,0.83389 6.17455,1.517578 6.34375,1.517578 0.16919,0 0.8707,-2.288154 1.5586,-5.083984 0.6879,-2.79583 1.34422,-5.188286 1.45703,-5.316406 z m 791.03715,0.732422 h 22 22 v 5.333984 5.333984 h -8 -8 v 3.615235 3.617187 l 3.4179,0.222656 c 12.7827,0.836261 21.763,4.245839 19.0606,7.236329 -2.0362,2.25326 -10.0459,4.319352 -18.8086,4.851562 l -3.6699,0.222656 V 65.207031 76.65625 h -5.8301 -5.8281 l -0.088,-11.416016 -0.088,-11.417968 -1.6679,-0.08008 c -9.8126,-0.48018 -18.797,-2.648517 -20.9766,-5.060547 -0.8564,-0.94765 -0.4167,-2.233829 1.1172,-3.267579 2.4731,-1.666577 10.522,-3.453103 18.0273,-4.001953 l 3.5,-0.255859 v -3.5 -3.5 l -8.084,-0.08984 -8.0839,-0.08789 v -5.328125 z m 468.5156,1.167968 c 0.1272,0 5.0713,8.021975 10.9863,17.828125 9.3701,15.534347 10.6831,17.876456 10.209,18.197266 -0.2993,0.20251 -5.1609,3.093035 -10.8047,6.421875 -5.6437,3.32884 -10.3687,6.038837 -10.5,6.023438 -0.1312,-0.01541 -5.0573,-2.893065 -10.9453,-6.396485 l -10.7051,-6.371094 10.7637,-17.851562 c 5.9201,-9.81866 10.8688,-17.851563 10.9961,-17.851563 z m -853.32619,9.195313 c -25.46026,-2.21117 -48.15139,17.036172 -50.15039,42.539062 -0.37133,4.73735 0.0751,10.384362 1.17383,14.832032 l 0.89062,3.599609 h 6.94727 6.94922 V 75.074219 55.492188 L 676.82812,70.65625 691.99414,85.820312 707.16016,70.65625 722.32812,55.492188 V 75.074219 94.65625 h 6.97071 6.9707 l 0.85547,-3.583984 c 6.6634,-27.92057 -12.7486,-54.909209 -41.27539,-57.386719 z m 401.14449,8.203125 -3.416,0.224609 c -9.7306,0.63658 -17.25,2.762623 -17.25,4.876953 0,1.88176 5.5844,3.634507 14.8321,4.654297 4.3687,0.48176 22.7616,0.168239 26.8339,-0.457031 9.3064,-1.4289 12.9502,-3.585446 9.7247,-5.753906 -2.0982,-1.410497 -8.7277,-2.804943 -15.6309,-3.289063 l -3.4063,-0.240234 -0.094,3.958984 -0.094,3.958985 -5.75,0.0918 -5.75,0.0918 v -4.058593 z m -805.20113,0.52539 c -0.33857,0.338571 -3.40175,12.909406 -3.17774,13.041016 0.21227,0.12472 5.80288,1.390032 7.37891,1.669922 0.45833,0.0814 1.80589,0.08652 2.99414,0.01172 2.99892,-0.18882 4.94813,-1.223268 5.92188,-3.142578 1.83213,-3.61121 0.20255,-7.105068 -4.26954,-9.148438 -2.0994,-0.959257 -8.54778,-2.73151 -8.84765,-2.431642 z m -4.98242,19.646485 c -0.0581,0.05808 -0.92077,3.359927 -1.91797,7.335937 l -1.8125,7.228516 3.70703,0.837891 c 2.03901,0.46092 4.08269,0.898003 4.54101,0.970703 2.21618,0.35142 6.67552,0.190074 8.03907,-0.291016 3.63252,-1.28162 5.31453,-5.177616 3.64648,-8.447266 -1.20909,-2.37001 -3.95939,-4.228471 -8.35351,-5.644531 -2.64336,-0.85185 -7.70447,-2.135374 -7.84961,-1.990234 z M 1570.8105,64.509766 1570.1152,65.5 c -0.3825,0.54465 -5.1592,7.290234 -10.6152,14.990234 -5.456,7.7 -10.0249,14.113607 -10.1523,14.253907 -0.1895,0.20894 -5.6691,-7.367151 -20.6758,-28.587891 -1.0663,-1.50779 -1.0977,-1.616508 -0.3438,-1.142578 3.5435,2.22764 20.5235,12.08789 20.8164,12.08789 0.2918,0 14.8646,-8.447098 20.5078,-11.886718 z m -858.48238,14.984375 -10.08593,10.080078 -10.08594,10.082031 -9.99609,-10 c -5.49773,-5.50002 -10.1094,-10 -10.24805,-10 -0.13865,0 -0.25195,5.550654 -0.25195,12.333984 v 12.332036 h -9.67774 -9.67969 l 1.36915,2.01757 c 7.60157,11.19381 20.5416,18.75847 34.15624,19.96875 16.84612,1.49754 33.2346,-6.31656 42.79102,-20.40234 l 1.07422,-1.58398 h -9.68359 -9.68165 V 91.908203 Z M 1149.4939,382.16348 c -5.702,1.49992 -10.9368,4.68599 -15.2617,9.28711 -8.0471,8.56099 -10.9466,20.06597 -7.9394,31.49805 3.3633,12.78597 15.1396,22.78916 28.4921,24.20313 3.3668,0.35658 3.3796,0.3574 6.6661,0.008 8.401,-0.89362 15.1982,-4.24313 20.8867,-10.29492 8.047,-8.56099 10.9466,-20.06597 7.9394,-31.49805 -1.5,-5.70207 -4.6085,-11.01857 -9.2851,-15.26172 -8.9811,-8.14865 -20.8219,-11.27216 -31.4981,-7.9416 z m 5.4571,11.32618 h 3.1543 3.1523 l 0.098,2.75 0.096,2.75 4.0839,0.0937 4.084,0.0937 v 3.17773 c 0,1.7544 -0.1715,3.49989 -0.3828,3.89453 -0.2104,0.39322 -2.9486,3.84963 -6.084,7.68164 -3.1354,3.83202 -5.9067,7.25161 -6.1582,7.59766 -0.444,0.61088 -0.266,0.6289 6.084,0.6289 h 6.541 v 3.5 3.5 h -4.1074 -4.1074 l 0.1484,2.83204 0.1485,2.83398 h -3.375 -3.375 v -2.83398 -2.83204 h -4 -4 v -3.28711 c 0,-3.92626 -0.4646,-3.10556 6.6836,-11.83984 2.8321,-3.46062 5.4256,-6.64681 5.7617,-7.08203 l 0.6113,-0.79102 h -6.1953 -6.1953 v -3.5 -3.5 h 3.6679 3.6661 v -2.83398 z m 625.2248,-221.31778 c -2.9627,-0.0114 -5.974,0.3694 -8.9727,1.1582 -5.702,1.49993 -10.9368,4.68402 -15.2617,9.28515 -8.0471,8.56098 -10.9466,20.06597 -7.9394,31.49805 3.3633,12.78596 15.1396,22.79112 28.4921,24.20508 3.3668,0.35658 3.3795,0.3574 6.6661,0.008 8.401,-0.89361 15.1982,-4.24508 20.8867,-10.29687 6.7051,-7.13329 9.9186,-16.46593 8.9394,-25.95703 -0.817,-7.91849 -3.5871,-13.8837 -9.1445,-19.69141 -6.3313,-6.6164 -14.778,-10.17493 -23.666,-10.20898 z m 2.6816,10.15039 c 3.3654,0 4.1943,0.0943 4.3477,0.49414 0.1042,0.27167 -1.0815,4.80982 -2.6348,10.08398 -1.5534,5.27416 -2.7796,9.64233 -2.7226,9.70703 0.057,0.0647 1.089,-0.21071 2.2929,-0.61133 1.2039,-0.40063 2.3156,-0.67818 2.4707,-0.61718 0.1551,0.061 0.065,0.88332 -0.2011,1.82812 l -0.4844,1.71875 -2.336,0.60547 c -1.2854,0.33339 -2.5335,0.76074 -2.7734,0.94922 -0.2399,0.18849 -1.1455,2.74244 -2.0117,5.67578 -0.8663,2.93333 -1.6445,5.52083 -1.7285,5.75 -0.1207,0.32736 1.9286,0.41602 9.5586,0.41602 7.4679,0 9.7477,0.0976 9.8632,0.41796 0.083,0.22917 -0.2674,1.84038 -0.7773,3.58204 l -0.9258,3.16796 -14.5683,0.0859 c -8.0117,0.0478 -14.5704,-0.0266 -14.5704,-0.16601 0,-0.13943 0.9929,-3.67234 2.211,-7.84961 1.2182,-4.17726 2.1427,-7.66601 2.0547,-7.75391 -0.088,-0.0879 -1.1729,0.153 -2.4102,0.53516 -1.2372,0.38216 -2.3145,0.62873 -2.3945,0.54882 -0.08,-0.0799 0.1234,-0.86723 0.4512,-1.75 0.592,-1.59448 0.6141,-1.61014 3.2343,-2.46093 l 2.6368,-0.85742 3.3613,-11.3418 c 1.8483,-6.23887 3.4805,-11.52637 3.6289,-11.75 0.1882,-0.28375 1.5263,-0.4082 4.4277,-0.4082 z M 33.076172,190.83789 c -2.820002,0.0253 -5.681045,0.4064 -8.539063,1.1582 -5.70207,1.49992 -10.936798,4.68599 -15.2617184,9.28711 -8.04708,8.56099 -10.9486062,20.06597 -7.9414062,31.49805 3.36333,12.78597 15.1416306,22.78916 28.4941406,24.20313 3.36675,0.35657 3.379476,0.3574 6.666016,0.008 8.401,-0.89362 15.198208,-4.24313 20.886718,-10.29492 8.04707,-8.56099 10.946643,-20.06597 7.939453,-31.49805 -1.499929,-5.70207 -4.684026,-10.93679 -9.285156,-15.26172 -6.420735,-6.03531 -14.498977,-9.17538 -22.958984,-9.09961 z m 845.505858,0.0859 c -9.74855,-0.80984 -19.35609,2.74028 -26.45508,10.13476 -6.13255,6.38782 -9.19412,14.01542 -9.20312,22.93164 -0.009,9.53812 3.43682,17.54108 10.34765,24.03711 5.47876,5.14989 11.90536,8.14087 19.22266,8.94727 3.3401,0.36809 3.36472,0.36874 6.66602,0.0176 8.401,-0.89362 15.19822,-4.24313 20.88672,-10.29492 8.0126,-8.52401 10.91987,-19.95986 7.98437,-31.40625 -2.4495,-9.55132 -10.34559,-18.38243 -19.74219,-22.08399 -3.19287,-1.25775 -6.45751,-2.01326 -9.70703,-2.2832 z M 17.675781,205.65625 h 9.195313 c 10.28635,0 11.49441,0.17363 15.59375,2.23437 2.89357,1.4546 6.25393,4.7693 7.71875,7.61329 l 1.023437,1.98632 2.226563,0.0977 2.226562,0.0996 v 1.98438 1.98437 h -1.832031 -1.833984 v 2.33398 2.33204 h 1.833984 1.832031 v 2.16796 2.16602 h -2.3125 -2.314453 l -1.103515,2.08398 c -2.26579,4.27995 -6.898864,7.75861 -12.089844,9.07813 -1.53505,0.39021 -4.051679,0.50391 -11.074219,0.50391 h -9.089844 l -0.08984,-5.75 -0.0918,-5.75 -2.583985,-0.0957 -2.582031,-0.0977 v -2.13868 -2.13867 l 2.582031,-0.0977 2.583985,-0.0977 v -2.16602 -2.16796 l -2.583985,-0.0957 -2.582031,-0.0977 v -1.97266 -1.97266 l 2.582031,-0.0977 2.583985,-0.0957 0.0918,-5.91796 z m 3.984375,3.66602 v 4.16796 4.16602 h 12.333985 c 6.78334,0 12.333984,-0.12349 12.333984,-0.27539 0,-0.1519 -0.467109,-0.98125 -1.037109,-1.8418 -1.86549,-2.81636 -5.348405,-5.10608 -8.896485,-5.84765 -0.97152,-0.20305 -4.68402,-0.36914 -8.25,-0.36914 z m 846.333984,0.0449 c 2e-4,-0.0676 3.86308,-0.0561 8.58398,0.0273 7.7386,0.13666 8.77917,0.22262 10.57227,0.87305 4.183,1.51732 5.88713,3.94894 6.11523,8.7207 0.29641,6.19918 -1.87704,12.33019 -5.58984,15.76758 -2.4353,2.25466 -4.72836,3.18428 -8.84766,3.58789 -1.65,0.16167 -5.88876,0.29773 -9.41796,0.30273 -5.3889,0.008 -6.41602,-0.0685 -6.41602,-0.4746 0,-0.41793 0.3142,-2.17449 0.8457,-4.72852 0.1453,-0.69793 0.31376,-0.71789 7.56836,-0.86914 5.8809,-0.12261 7.74076,-0.27311 8.97266,-0.72461 3.1595,-1.15792 4.75932,-3.69238 5.64062,-8.9375 0.3987,-2.37226 0.38186,-2.70329 -0.21484,-4.16602 -0.5404,-1.32489 -0.9236,-1.729 -2.3125,-2.42382 -1.6011,-0.80089 -1.95608,-0.83629 -9.08398,-0.94727 -4.0792,-0.0635 -7.41622,-0.13977 -7.41602,-0.16797 3e-4,-0.0282 0.2255,-1.32642 0.5,-2.88476 0.2745,-1.55833 0.4997,-2.88748 0.5,-2.95508 z M 1323.421,164.45126 c -9.5769,5.69361 -18.1092,14.92093 -23.1562,25.04297 -7.9576,15.95921 -8.2425,35.49998 -0.7539,51.60937 8.981,19.31989 28.4607,32.919 49.4707,34.53516 4.8505,0.37308 4.6615,0.37188 9.2343,0.0176 15.281,-1.18394 28.0756,-7.22686 38.7579,-18.30664 18.626,-19.3192 22.1019,-48.85503 8.4511,-71.81641 -5.6936,-9.57696 -15.1689,-17.63972 -25.0429,-23.15625 -23.6265,-13.19998 -48.3673,-3.03483 -56.961,2.0742 z m -447.67881,56.5038 -0.22657,0.93359 c -0.6696,2.77173 -0.92233,3.38157 -1.71093,4.12305 -0.8558,0.80461 -0.92861,0.81202 -8.53321,0.91211 l -7.67187,0.10156 0.2207,-1.10156 c 0.4345,-2.16573 0.87179,-3.18163 1.70899,-3.96875 0.8387,-0.78863 0.94995,-0.80069 8.53125,-0.90039 z m -854.082034,0.70117 v 2.33398 2.33204 h 13 13 v -2.33204 -2.33398 h -13 z m 0,9 v 4.02344 4.02148 l 7.583985,-0.10547 c 7.32332,-0.10224 7.655578,-0.13636 9.667968,-0.98437 2.49839,-1.05282 4.5807,-2.59649 6,-4.44531 2.09264,-2.72595 3.026588,-2.50977 -10.882812,-2.50977 z M 1613.3887,335.01367 c -5.8601,0.48625 -11.6019,2.06852 -16.8946,4.72266 -11.095,5.56394 -20.0817,16.19003 -23.6152,27.92187 -2.8451,9.44624 -2.6626,19.96285 0.502,28.93164 6.0686,17.19881 21.662,29.37931 39.7793,31.07422 8.1542,0.76284 17.5643,-1.02702 25,-4.75586 11.0951,-5.56393 20.0817,-16.18807 23.6152,-27.91992 3.4731,-11.53129 2.445,-23.91281 -2.8633,-34.49805 -5.5639,-11.09506 -16.1881,-20.08173 -27.9199,-23.61523 -5.7657,-1.73654 -11.7435,-2.34758 -17.6035,-1.86133 z m -16.7989,19.97656 c 0.1443,0 1.4185,0.6003 2.8321,1.33594 1.4128,0.73563 2.6424,1.3417 2.7324,1.34571 0.225,0.0108 12.3076,5.81802 14.248,6.84765 0.866,0.45955 1.6917,0.84437 1.834,0.85547 0.2401,0.0187 5.117,2.33172 10.0157,4.75 l 2.0878,1.03125 -0.09,4.32617 -0.09,4.32813 -11.2364,5.6875 c -6.18,3.12806 -11.3275,5.77866 -11.4394,5.89062 -0.112,0.11196 0.8201,0.69209 2.0703,1.28906 1.2503,0.59696 4.2222,2.02288 6.6055,3.16993 11.1367,5.35986 12.7137,6.102 13.3984,6.29882 0.7005,0.20136 0.737,0.40363 0.834,4.69336 0.056,2.46607 0.028,4.46898 -0.064,4.45118 -0.092,-0.0178 -7.7417,-3.67178 -17,-8.1211 l -16.834,-8.08984 -0.092,-4.32031 -0.094,-4.31836 1.7598,-0.8711 c 0.9676,-0.47885 6.2216,-3.05091 11.6757,-5.71679 5.4542,-2.66589 9.9161,-4.9016 9.9161,-4.9668 0,-0.0652 -5.2494,-2.64216 -11.6661,-5.72656 l -11.666,-5.60743 v -4.28125 c 0,-2.35494 0.1173,-4.28125 0.2617,-4.28125 z M 482.45857,186.18383 c -11.6976,0.01 -23.3616,3.5467 -33.8184,10.61132 -4.9613,3.35185 -12.0579,10.4744 -15.3203,15.37696 -11.4393,17.19055 -13.6652,37.38815 -6.1972,56.25 1.5642,3.95063 3.3211,7.19486 6.2851,11.61133 3.3041,4.92309 10.4268,12.02163 15.3457,15.29492 8.9857,5.97948 18.9842,9.54797 29.0274,10.35937 13.6125,1.09976 27.1365,-2.5284 38.8086,-10.41406 4.9612,-3.35185 12.0579,-10.47438 15.3203,-15.37695 14.0945,-21.18059 14.0725,-46.92437 -0.057,-67.83789 -3.3519,-4.96127 -10.4744,-12.05794 -15.3769,-15.32032 -10.5903,-7.04724 -22.32,-10.56434 -34.0176,-10.55468 z m 0.1562,20.01757 12.2481,12.25 12.25,12.24805 -4.416,4.41602 -4.4141,4.41406 -7.75,-7.72461 -7.7519,-7.72656 -7.8321,7.63281 c -4.3084,4.19781 -7.9118,7.63853 -8.0058,7.64453 -0.094,0.006 -2.1169,-1.93972 -4.4961,-4.32422 l -4.3262,-4.33398 12.2461,-12.24805 z M 1633.1699,378.38672 c 0.1026,0.10263 -0.083,0.28889 -0.4121,0.41406 -0.4751,0.1809 -0.5123,0.14366 -0.1855,-0.18555 0.2261,-0.2278 0.495,-0.33114 0.5976,-0.22851 z m -1.9922,0.80859 c 0.2967,-0.11383 0.4312,-0.0581 0.3145,0.13086 -0.112,0.18123 -0.3451,0.33008 -0.5176,0.33008 -0.4795,0 -0.3744,-0.23935 0.2031,-0.46094 z m -1439.43356,22.3086 c -2.82,0.0252 -5.68299,0.40835 -8.54102,1.16015 -5.70205,1.49992 -10.93678,4.68403 -15.26171,9.28516 -8.04707,8.56099 -10.94665,20.06597 -7.93946,31.49805 3.36334,12.78597 15.13969,22.79112 28.49219,24.20507 3.36675,0.35657 3.37948,0.35545 6.66602,0.006 8.401,-0.89362 15.1982,-4.24312 20.88672,-10.29492 8.04708,-8.56098 10.94665,-20.06597 7.93945,-31.49805 -1.49992,-5.70206 -4.68404,-10.93679 -9.28516,-15.26171 -6.42074,-6.03531 -14.49702,-9.17538 -22.95703,-9.09961 z m 1445.76756,6.35937 c 0.2967,-0.11383 0.4293,-0.0581 0.3125,0.13086 -0.112,0.18123 -0.3431,0.32813 -0.5156,0.32813 -0.4795,0 -0.3743,-0.23739 0.2031,-0.45899 z M 482.61477,236.87133 l 4.5801,4.58007 4.5801,4.58008 -4.4922,4.50196 c -2.4708,2.47586 -4.571,4.5 -4.668,4.5 -0.097,0 -2.1971,-2.02414 -4.6679,-4.5 l -4.4922,-4.50196 4.5801,-4.58008 z m -30.8418,0.16211 4.42,4.41211 4.4218,4.4121 -4.4121,4.42188 c -2.4267,2.43167 -4.4909,4.42187 -4.5879,4.42187 -0.097,0 -2.122,-1.9506 -4.5,-4.33398 l -4.3242,-4.33398 4.4903,-4.5 z m 61.8418,0.16992 4.4141,4.41406 4.4121,4.41406 -4.3242,4.33399 c -2.37893,2.3843 -4.405,4.33593 -4.502,4.33593 -0.097,0 -2.12298,-1.95163 -4.5019,-4.33593 l -4.3242,-4.33399 4.4121,-4.41406 z M 1635.8438,408.52929 c 0.2965,-0.11383 0.4312,-0.0581 0.3144,0.13086 -0.112,0.18124 -0.3451,0.33007 -0.5176,0.33007 -0.4795,0 -0.3744,-0.23933 0.2032,-0.46093 z m -1.3321,0.66601 c 0.2967,-0.11383 0.4293,-0.0581 0.3125,0.13086 -0.112,0.18123 -0.3431,0.33008 -0.5156,0.33008 -0.4795,0 -0.3743,-0.23935 0.2031,-0.46094 z m -1.6679,0.66797 c 0.2965,-0.11383 0.4312,-0.0581 0.3144,0.13086 -0.112,0.18123 -0.3451,0.32813 -0.5176,0.32813 -0.4795,0 -0.3744,-0.23739 0.2032,-0.45899 z m -1.3321,0.66602 c 0.2967,-0.11383 0.4293,-0.0581 0.3125,0.13086 -0.112,0.18124 -0.3431,0.33007 -0.5156,0.33007 -0.4795,0 -0.3743,-0.23933 0.2031,-0.46093 z m -1012.83592,0.38672 c -2.94652,10e-4 -5.89309,0.18718 -7.99219,0.55859 -16.91856,2.99348 -30.73926,14.92735 -36.16992,31.23437 -1.65563,4.97147 -2.26672,8.92682 -2.26172,14.61329 0.005,5.50906 0.59941,9.49429 2.13282,14.3125 5.57207,17.5083 21.47343,30.25129 39.94335,32.01171 5.79509,0.55234 12.94137,-0.23182 18.64454,-2.04687 16.2122,-5.15959 28.55119,-19.3507 31.54296,-36.27734 0.73958,-4.18529 0.735,-11.77838 -0.008,-15.97657 -3.41289,-19.28898 -18.58339,-34.472 -37.84765,-37.87695 -2.09265,-0.36979 -5.03786,-0.55383 -7.98438,-0.55273 z m -426.63672,1.24023 2.83008,2.97852 2.83008,2.97656 -6.9336,6.93945 c -3.81301,3.81625 -7.01207,6.93945 -7.10937,6.93945 -0.0974,0 -1.44606,-1.2778 -2.99805,-2.83789 l -2.82226,-2.83593 7.10156,-7.08008 z m 8.33399,8.33398 2.83007,2.97852 2.83008,2.97852 -11.10156,11.10351 c -6.10557,6.10762 -11.18054,11.10547 -11.27734,11.10547 -0.0967,0 -1.44402,-1.27574 -2.9961,-2.83594 l -2.82226,-2.83789 11.26758,-11.24609 z m 266.74562,-168.12476 7.8282,7.83398 7.83,7.83399 7.752,-7.74805 7.7539,-7.7461 4.4141,4.41407 4.414,4.41406 -12.1621,12.16602 c -6.6898,6.69171 -12.24,12.16796 -12.334,12.16796 -0.093,0 -5.644,-5.47623 -12.3339,-12.16796 l -12.1622,-12.16602 4.5,-4.5 z m 161.44969,171.8318 1.62891,0.61132 c 11.21718,4.2128 19.31914,13.06249 22.3789,24.44532 0.77671,2.88947 0.87014,3.84135 0.86914,8.90234 -10e-4,6.22842 -0.38705,8.3246 -2.4375,13.25 -3.47664,8.35125 -10.60943,15.48243 -18.81445,18.81055 -3.11734,1.26446 -4.04121,1.35833 -4.52148,0.46093 -0.43506,-0.81291 -0.44815,-3.53676 -0.0215,-4.33398 0.17735,-0.33138 1.86485,-1.35983 3.75,-2.28516 8.55603,-4.19973 14.12253,-11.64026 15.95508,-21.32617 0.50393,-2.66352 0.20982,-9.53787 -0.52344,-12.24219 -0.84769,-3.12631 -3.60068,-8.44645 -5.64844,-10.91406 -2.70091,-3.25468 -5.87815,-5.73867 -9.80078,-7.66406 -2.47182,-1.21326 -3.53041,-1.91657 -3.75,-2.49414 -0.52053,-1.36908 -0.3618,-3.61993 0.31446,-4.45508 z m -19.31055,0.46875 c 0.5638,0.3243 0.72677,1.18508 0.73242,2.7246 0.008,2.03913 -0.51788,2.72133 -2.89257,3.75586 -10.71112,4.66627 -17.4375,15.00511 -17.4375,26.80664 0,11.13144 6.21793,21.09836 16.16796,25.91993 1.65001,0.79956 3.26121,1.77058 3.58204,2.15625 0.74032,0.88995 0.77779,3.53429 0.0644,4.55273 -0.28539,0.40746 -0.69724,0.73456 -0.91602,0.72656 -1.07214,-0.038 -7.46768,-3.11045 -9.89843,-4.75586 -2.19063,-1.48287 -6.85009,-6.08795 -8.4961,-8.39648 -4.13838,-5.80412 -6.5039,-13.20005 -6.5039,-20.33398 0,-14.49845 9.01004,-27.60353 22.45312,-32.66016 1.61479,-0.6074 2.58074,-0.8204 3.14453,-0.49609 z m -400.76367,4.04882 2.93945,3.0293 2.9375,3.03125 -11.10351,11.10742 c -6.10703,6.10907 -11.1826,11.10742 -11.2793,11.10742 -0.0967,0 -1.43741,-1.26919 -2.98047,-2.82031 l -2.80664,-2.82031 11.14649,-11.31836 z m -33.16602,0.11328 2.91016,2.91211 2.91211,2.91016 -2.82031,2.83594 c -1.55161,1.55971 -2.90216,2.83594 -3.00196,2.83594 -0.0998,0 -1.45229,-1.27623 -3.0039,-2.83594 l -2.82031,-2.83594 2.91211,-2.91016 z m 443.2754,5.49415 c 2.53441,0 3.05664,0.64979 3.05664,3.79492 v 2.45898 l 1.41796,0.35938 c 3.21667,0.81459 6.0621,3.50618 6.91016,6.53515 0.60202,2.1502 0.21172,2.51953 -2.67969,2.51953 h -2.27148 l -0.93945,-1.73632 c -1.32498,-2.45297 -2.56384,-3.09975 -5.9375,-3.09375 -4.09883,0.007 -5.83204,1.33402 -5.83204,4.46289 0,3.07129 1.42416,4.05502 7.31055,5.04297 2.23531,0.37516 4.91647,0.99858 5.95899,1.38476 2.49293,0.92345 4.84322,3.21867 5.39843,5.27344 0.53304,1.9727 0.27531,6.18179 -0.46484,7.60156 -1.41813,2.72029 -4.16314,4.82151 -7.45898,5.70899 l -1.41211,0.38085 v 2.63477 c 0,2.34498 -0.0809,2.6925 -0.74024,3.1543 -1.09653,0.76804 -3.76178,0.68159 -4.5918,-0.14844 -0.54754,-0.54754 -0.66796,-1.11159 -0.66796,-3.1543 v -2.48633 l -1.41602,-0.35351 c -4.94882,-1.23322 -8.82271,-5.30055 -8.51953,-8.94531 l 0.10351,-1.22657 h 2.61915 2.62109 l 0.64648,1.73438 c 1.0901,2.92226 3.12596,4.0917 7.125,4.0957 2.3178,0.002 4.54972,-0.9495 5.59766,-2.38867 0.97621,-1.34067 1.08799,-3.85156 0.23242,-5.21484 -0.9287,-1.4798 -2.68441,-2.19344 -7.50586,-3.05078 -7.62675,-1.35619 -10.34436,-3.46989 -11.02148,-8.57422 -0.37664,-2.83924 0.53047,-5.23355 2.83594,-7.48828 1.86769,-1.82659 2.39655,-2.09247 6.26562,-3.14649 0.28542,-0.0777 0.41602,-0.88798 0.41602,-2.57226 0,-3.04919 0.42422,-3.5625 2.94336,-3.5625 z"
       clip-path="url(#clipPath72)"
       sodipodi:nodetypes="ssssssssssssssssssssssssssssssssssssssssssscccssscccsssccccccsssssssssscsssssccccccccccscccccccccssscccccccsssssccssssccccccccccccccssccssssccccccccssssssssccccsssscssssssccccccssccccsccccccsssscsssscccccccssssscccccccccccccssccccccccccssssscssssssssssssccsscsscccsssssscccssscsssscsssccsscssscsssscsscccccccccccccccccssccccccccccccccccccccccssssscsssssscsssssssssssssssssssssccscccscccccccccccccccssscsssssssssssccssccccsssssssscccsssscssscssssssssssccccccccccsccccsssssssscsssscsssccssssccccsccccccccssccccccssscccsssssssssssssssscsscsssccscccccssccccccccsccccccccccccsccccccscssssssssssccscssssscssssssccccsccccccccsccccssccsscccsssssccssssccccccccssssssss"
       inkscape:path-effect="#path-effect72"
       inkscape:original-d="m 1547.0684,0.2265625 c -9.8508,0.3586975 -19.6076,3.1116731 -28.2012,8.2207031 -9.577,5.6936194 -18.1093,14.9209384 -23.1563,25.0429684 -7.9575,15.959217 -8.2425,35.498032 -0.7539,51.607422 8.981,19.319884 28.4607,32.918994 49.4707,34.535154 4.8505,0.37308 4.6596,0.37382 9.2325,0.0195 15.2809,-1.18394 28.0774,-7.22881 38.7597,-18.30859 18.626,-19.319214 22.1,-48.853076 8.4492,-71.814453 -5.6936,-9.57696 -14.919,-18.109221 -25.041,-23.1562501 -8.9642,-4.4697 -18.909,-6.5051819 -28.7597,-6.1464844 z m -440.5528,0.12695312 c -22.5455,-1.95803002 -43.2857,12.83340238 -48.8769,34.85742238 -4.063,16.004746 0.5036,32.601303 12.1855,44.283203 7.7094,7.7094 17.8348,12.484683 28.5645,13.470703 8.1355,0.74763 17.6523,-0.986025 24.6328,-4.484375 14.8684,-7.45146 24.5195,-21.57439 25.9433,-37.96875 2.2128,-25.478137 -16.7894,-47.9296934 -42.4492,-50.15820338 z M 291.83789,1.4726562 c -11.69758,0.00966 -23.3616,3.5467084 -33.81836,10.6113278 -4.96126,3.35185 -12.05793,10.474383 -15.32031,15.376954 -11.43935,17.190547 -13.66337,37.388149 -6.19531,56.25 1.56419,3.95063 3.31918,7.194848 6.2832,11.611328 3.30402,4.923084 10.42675,12.021634 15.3457,15.294924 8.98571,5.97948 18.98418,9.54797 29.02735,10.35937 13.61249,1.09976 27.13655,-2.5284 38.80859,-10.41406 4.96127,-3.35185 12.05793,-10.47439 15.32031,-15.376953 14.09449,-21.18059 14.0726,-46.924374 -0.0566,-67.837891 C 337.88057,22.386386 330.75803,15.289724 325.85547,12.027344 315.26517,4.980099 303.53547,1.463 291.83789,1.4726562 Z m -2.21484,21.1171878 c 0.20835,-0.23664 5.67438,0.986617 6.10937,1.367187 0.13059,0.11425 -0.28322,2.360165 -0.91797,4.990235 -0.63476,2.63006 -1.15429,4.961933 -1.15429,5.183593 0,0.36057 4.90114,1.768403 5.14062,1.476563 0.0528,-0.06432 0.66372,-2.417896 1.35742,-5.228516 1.17753,-4.77092 1.30744,-5.097991 1.96485,-4.925781 0.38728,0.10145 1.79192,0.442339 3.12109,0.755859 1.34568,0.31742 2.41602,0.747293 2.41602,0.970704 0,0.220659 -0.53338,2.615002 -1.18555,5.320312 -0.65218,2.7053 -1.06403,5.022058 -0.91602,5.148438 0.14801,0.126369 1.08824,0.55933 2.08985,0.96289 8.15828,3.28709 11.76296,8.1146 10.6875,14.3125 -0.75332,4.34141 -2.74015,7.187971 -6.07422,8.707031 l -1.89844,0.865235 2.22656,1.664062 c 1.75593,1.31152 2.45777,2.109461 3.31641,3.775391 0.96228,1.86699 1.08789,2.420677 1.08789,4.773437 0,4.6443 -2.0627,9.480131 -5.23828,12.275391 -3.44687,3.03405 -9.58064,3.889146 -17.76953,2.478516 L 292.8125,87.259766 291.50195,92.625 c -1.17086,4.78853 -1.386,5.361084 -1.99414,5.333984 -0.68461,-0.03048 -5.58598,-1.263725 -5.77539,-1.453125 -0.0838,-0.08384 1.91424,-8.416926 2.45117,-10.222656 0.12841,-0.43183 -0.37386,-0.674047 -2.51171,-1.210937 l -2.67383,-0.671875 -0.31836,1.210937 c -0.17566,0.66616 -0.79139,3.103999 -1.36719,5.417969 l -1.04688,4.208984 -2.99609,-0.763672 c -1.64836,-0.41941 -3.09057,-0.856193 -3.20508,-0.970703 -0.11451,-0.11451 0.36592,-2.538599 1.06836,-5.386718 0.71535,-2.90047 1.14954,-5.29473 0.98633,-5.44336 -0.16026,-0.14595 -2.96728,-0.921636 -6.23633,-1.722656 -3.26904,-0.80103 -6.08345,-1.543831 -6.25586,-1.650391 -0.24558,-0.15177 2.36887,-6.737434 2.88672,-7.271484 0.0677,-0.06978 1.09699,0.117065 2.28711,0.416015 3.06835,0.77074 4.39997,0.717162 5,-0.205078 0.50666,-0.77872 7.85938,-29.713054 7.85938,-30.927734 0,-2.04385 -1.46561,-3.124659 -5.43164,-4.005859 -1.06253,-0.23608 -2.00104,-0.542228 -2.08594,-0.679688 -0.25366,-0.41043 1.3111,-6.373164 1.71289,-6.527344 0.20389,-0.07824 3.08762,0.539167 6.4082,1.373047 3.32057,0.83389 6.17455,1.517578 6.34375,1.517578 0.16919,0 0.8707,-2.288154 1.5586,-5.083984 0.6879,-2.79583 1.34422,-5.188286 1.45703,-5.316406 z m 791.03715,0.732422 h 22 22 v 5.333984 5.333984 h -8 -8 v 3.615235 3.617187 l 3.4179,0.222656 c 12.7827,0.836261 21.763,4.245839 19.0606,7.236329 -2.0362,2.25326 -10.0459,4.319352 -18.8086,4.851562 l -3.6699,0.222656 V 65.207031 76.65625 h -5.8301 -5.8281 l -0.088,-11.416016 -0.088,-11.417968 -1.6679,-0.08008 c -9.8126,-0.48018 -18.797,-2.648517 -20.9766,-5.060547 -0.8564,-0.94765 -0.4167,-2.233829 1.1172,-3.267579 2.4731,-1.666577 10.522,-3.453103 18.0273,-4.001953 l 3.5,-0.255859 v -3.5 -3.5 l -8.084,-0.08984 -8.0839,-0.08789 v -5.328125 z m 468.5156,1.167968 c 0.1272,0 5.0713,8.021975 10.9863,17.828125 9.3701,15.534347 10.6831,17.876456 10.209,18.197266 -0.2993,0.20251 -5.1609,3.093035 -10.8047,6.421875 -5.6437,3.32884 -10.3687,6.038837 -10.5,6.023438 -0.1312,-0.01541 -5.0573,-2.893065 -10.9453,-6.396485 l -10.7051,-6.371094 10.7637,-17.851562 c 5.9201,-9.81866 10.8688,-17.851563 10.9961,-17.851563 z m -853.32619,9.195313 c -25.46026,-2.21117 -48.15139,17.036172 -50.15039,42.539062 -0.37133,4.73735 0.0751,10.384362 1.17383,14.832032 l 0.89062,3.599609 h 6.94727 6.94922 V 75.074219 55.492188 L 676.82812,70.65625 691.99414,85.820312 707.16016,70.65625 722.32812,55.492188 V 75.074219 94.65625 h 6.97071 6.9707 l 0.85547,-3.583984 c 6.6634,-27.92057 -12.7486,-54.909209 -41.27539,-57.386719 z m 401.14449,8.203125 -3.416,0.224609 c -9.7306,0.63658 -17.25,2.762623 -17.25,4.876953 0,1.88176 5.5844,3.634507 14.8321,4.654297 4.3687,0.48176 22.7616,0.168239 26.8339,-0.457031 9.3064,-1.4289 12.9502,-3.585446 9.7247,-5.753906 -2.0982,-1.410497 -8.7277,-2.804943 -15.6309,-3.289063 l -3.4063,-0.240234 -0.094,3.958984 -0.094,3.958985 -5.75,0.0918 -5.75,0.0918 v -4.058593 z m -805.20113,0.52539 c -0.33857,0.338571 -3.40175,12.909406 -3.17774,13.041016 0.21227,0.12472 5.80288,1.390032 7.37891,1.669922 0.45833,0.0814 1.80589,0.08652 2.99414,0.01172 2.99892,-0.18882 4.94813,-1.223268 5.92188,-3.142578 1.83213,-3.61121 0.20255,-7.105068 -4.26954,-9.148438 -2.0994,-0.959257 -8.54778,-2.73151 -8.84765,-2.431642 z m -4.98242,19.646485 c -0.0581,0.05808 -0.92077,3.359927 -1.91797,7.335937 l -1.8125,7.228516 3.70703,0.837891 c 2.03901,0.46092 4.08269,0.898003 4.54101,0.970703 2.21618,0.35142 6.67552,0.190074 8.03907,-0.291016 3.63252,-1.28162 5.31453,-5.177616 3.64648,-8.447266 -1.20909,-2.37001 -3.95939,-4.228471 -8.35351,-5.644531 -2.64336,-0.85185 -7.70447,-2.135374 -7.84961,-1.990234 z M 1570.8105,64.509766 1570.1152,65.5 c -0.3825,0.54465 -5.1592,7.290234 -10.6152,14.990234 -5.456,7.7 -10.0249,14.113607 -10.1523,14.253907 -0.1895,0.20894 -5.6691,-7.367151 -20.6758,-28.587891 -1.0663,-1.50779 -1.0977,-1.616508 -0.3438,-1.142578 3.5435,2.22764 20.5235,12.08789 20.8164,12.08789 0.2918,0 14.8646,-8.447098 20.5078,-11.886718 z m -858.48238,14.984375 -10.08593,10.080078 -10.08594,10.082031 -9.99609,-10 c -5.49773,-5.50002 -10.1094,-10 -10.24805,-10 -0.13865,0 -0.25195,5.550654 -0.25195,12.333984 v 12.332036 h -9.67774 -9.67969 l 1.36915,2.01757 c 7.60157,11.19381 20.5416,18.75847 34.15624,19.96875 16.84612,1.49754 33.2346,-6.31656 42.79102,-20.40234 l 1.07422,-1.58398 h -9.68359 -9.68165 V 91.908203 Z M 1149.4939,382.16348 c -5.702,1.49992 -10.9368,4.68599 -15.2617,9.28711 -8.0471,8.56099 -10.9466,20.06597 -7.9394,31.49805 3.3633,12.78597 15.1396,22.78916 28.4921,24.20313 3.3668,0.35658 3.3796,0.3574 6.6661,0.008 8.401,-0.89362 15.1982,-4.24313 20.8867,-10.29492 8.047,-8.56099 10.9466,-20.06597 7.9394,-31.49805 -1.5,-5.70207 -4.6085,-11.01857 -9.2851,-15.26172 -8.9811,-8.14865 -20.8219,-11.27216 -31.4981,-7.9416 z m 5.4571,11.32618 h 3.1543 3.1523 l 0.098,2.75 0.096,2.75 4.0839,0.0937 4.084,0.0937 v 3.17773 c 0,1.7544 -0.1715,3.49989 -0.3828,3.89453 -0.2104,0.39322 -2.9486,3.84963 -6.084,7.68164 -3.1354,3.83202 -5.9067,7.25161 -6.1582,7.59766 -0.444,0.61088 -0.266,0.6289 6.084,0.6289 h 6.541 v 3.5 3.5 h -4.1074 -4.1074 l 0.1484,2.83204 0.1485,2.83398 h -3.375 -3.375 v -2.83398 -2.83204 h -4 -4 v -3.28711 c 0,-3.92626 -0.4646,-3.10556 6.6836,-11.83984 2.8321,-3.46062 5.4256,-6.64681 5.7617,-7.08203 l 0.6113,-0.79102 h -6.1953 -6.1953 v -3.5 -3.5 h 3.6679 3.6661 v -2.83398 z m 625.2248,-221.31778 c -2.9627,-0.0114 -5.974,0.3694 -8.9727,1.1582 -5.702,1.49993 -10.9368,4.68402 -15.2617,9.28515 -8.0471,8.56098 -10.9466,20.06597 -7.9394,31.49805 3.3633,12.78596 15.1396,22.79112 28.4921,24.20508 3.3668,0.35658 3.3795,0.3574 6.6661,0.008 8.401,-0.89361 15.1982,-4.24508 20.8867,-10.29687 6.7051,-7.13329 9.9186,-16.46593 8.9394,-25.95703 -0.817,-7.91849 -3.5871,-13.8837 -9.1445,-19.69141 -6.3313,-6.6164 -14.778,-10.17493 -23.666,-10.20898 z m 2.6816,10.15039 c 3.3654,0 4.1943,0.0943 4.3477,0.49414 0.1042,0.27167 -1.0815,4.80982 -2.6348,10.08398 -1.5534,5.27416 -2.7796,9.64233 -2.7226,9.70703 0.057,0.0647 1.089,-0.21071 2.2929,-0.61133 1.2039,-0.40063 2.3156,-0.67818 2.4707,-0.61718 0.1551,0.061 0.065,0.88332 -0.2011,1.82812 l -0.4844,1.71875 -2.336,0.60547 c -1.2854,0.33339 -2.5335,0.76074 -2.7734,0.94922 -0.2399,0.18849 -1.1455,2.74244 -2.0117,5.67578 -0.8663,2.93333 -1.6445,5.52083 -1.7285,5.75 -0.1207,0.32736 1.9286,0.41602 9.5586,0.41602 7.4679,0 9.7477,0.0976 9.8632,0.41796 0.083,0.22917 -0.2674,1.84038 -0.7773,3.58204 l -0.9258,3.16796 -14.5683,0.0859 c -8.0117,0.0478 -14.5704,-0.0266 -14.5704,-0.16601 0,-0.13943 0.9929,-3.67234 2.211,-7.84961 1.2182,-4.17726 2.1427,-7.66601 2.0547,-7.75391 -0.088,-0.0879 -1.1729,0.153 -2.4102,0.53516 -1.2372,0.38216 -2.3145,0.62873 -2.3945,0.54882 -0.08,-0.0799 0.1234,-0.86723 0.4512,-1.75 0.592,-1.59448 0.6141,-1.61014 3.2343,-2.46093 l 2.6368,-0.85742 3.3613,-11.3418 c 1.8483,-6.23887 3.4805,-11.52637 3.6289,-11.75 0.1882,-0.28375 1.5263,-0.4082 4.4277,-0.4082 z M 33.076172,190.83789 c -2.820002,0.0253 -5.681045,0.4064 -8.539063,1.1582 -5.70207,1.49992 -10.936798,4.68599 -15.2617184,9.28711 -8.04708,8.56099 -10.9486062,20.06597 -7.9414062,31.49805 3.36333,12.78597 15.1416306,22.78916 28.4941406,24.20313 3.36675,0.35657 3.379476,0.3574 6.666016,0.008 8.401,-0.89362 15.198208,-4.24313 20.886718,-10.29492 8.04707,-8.56099 10.946643,-20.06597 7.939453,-31.49805 -1.499929,-5.70207 -4.684026,-10.93679 -9.285156,-15.26172 -6.420735,-6.03531 -14.498977,-9.17538 -22.958984,-9.09961 z m 845.505858,0.0859 c -9.74855,-0.80984 -19.35609,2.74028 -26.45508,10.13476 -6.13255,6.38782 -9.19412,14.01542 -9.20312,22.93164 -0.009,9.53812 3.43682,17.54108 10.34765,24.03711 5.47876,5.14989 11.90536,8.14087 19.22266,8.94727 3.3401,0.36809 3.36472,0.36874 6.66602,0.0176 8.401,-0.89362 15.19822,-4.24313 20.88672,-10.29492 8.0126,-8.52401 10.91987,-19.95986 7.98437,-31.40625 -2.4495,-9.55132 -10.34559,-18.38243 -19.74219,-22.08399 -3.19287,-1.25775 -6.45751,-2.01326 -9.70703,-2.2832 z M 17.675781,205.65625 h 9.195313 c 10.28635,0 11.49441,0.17363 15.59375,2.23437 2.89357,1.4546 6.25393,4.7693 7.71875,7.61329 l 1.023437,1.98632 2.226563,0.0977 2.226562,0.0996 v 1.98438 1.98437 h -1.832031 -1.833984 v 2.33398 2.33204 h 1.833984 1.832031 v 2.16796 2.16602 h -2.3125 -2.314453 l -1.103515,2.08398 c -2.26579,4.27995 -6.898864,7.75861 -12.089844,9.07813 -1.53505,0.39021 -4.051679,0.50391 -11.074219,0.50391 h -9.089844 l -0.08984,-5.75 -0.0918,-5.75 -2.583985,-0.0957 -2.582031,-0.0977 v -2.13868 -2.13867 l 2.582031,-0.0977 2.583985,-0.0977 v -2.16602 -2.16796 l -2.583985,-0.0957 -2.582031,-0.0977 v -1.97266 -1.97266 l 2.582031,-0.0977 2.583985,-0.0957 0.0918,-5.91796 z m 3.984375,3.66602 v 4.16796 4.16602 h 12.333985 c 6.78334,0 12.333984,-0.12349 12.333984,-0.27539 0,-0.1519 -0.467109,-0.98125 -1.037109,-1.8418 -1.86549,-2.81636 -5.348405,-5.10608 -8.896485,-5.84765 -0.97152,-0.20305 -4.68402,-0.36914 -8.25,-0.36914 z m 846.333984,0.0449 c 2e-4,-0.0676 3.86308,-0.0561 8.58398,0.0273 7.7386,0.13666 8.77917,0.22262 10.57227,0.87305 4.183,1.51732 5.88713,3.94894 6.11523,8.7207 0.29641,6.19918 -1.87704,12.33019 -5.58984,15.76758 -2.4353,2.25466 -4.72836,3.18428 -8.84766,3.58789 -1.65,0.16167 -5.88876,0.29773 -9.41796,0.30273 -5.3889,0.008 -6.41602,-0.0685 -6.41602,-0.4746 0,-0.41793 0.3142,-2.17449 0.8457,-4.72852 0.1453,-0.69793 0.31376,-0.71789 7.56836,-0.86914 5.8809,-0.12261 7.74076,-0.27311 8.97266,-0.72461 3.1595,-1.15792 4.75932,-3.69238 5.64062,-8.9375 0.3987,-2.37226 0.38186,-2.70329 -0.21484,-4.16602 -0.5404,-1.32489 -0.9236,-1.729 -2.3125,-2.42382 -1.6011,-0.80089 -1.95608,-0.83629 -9.08398,-0.94727 -4.0792,-0.0635 -7.41622,-0.13977 -7.41602,-0.16797 3e-4,-0.0282 0.2255,-1.32642 0.5,-2.88476 0.2745,-1.55833 0.4997,-2.88748 0.5,-2.95508 z M 1323.421,164.45126 c -9.5769,5.69361 -18.1092,14.92093 -23.1562,25.04297 -7.9576,15.95921 -8.2425,35.49998 -0.7539,51.60937 8.981,19.31989 28.4607,32.919 49.4707,34.53516 4.8505,0.37308 4.6615,0.37188 9.2343,0.0176 15.281,-1.18394 28.0756,-7.22686 38.7579,-18.30664 18.626,-19.3192 22.1019,-48.85503 8.4511,-71.81641 -5.6936,-9.57696 -15.1689,-17.63972 -25.0429,-23.15625 -23.6265,-13.19998 -48.3673,-3.03483 -56.961,2.0742 z m -447.67881,56.5038 -0.22657,0.93359 c -0.6696,2.77173 -0.92233,3.38157 -1.71093,4.12305 -0.8558,0.80461 -0.92861,0.81202 -8.53321,0.91211 l -7.67187,0.10156 0.2207,-1.10156 c 0.4345,-2.16573 0.87179,-3.18163 1.70899,-3.96875 0.8387,-0.78863 0.94995,-0.80069 8.53125,-0.90039 z m -854.082034,0.70117 v 2.33398 2.33204 h 13 13 v -2.33204 -2.33398 h -13 z m 0,9 v 4.02344 4.02148 l 7.583985,-0.10547 c 7.32332,-0.10224 7.655578,-0.13636 9.667968,-0.98437 2.49839,-1.05282 4.5807,-2.59649 6,-4.44531 2.09264,-2.72595 3.026588,-2.50977 -10.882812,-2.50977 z M 1613.3887,335.01367 c -5.8601,0.48625 -11.6019,2.06852 -16.8946,4.72266 -11.095,5.56394 -20.0817,16.19003 -23.6152,27.92187 -2.8451,9.44624 -2.6626,19.96285 0.502,28.93164 6.0686,17.19881 21.662,29.37931 39.7793,31.07422 8.1542,0.76284 17.5643,-1.02702 25,-4.75586 11.0951,-5.56393 20.0817,-16.18807 23.6152,-27.91992 3.4731,-11.53129 2.445,-23.91281 -2.8633,-34.49805 -5.5639,-11.09506 -16.1881,-20.08173 -27.9199,-23.61523 -5.7657,-1.73654 -11.7435,-2.34758 -17.6035,-1.86133 z m -16.7989,19.97656 c 0.1443,0 1.4185,0.6003 2.8321,1.33594 1.4128,0.73563 2.6424,1.3417 2.7324,1.34571 0.225,0.0108 12.3076,5.81802 14.248,6.84765 0.866,0.45955 1.6917,0.84437 1.834,0.85547 0.2401,0.0187 5.117,2.33172 10.0157,4.75 l 2.0878,1.03125 -0.09,4.32617 -0.09,4.32813 -11.2364,5.6875 c -6.18,3.12806 -11.3275,5.77866 -11.4394,5.89062 -0.112,0.11196 0.8201,0.69209 2.0703,1.28906 1.2503,0.59696 4.2222,2.02288 6.6055,3.16993 11.1367,5.35986 12.7137,6.102 13.3984,6.29882 0.7005,0.20136 0.737,0.40363 0.834,4.69336 0.056,2.46607 0.028,4.46898 -0.064,4.45118 -0.092,-0.0178 -7.7417,-3.67178 -17,-8.1211 l -16.834,-8.08984 -0.092,-4.32031 -0.094,-4.31836 1.7598,-0.8711 c 0.9676,-0.47885 6.2216,-3.05091 11.6757,-5.71679 5.4542,-2.66589 9.9161,-4.9016 9.9161,-4.9668 0,-0.0652 -5.2494,-2.64216 -11.6661,-5.72656 l -11.666,-5.60743 v -4.28125 c 0,-2.35494 0.1173,-4.28125 0.2617,-4.28125 z M 482.45857,186.18383 c -11.6976,0.01 -23.3616,3.5467 -33.8184,10.61132 -4.9613,3.35185 -12.0579,10.4744 -15.3203,15.37696 -11.4393,17.19055 -13.6652,37.38815 -6.1972,56.25 1.5642,3.95063 3.3211,7.19486 6.2851,11.61133 3.3041,4.92309 10.4268,12.02163 15.3457,15.29492 8.9857,5.97948 18.9842,9.54797 29.0274,10.35937 13.6125,1.09976 27.1365,-2.5284 38.8086,-10.41406 4.9612,-3.35185 12.0579,-10.47438 15.3203,-15.37695 14.0945,-21.18059 14.0725,-46.92437 -0.057,-67.83789 -3.3519,-4.96127 -10.4744,-12.05794 -15.3769,-15.32032 -10.5903,-7.04724 -22.32,-10.56434 -34.0176,-10.55468 z m 0.1562,20.01757 12.2481,12.25 12.25,12.24805 -4.416,4.41602 -4.4141,4.41406 -7.75,-7.72461 -7.7519,-7.72656 -7.8321,7.63281 c -4.3084,4.19781 -7.9118,7.63853 -8.0058,7.64453 -0.094,0.006 -2.1169,-1.93972 -4.4961,-4.32422 l -4.3262,-4.33398 12.2461,-12.24805 z M 1633.1699,378.38672 c 0.1026,0.10263 -0.083,0.28889 -0.4121,0.41406 -0.4751,0.1809 -0.5123,0.14366 -0.1855,-0.18555 0.2261,-0.2278 0.495,-0.33114 0.5976,-0.22851 z m -1.9922,0.80859 c 0.2967,-0.11383 0.4312,-0.0581 0.3145,0.13086 -0.112,0.18123 -0.3451,0.33008 -0.5176,0.33008 -0.4795,0 -0.3744,-0.23935 0.2031,-0.46094 z m -1439.43356,22.3086 c -2.82,0.0252 -5.68299,0.40835 -8.54102,1.16015 -5.70205,1.49992 -10.93678,4.68403 -15.26171,9.28516 -8.04707,8.56099 -10.94665,20.06597 -7.93946,31.49805 3.36334,12.78597 15.13969,22.79112 28.49219,24.20507 3.36675,0.35657 3.37948,0.35545 6.66602,0.006 8.401,-0.89362 15.1982,-4.24312 20.88672,-10.29492 8.04708,-8.56098 10.94665,-20.06597 7.93945,-31.49805 -1.49992,-5.70206 -4.68404,-10.93679 -9.28516,-15.26171 -6.42074,-6.03531 -14.49702,-9.17538 -22.95703,-9.09961 z m 1445.76756,6.35937 c 0.2967,-0.11383 0.4293,-0.0581 0.3125,0.13086 -0.112,0.18123 -0.3431,0.32813 -0.5156,0.32813 -0.4795,0 -0.3743,-0.23739 0.2031,-0.45899 z M 482.61477,236.87133 l 4.5801,4.58007 4.5801,4.58008 -4.4922,4.50196 c -2.4708,2.47586 -4.571,4.5 -4.668,4.5 -0.097,0 -2.1971,-2.02414 -4.6679,-4.5 l -4.4922,-4.50196 4.5801,-4.58008 z m -30.8418,0.16211 4.42,4.41211 4.4218,4.4121 -4.4121,4.42188 c -2.4267,2.43167 -4.4909,4.42187 -4.5879,4.42187 -0.097,0 -2.122,-1.9506 -4.5,-4.33398 l -4.3242,-4.33398 4.4903,-4.5 z m 61.8418,0.16992 4.4141,4.41406 4.4121,4.41406 -4.3242,4.33399 c -2.37893,2.3843 -4.405,4.33593 -4.502,4.33593 -0.097,0 -2.12298,-1.95163 -4.5019,-4.33593 l -4.3242,-4.33399 4.4121,-4.41406 z M 1635.8438,408.52929 c 0.2965,-0.11383 0.4312,-0.0581 0.3144,0.13086 -0.112,0.18124 -0.3451,0.33007 -0.5176,0.33007 -0.4795,0 -0.3744,-0.23933 0.2032,-0.46093 z m -1.3321,0.66601 c 0.2967,-0.11383 0.4293,-0.0581 0.3125,0.13086 -0.112,0.18123 -0.3431,0.33008 -0.5156,0.33008 -0.4795,0 -0.3743,-0.23935 0.2031,-0.46094 z m -1.6679,0.66797 c 0.2965,-0.11383 0.4312,-0.0581 0.3144,0.13086 -0.112,0.18123 -0.3451,0.32813 -0.5176,0.32813 -0.4795,0 -0.3744,-0.23739 0.2032,-0.45899 z m -1.3321,0.66602 c 0.2967,-0.11383 0.4293,-0.0581 0.3125,0.13086 -0.112,0.18124 -0.3431,0.33007 -0.5156,0.33007 -0.4795,0 -0.3743,-0.23933 0.2031,-0.46093 z m -1012.83592,0.38672 c -2.94652,10e-4 -5.89309,0.18718 -7.99219,0.55859 -16.91856,2.99348 -30.73926,14.92735 -36.16992,31.23437 -1.65563,4.97147 -2.26672,8.92682 -2.26172,14.61329 0.005,5.50906 0.59941,9.49429 2.13282,14.3125 5.57207,17.5083 21.47343,30.25129 39.94335,32.01171 5.79509,0.55234 12.94137,-0.23182 18.64454,-2.04687 16.2122,-5.15959 28.55119,-19.3507 31.54296,-36.27734 0.73958,-4.18529 0.735,-11.77838 -0.008,-15.97657 -3.41289,-19.28898 -18.58339,-34.472 -37.84765,-37.87695 -2.09265,-0.36979 -5.03786,-0.55383 -7.98438,-0.55273 z m -426.63672,1.24023 2.83008,2.97852 2.83008,2.97656 -6.9336,6.93945 c -3.81301,3.81625 -7.01207,6.93945 -7.10937,6.93945 -0.0974,0 -1.44606,-1.2778 -2.99805,-2.83789 l -2.82226,-2.83593 7.10156,-7.08008 z m 8.33399,8.33398 2.83007,2.97852 2.83008,2.97852 -11.10156,11.10351 c -6.10557,6.10762 -11.18054,11.10547 -11.27734,11.10547 -0.0967,0 -1.44402,-1.27574 -2.9961,-2.83594 l -2.82226,-2.83789 11.26758,-11.24609 z m 266.74562,-168.12476 7.8282,7.83398 7.83,7.83399 7.752,-7.74805 7.7539,-7.7461 4.4141,4.41407 4.414,4.41406 -12.1621,12.16602 c -6.6898,6.69171 -12.24,12.16796 -12.334,12.16796 -0.093,0 -5.644,-5.47623 -12.3339,-12.16796 l -12.1622,-12.16602 4.5,-4.5 z m 161.44969,171.8318 1.62891,0.61132 c 11.21718,4.2128 19.31914,13.06249 22.3789,24.44532 0.77671,2.88947 0.87014,3.84135 0.86914,8.90234 -10e-4,6.22842 -0.38705,8.3246 -2.4375,13.25 -3.47664,8.35125 -10.60943,15.48243 -18.81445,18.81055 -3.11734,1.26446 -4.04121,1.35833 -4.52148,0.46093 -0.43506,-0.81291 -0.44815,-3.53676 -0.0215,-4.33398 0.17735,-0.33138 1.86485,-1.35983 3.75,-2.28516 8.55603,-4.19973 14.12253,-11.64026 15.95508,-21.32617 0.50393,-2.66352 0.20982,-9.53787 -0.52344,-12.24219 -0.84769,-3.12631 -3.60068,-8.44645 -5.64844,-10.91406 -2.70091,-3.25468 -5.87815,-5.73867 -9.80078,-7.66406 -2.47182,-1.21326 -3.53041,-1.91657 -3.75,-2.49414 -0.52053,-1.36908 -0.3618,-3.61993 0.31446,-4.45508 z m -19.31055,0.46875 c 0.5638,0.3243 0.72677,1.18508 0.73242,2.7246 0.008,2.03913 -0.51788,2.72133 -2.89257,3.75586 -10.71112,4.66627 -17.4375,15.00511 -17.4375,26.80664 0,11.13144 6.21793,21.09836 16.16796,25.91993 1.65001,0.79956 3.26121,1.77058 3.58204,2.15625 0.74032,0.88995 0.77779,3.53429 0.0644,4.55273 -0.28539,0.40746 -0.69724,0.73456 -0.91602,0.72656 -1.07214,-0.038 -7.46768,-3.11045 -9.89843,-4.75586 -2.19063,-1.48287 -6.85009,-6.08795 -8.4961,-8.39648 -4.13838,-5.80412 -6.5039,-13.20005 -6.5039,-20.33398 0,-14.49845 9.01004,-27.60353 22.45312,-32.66016 1.61479,-0.6074 2.58074,-0.8204 3.14453,-0.49609 z m -400.76367,4.04882 2.93945,3.0293 2.9375,3.03125 -11.10351,11.10742 c -6.10703,6.10907 -11.1826,11.10742 -11.2793,11.10742 -0.0967,0 -1.43741,-1.26919 -2.98047,-2.82031 l -2.80664,-2.82031 11.14649,-11.31836 z m -33.16602,0.11328 2.91016,2.91211 2.91211,2.91016 -2.82031,2.83594 c -1.55161,1.55971 -2.90216,2.83594 -3.00196,2.83594 -0.0998,0 -1.45229,-1.27623 -3.0039,-2.83594 l -2.82031,-2.83594 2.91211,-2.91016 z m 443.2754,5.49415 c 2.53441,0 3.05664,0.64979 3.05664,3.79492 v 2.45898 l 1.41796,0.35938 c 3.21667,0.81459 6.0621,3.50618 6.91016,6.53515 0.60202,2.1502 0.21172,2.51953 -2.67969,2.51953 h -2.27148 l -0.93945,-1.73632 c -1.32498,-2.45297 -2.56384,-3.09975 -5.9375,-3.09375 -4.09883,0.007 -5.83204,1.33402 -5.83204,4.46289 0,3.07129 1.42416,4.05502 7.31055,5.04297 2.23531,0.37516 4.91647,0.99858 5.95899,1.38476 2.49293,0.92345 4.84322,3.21867 5.39843,5.27344 0.53304,1.9727 0.27531,6.18179 -0.46484,7.60156 -1.41813,2.72029 -4.16314,4.82151 -7.45898,5.70899 l -1.41211,0.38085 v 2.63477 c 0,2.34498 -0.0809,2.6925 -0.74024,3.1543 -1.09653,0.76804 -3.76178,0.68159 -4.5918,-0.14844 -0.54754,-0.54754 -0.66796,-1.11159 -0.66796,-3.1543 v -2.48633 l -1.41602,-0.35351 c -4.94882,-1.23322 -8.82271,-5.30055 -8.51953,-8.94531 l 0.10351,-1.22657 h 2.61915 2.62109 l 0.64648,1.73438 c 1.0901,2.92226 3.12596,4.0917 7.125,4.0957 2.3178,0.002 4.54972,-0.9495 5.59766,-2.38867 0.97621,-1.34067 1.08799,-3.85156 0.23242,-5.21484 -0.9287,-1.4798 -2.68441,-2.19344 -7.50586,-3.05078 -7.62675,-1.35619 -10.34436,-3.46989 -11.02148,-8.57422 -0.37664,-2.83924 0.53047,-5.23355 2.83594,-7.48828 1.86769,-1.82659 2.39655,-2.09247 6.26562,-3.14649 0.28542,-0.0777 0.41602,-0.88798 0.41602,-2.57226 0,-3.04919 0.42422,-3.5625 2.94336,-3.5625 z" />
  </g>
</svg>
