<?xml version="1.0" encoding="UTF-8" standalone="no"?>
<svg
   width="491.29901"
   height="302"
   fill="none"
   version="1.1"
   id="svg14"
   xml:space="preserve"
   xmlns="http://www.w3.org/2000/svg"
   xmlns:svg="http://www.w3.org/2000/svg"><defs
     id="defs14" /><style
     id="style1"><![CDATA[.B{stroke:#fff}.C{stroke-width:2}.D{stroke-linecap:round}]]></style><path
     d="M 4.275,22.667 43.442,43.5 m 11.064,5.84 70.849,38.007 m 16.235,8.856 -5.535,-3.321 m 15.867,8.487 41.328,22.14 m 51.66,48.709 v 90.775 m 0.371,5.166 v 27.675 M 1,64.838 193.989,133.472 M 1,108.011 201.738,144.174 M 1,159.303 94.358,156.351 m 13.285,-0.369 98.155,-3.321 M 10.225,218.343 21.664,215.022 M 33.842,212.07 138.639,181.812 M 1,287.347 40.483,265.576 m 35.423,-19.558 140.222,-79.705 m -97.784,112.916 13.653,-13.653 m 5.165,-4.797 64.945,-64.945 m -13.285,85.978 7.749,-18.082 m 1.847,-3.689 33.21,-77.491 M 86.978,11.701 154.875,71.849 m 4.797,4.059 32.472,29.151 m -41.697,-93.727 49.816,73.432 m 4.796,-77.491 4.428,15.498 m 1.107,5.166 10.701,37.27 M 245.65,1 V 65.945 M 486.775,22.667 447.609,43.5 m -10.816,5.84 -70.849,38.007 m -16.237,8.856 5.535,-3.321 m -15.867,8.487 -41.328,22.14 M 490.299,64.838 297.31,133.472 m 192.989,-25.461 -200.738,36.163 m 200.738,15.129 -93.358,-2.952 m -13.285,-0.369 -98.155,-3.321 m 195.573,65.682 -11.439,-3.321 M 457.826,211.701 351.184,181.074 M 490.299,287.347 450.815,265.576 M 415.391,245.28 274.431,166.313 m 98.526,112.916 -13.653,-13.653 m -4.429,-4.797 -64.945,-64.207 m 12.547,85.24 -7.75,-18.082 m -1.846,-3.689 -33.21,-77.491 M 404.32,11.701 336.424,71.85 m -4.797,4.058 -32.472,29.151 M 340.852,11.332 291.036,84.764 M 286.238,7.273 281.81,22.77 m -1.105,5.167 -10.701,37.27 M 245.65,1 v 64.945"
     class="B C D"
     id="path1" /><circle
     cx="49.338001"
     cy="118.343"
     r="26.568001"
     fill="#ffffff"
     id="circle1" /><circle
     cx="443.759"
     cy="113.232"
     r="20.771"
     class="B C"
     id="circle2" /><circle
     cx="126.459"
     cy="46.388"
     r="15.129"
     fill="#000000"
     id="circle3" /><circle
     cx="431.26001"
     cy="248.563"
     r="30.627001"
     fill="#9c9c9c"
     id="circle4" /><circle
     cx="362.55099"
     cy="88.595001"
     fill="#000000"
     r="10.332"
     id="circle5" /><path
     d="m 370.73372,25.050682 a 9.332,9.332 0 0 1 -18.664,0 9.332,9.332 0 0 1 18.664,0 z"
     id="path5"
     style="stroke:#ffffff;stroke-width:2" /><circle
     cx="62.098"
     cy="253.923"
     r="13.76"
     id="circle6"
     style="stroke:#ffffff;stroke-width:2" /><circle
     cx="248.09801"
     cy="115.624"
     r="59.273998"
     fill="#ffffff"
     id="circle7" /><path
     d="M 232.421,243.805 209.911,301 h -52.768 c 4.674,-6.888 14.318,-21.328 15.499,-23.985 1.181,-2.657 -1.23,-6.765 -2.584,-8.487 l -22.14,-32.472 c -3.837,-6.2 -4.305,-15.13 -4.059,-18.82 l 0.738,-66.789 c 0,-4.133 1.968,-5.658 2.952,-5.904 l -0.738,-8.487 c 0,-1.723 0.96,-5.314 4.797,-5.905 3.837,-0.591 5.781,2.706 6.273,4.428 l 8.487,40.222 c 0.591,3.542 3.69,7.872 5.167,9.594 l 12.546,11.439 21.033,18.081 c 3.247,-3.542 3.567,-7.38 3.321,-8.856 l -3.321,-20.664 c -0.738,-3.198 -0.812,-10.037 4.797,-11.808 5.609,-1.771 8.733,2.46 9.594,4.797 l 12.916,50.922 c 2.361,8.856 0.984,14.023 0,15.499 z"
     fill="#1a1a1a"
     id="path7" /><g
     class="B C"
     id="g10"><g
       class="D"
       id="g9"><path
         d="m 209.911,301 22.51,-57.195 c 0.984,-1.476 2.361,-6.642 0,-15.499 l -12.916,-50.922 c -0.861,-2.337 -3.985,-6.568 -9.594,-4.797 -5.609,1.771 -5.535,8.61 -4.797,11.808 l 3.321,20.664 c 0.246,1.476 -0.074,5.314 -3.321,8.856 l -21.033,-18.081 -12.546,-11.439 c -1.477,-1.722 -4.576,-6.052 -5.167,-9.594 -0.591,-3.542 -5.904,-28.29 -8.487,-40.222 -0.492,-1.722 -2.435,-5.018 -6.273,-4.428 -3.838,0.59 -4.797,4.182 -4.797,5.905 l 0.738,8.487 c -0.984,0.246 -2.952,1.771 -2.952,5.904 l -0.738,66.789 c -0.246,3.69 0.222,12.62 4.059,18.82 3.837,6.2 16.359,24.231 22.14,32.472 1.354,1.722 3.764,5.83 2.584,8.487 -1.18,2.657 -10.825,17.097 -15.499,23.985 m -8.486,-156.826 c 2.214,-0.738 6.716,-0.369 7.011,5.535 l 1.476,35.793 0.738,14.022 c 0.123,1.722 1.107,6.273 4.059,10.702 2.952,4.429 11.562,18.573 15.498,25.092"
         id="path8" /><path
         d="m 156.406,165.207 c 0,-1.968 -1.181,-5.904 -5.904,-5.904 -4.723,0 -5.904,3.936 -5.904,5.904 m 23.246,25.092 -2.952,18.82"
         id="path9" /></g><path
       d="m 198.102,222.034 c 1.476,-3.248 5.289,-6.765 7.011,-8.118 l -10.701,-9.226 -1.403,36.472 a 26.62,26.62 0 0 0 -0.073,1.905 l 0.073,-1.905 c 0.498,-6.807 3.41,-15.425 5.093,-19.128 z"
       fill="#ffffff"
       id="path10" /></g><path
     d="M 258.304,243.805 280.813,301 h 52.768 c -4.674,-6.888 -14.317,-21.328 -15.498,-23.985 -1.181,-2.657 1.23,-6.765 2.583,-8.487 l 22.14,-32.472 c 3.838,-6.2 4.305,-15.13 4.059,-18.82 l -0.738,-66.789 c 0,-4.133 -1.968,-5.658 -2.952,-5.904 l 0.738,-8.487 c 0,-1.723 -0.959,-5.314 -4.797,-5.905 -3.838,-0.591 -5.781,2.706 -6.273,4.428 l -8.487,40.222 c -0.59,3.542 -3.69,7.872 -5.166,9.594 l -12.546,11.439 -21.033,18.081 c -3.247,-3.542 -3.567,-7.38 -3.321,-8.856 l 3.321,-20.664 c 0.738,-3.198 0.812,-10.037 -4.797,-11.808 -5.609,-1.771 -8.733,2.46 -9.594,4.797 l -12.916,50.922 c -2.362,8.856 -0.984,14.023 0,15.499 z"
     fill="#1a1a1a"
     id="path11" /><g
     class="B C"
     id="g14"><g
       class="D"
       id="g13"><path
         d="m 280.813,301 -22.509,-57.195 c -0.984,-1.476 -2.362,-6.642 0,-15.499 l 12.916,-50.922 c 0.861,-2.337 3.985,-6.568 9.594,-4.797 5.609,1.771 5.535,8.61 4.797,11.808 l -3.321,20.664 c -0.246,1.476 0.074,5.314 3.321,8.856 l 21.033,-18.081 12.546,-11.439 c 1.476,-1.722 4.576,-6.052 5.166,-9.594 0.59,-3.542 5.904,-28.29 8.487,-40.222 0.492,-1.722 2.436,-5.018 6.273,-4.428 3.837,0.59 4.797,4.182 4.797,5.905 l -0.738,8.487 c 0.984,0.246 2.952,1.771 2.952,5.904 l 0.738,66.789 c 0.246,3.69 -0.221,12.62 -4.059,18.82 -3.838,6.2 -16.359,24.231 -22.14,32.472 -1.353,1.722 -3.764,5.83 -2.583,8.487 1.181,2.657 10.824,17.097 15.498,23.985 m 8.486,-156.826 c -2.214,-0.738 -6.715,-0.369 -7.011,5.535 l -1.476,35.793 -0.738,14.022 c -0.123,1.722 -1.107,6.273 -4.059,10.702 -2.952,4.429 -11.562,18.573 -15.498,25.092"
         id="path12" /><path
         d="m 334.32,165.207 c 0,-1.968 1.181,-5.904 5.904,-5.904 4.723,0 5.904,3.936 5.904,5.904 m -23.247,25.092 2.952,18.82"
         id="path13" /></g><path
       d="m 292.622,222.034 c -1.476,-3.248 -5.289,-6.765 -7.011,-8.118 l 10.701,-9.226 1.403,36.472 c 0.048,0.653 0.073,1.29 0.073,1.905 l -0.073,-1.905 c -0.497,-6.807 -3.409,-15.425 -5.093,-19.128 z"
       fill="#ffffff"
       id="path14" /></g><path
     style="fill:#000000;stroke-width:0.119329"
     d="m 234.10046,161.44175 c -6.66938,-2.72785 -12.64017,-7.97719 -16.32612,-14.16877 -3.3093,-5.55893 -6.8293,-13.0401 -4.19581,-18.94924 0.20109,-0.45121 1.29018,-0.72916 1.29018,-0.72916 l -0.71608,-0.79644 c -1.07471,-1.19534 -1.29951,-2.336 -0.71452,-3.62554 0.66439,-1.46454 1.98717,-2.69804 4.52506,-4.21966 0.70007,-0.41971 1.29797,-0.78491 1.32868,-0.81153 0.0307,-0.0267 -0.12816,-0.28966 -0.35306,-0.58451 -0.89303,-1.17083 -1.12462,-2.44833 -0.64982,-3.58468 0.52225,-1.24993 1.55147,-1.87831 4.60645,-2.8124 3.17143,-0.96971 3.89807,-1.24645 3.89807,-1.48464 0,-0.12303 -0.23839,-0.50222 -0.52977,-0.84262 -1.39854,-1.63387 -2.55951,-4.33462 -3.03544,-7.06123 -0.23395,-1.34029 -0.2705,-1.41545 -1.1514,-2.366464 -1.10001,-1.187585 -1.99005,-2.534292 -2.47399,-3.74333 -0.31312,-0.782295 -0.35972,-1.185878 -0.36086,-3.125742 -9.9e-4,-1.763351 0.0608,-2.409804 0.29702,-3.102554 0.97747,-2.86712 2.66157,-4.880134 5.02696,-6.008752 0.74383,-0.354904 1.96442,-0.828545 2.71243,-1.052534 1.62757,-0.487367 2.13829,-0.922353 2.01891,-1.719472 -0.0434,-0.289785 -0.26653,-1.234123 -0.49586,-2.09855 -0.47704,-1.798162 -0.51972,-2.819645 -0.17333,-4.149483 0.63081,-2.421873 2.3995,-4.487691 4.89478,-5.717086 2.61403,-1.287899 3.45902,-1.449236 7.58998,-1.449236 3.52966,0 3.60819,0.0069 5.60073,0.522296 3.83953,0.992333 7.71229,2.667945 10.52327,4.553085 0.86127,0.577585 1.68948,1.050148 1.84047,1.050148 0.15101,0 0.80669,-0.141512 1.45708,-0.314463 0.65038,-0.172961 1.54051,-0.314908 1.97805,-0.31545 2.74042,-0.003 6.02751,1.590028 8.30699,4.026812 2.37974,2.543948 3.31233,4.772829 3.46583,8.283274 l 0.0631,1.443458 1.08264,1.015862 c 4.09501,3.842459 4.47997,4.339059 5.07289,6.544144 0.35605,1.324138 0.35129,4.065641 -0.0103,5.807303 -1.27465,6.143184 -6.5708,12.415694 -13.1706,15.598624 -0.96438,0.46509 -2.21187,0.96971 -2.77221,1.1214 -1.18114,0.31972 -1.17876,0.26319 -0.0793,1.87307 l 0.74548,1.09157 v 1.88434 1.88436 c 0,0 0.76129,0.12044 1.11112,0.2722 3.69048,1.60102 7.65448,3.40753 10.10541,6.5975 2.44624,3.18386 3.86566,7.42813 3.76444,11.44195 -0.11376,4.51025 -1.85367,9.27481 -4.87273,12.62748 -4.25694,4.72734 -10.76254,7.39378 -16.99009,8.69244 -7.92331,1.65228 -16.74363,1.56624 -24.23499,-1.49778 z m 20.53638,-1.69966 c 6.16039,-0.67581 12.35211,-3.1553 15.78187,-6.31988 2.83189,-2.61293 5.18253,-7.33742 5.71449,-11.48537 0.53846,-4.19871 -1.7237,-9.00239 -5.62316,-11.94071 -1.50596,-1.1348 -2.92937,-1.88037 -4.57677,-2.39733 -1.0684,-0.33528 -1.493,-0.37441 -4.05718,-0.37389 -2.84316,6.1e-4 -2.87525,0.005 -4.43621,0.54232 -3.88856,1.33978 -6.58335,4.28038 -7.32996,7.99857 -0.309,1.53895 -0.31259,4.15788 -0.008,5.61516 0.68207,3.25983 3.29586,6.23653 6.45284,7.34876 1.59563,0.56216 4.08195,0.6894 5.70397,0.2919 2.93106,-0.71829 5.10665,-3.07436 5.61127,-6.07674 0.50827,-3.02399 -1.10678,-6.41992 -3.61823,-7.60803 -2.09172,-0.98953 -3.83777,-0.88985 -5.12591,0.29268 -1.751,1.60741 -1.94815,3.9392 -0.46388,5.48656 1.07625,1.122 2.19084,1.31205 2.88146,0.49132 0.22654,-0.26924 0.41189,-0.59782 0.41189,-0.73017 0,-0.13234 -0.32217,-0.55376 -0.71596,-0.93649 -0.79998,-0.77749 -0.91501,-1.3042 -0.39776,-1.82143 0.93295,-0.93296 3.35398,0.50422 3.83148,2.27446 0.73472,2.72381 -1.64142,5.18783 -4.83793,5.01686 -1.4484,-0.0774 -2.41607,-0.54223 -3.61781,-1.73762 -2.27784,-2.26578 -2.78545,-5.48929 -1.32431,-8.40991 1.16492,-2.32857 3.59372,-3.66312 6.66454,-3.66198 3.60583,9.9e-4 6.8841,1.87524 9.01704,5.15431 1.65964,2.55144 1.68124,6.18093 0.0568,9.55812 -1.11288,2.31376 -3.92959,4.72551 -6.98311,5.97916 -2.30303,0.94552 -3.55791,1.15623 -6.86397,1.15256 -4.47152,-0.005 -8.0147,-0.66703 -12.10909,-2.26267 -3.32338,-1.29516 -5.53888,-2.59653 -7.98814,-4.69217 -0.72758,-0.62253 -1.58675,-1.33192 -1.90926,-1.57644 -1.63995,-1.24334 -2.18107,-2.02979 -1.8047,-2.62292 0.0993,-0.15649 0.23601,-0.11967 0.59076,0.15911 0.67157,0.52774 1.91015,0.48533 3.22476,-0.11045 1.34078,-0.6076 2.79008,-2.17873 3.6342,-3.93972 l 0.61011,-1.27278 0.1054,0.77446 c 0.0579,0.42593 0.11319,1.8484 0.12264,3.161 0.0199,2.75061 0.25249,4.0981 0.85833,4.97233 0.94206,1.35938 1.97235,1.69764 3.76633,1.23651 1.18315,-0.30412 1.63682,-0.55794 2.00699,-1.12289 0.24274,-0.37048 0.24209,-0.44896 -0.009,-1.10699 -0.28994,-0.75917 -0.98502,-1.45224 -1.61506,-1.61036 -0.21355,-0.0536 -0.70922,0.008 -1.10147,0.13733 -0.39226,0.12914 -0.7132,0.18422 -0.7132,0.12241 0,-0.0619 0.14274,-0.52725 0.3172,-1.03433 0.85205,-2.47651 1.02843,-6.09659 0.4044,-8.29978 -0.48028,-1.69565 -1.70735,-2.74949 -3.21074,-2.75747 -0.89013,-0.005 -2.62639,0.54235 -3.82195,1.20421 -2.38342,1.31946 -5.83092,4.31969 -6.51507,5.66977 -0.80892,1.59633 -1.12701,0.59394 -0.53994,-1.70149 0.58609,-2.29156 1.98199,-4.65852 3.44069,-5.83416 0.80694,-0.65036 2.91415,-1.65633 4.11175,-1.96293 0.54552,-0.13966 1.63649,-0.24277 2.56868,-0.24277 1.86569,0 3.18263,0.33307 4.41921,1.11765 0.61114,0.38777 0.75281,0.43134 0.66531,0.2046 -0.0612,-0.15844 -0.19499,-0.81332 -0.29744,-1.45532 l -0.18626,-1.16724 -2.5474,0.13108 c -4.04365,0.20806 -4.30934,0.15337 -5.13285,-1.05661 -0.32205,-0.47319 -0.35799,-0.71734 -0.35799,-2.43181 0,-1.37274 0.0927,-2.30033 0.33114,-3.31627 0.55125,-2.34804 0.65725,-2.09678 0.89659,2.12529 0.1062,1.87451 0.18737,2.39967 0.40412,2.61642 0.21641,0.21641 0.65672,0.28493 2.17995,0.33923 2.49449,0.0889 5.06419,-0.18675 7.29591,-0.78276 0.99005,-0.26441 1.8711,-0.45706 1.95791,-0.42814 0.0868,0.0289 -0.27576,0.65301 -0.80568,1.38682 -1.33026,1.84206 -1.27902,2.70619 0.14905,2.51466 1.03719,-0.13912 2.08548,-0.74815 3.20734,-1.86336 0.84503,-0.84004 1.10948,-1.22456 1.31261,-1.90855 0.5201,-1.75136 0.23645,-2.97083 -0.90272,-3.88101 -0.54405,-0.43469 -0.73199,-0.48588 -2.00819,-0.54689 -2.65897,-0.12713 -7.03343,0.4942 -8.71434,1.23775 -0.40636,0.17975 -0.77733,0.28831 -0.82438,0.24126 -0.0902,-0.09 0.0913,-0.95537 0.53322,-2.54354 0.14612,-0.52503 0.33996,-1.25762 0.43077,-1.62793 0.22473,-0.91646 0.44358,-0.70202 0.44358,0.43464 0,0.51473 0.0577,0.97154 0.1283,1.01515 0.0706,0.0436 0.87604,-0.19517 1.78994,-0.53063 0.91389,-0.33548 2.0733,-0.6942 2.57647,-0.79716 0.50317,-0.10299 0.91486,-0.24818 0.91486,-0.3227 0,-0.0745 -0.69808,-0.40299 -1.55128,-0.72992 -2.76274,-1.0587 -4.75152,-2.18643 -2.87995,-1.63306 0.51574,0.15249 2.09818,0.19671 6.20595,0.17345 4.94978,-0.0281 5.67392,-0.0658 7.08017,-0.36907 5.85329,-1.26239 11.47644,-4.4189 14.95957,-8.39743 2.00577,-2.29104 2.72168,-3.4959 3.54212,-5.96134 0.1982,-0.595584 0.32471,-1.118514 0.28114,-1.162084 -0.0437,-0.0436 -0.78479,0.27485 -1.64718,0.707604 -2.66804,1.33887 -5.63585,2.25487 -9.37905,2.8948 -1.58347,0.27071 -2.58692,0.31566 -7.0473,0.31566 -8.32481,0 -12.13035,-0.67933 -15.4269,-2.75384 -1.30634,-0.822084 -1.96677,-1.049134 -3.07659,-1.057694 -1.0238,-0.008 -1.63955,0.18185 -2.15411,0.663874 -0.32072,0.30041 -0.36349,0.3063 -0.45687,0.063 -0.20689,-0.539144 0.38989,-1.643185 1.16614,-2.157348 0.40332,-0.267146 0.85999,-0.485717 1.01484,-0.485717 0.51751,0 0.48056,-0.306557 -0.16871,-1.399424 -2.27579,-3.830728 -2.31088,-7.985025 -0.0957,-11.317297 1.26683,-1.905574 3.15174,-3.350074 5.33777,-4.090598 1.18553,-0.401613 4.84689,-0.397099 6.35043,0.008 2.34872,0.632522 5.13586,2.472381 6.51754,4.30241 2.28316,3.02403 2.71273,6.880603 1.1347,10.187063 -0.82696,1.732733 -2.15728,2.979641 -3.9605,3.712227 -1.33478,0.54225 -1.47096,0.40411 -0.32764,-0.332382 1.66542,-1.072779 2.19816,-1.540783 2.92504,-2.569505 0.9169,-1.297672 1.34641,-2.530236 1.46409,-4.201384 0.11113,-1.577582 -0.17328,-2.997382 -0.82205,-4.104427 -0.52873,-0.902223 -1.92296,-2.405233 -2.51529,-2.711538 -0.59809,-0.309273 -2.18774,-0.218192 -2.9349,0.168183 -1.76247,0.9114 -0.95403,4.002154 1.13552,4.341248 0.73308,0.118954 1.60019,-0.316204 2.50689,-1.25809 0.86496,-0.898511 0.95533,-0.852604 1.34988,0.685601 0.30702,1.196968 0.23376,3.005092 -0.16712,4.125175 -0.87956,2.457464 -3.10604,3.848823 -6.21284,3.882528 -1.25768,0.01363 -1.55142,-0.03964 -2.4137,-0.438045 -0.53995,-0.249474 -1.13065,-0.612089 -1.31264,-0.805809 l -0.3309,-0.352247 0.55976,-0.266928 c 0.76048,-0.362649 1.00581,-0.916888 0.64774,-1.463359 -0.14829,-0.226338 -0.44691,-0.492304 -0.66359,-0.591014 -0.32671,-0.148868 -0.46782,-0.12505 -0.82687,0.139519 -0.23813,0.175458 -0.50145,0.545886 -0.58518,0.82316 -0.0836,0.277274 -0.21727,0.504139 -0.29675,0.504139 -0.29178,0 -1.27062,-1.217235 -1.64283,-2.042962 -0.95475,-2.118038 -0.85422,-4.649913 0.252,-6.34662 0.738,-1.131952 2.25304,-2.586317 3.1993,-3.071186 0.98759,-0.50604 0.55286,-0.567173 -0.76768,-0.107922 -2.88454,1.003145 -5.37112,3.744837 -6.16323,6.79555 -0.18589,0.715903 -0.24786,1.437145 -0.20136,2.343493 0.0582,1.134484 0.15067,1.474368 0.69251,2.545634 1.13249,2.238992 3.14079,3.90094 5.83423,4.828068 2.40327,0.827244 3.82783,0.983374 9.66742,1.059584 5.16044,0.0673 5.4104,0.0564 7.8573,-0.34447 2.63012,-0.430864 4.75226,-0.923484 6.98208,-1.620841 1.54791,-0.484078 4.64872,-1.992381 5.1921,-2.525534 0.36449,-0.357631 0.37251,-0.408922 0.17458,-1.115844 -0.1141,-0.407547 -0.47257,-1.146868 -0.79659,-1.642918 -0.64573,-0.988584 -1.20667,-1.504718 -5.56736,-5.1225 -1.61889,-1.343075 -4.33037,-3.699388 -6.02551,-5.236241 -4.53035,-4.107314 -5.03054,-4.535598 -6.85537,-5.869997 -4.2435,-3.10304 -8.21527,-4.893758 -13.33263,-6.011154 -1.83151,-0.399916 -5.60642,-0.364225 -7.22134,0.06828 -3.18668,0.853455 -4.85666,2.463505 -5.14608,4.961419 -0.0836,0.721929 -0.0142,1.153531 0.39695,2.466128 0.88258,2.817811 0.81141,3.928041 -0.33526,5.230743 -0.85812,0.974869 -1.62612,1.399441 -3.64354,2.014286 -3.61726,1.102428 -4.97183,2.382892 -5.66002,5.350326 -0.22383,0.965109 -0.22316,1.166929 0.007,2.189115 0.13961,0.619313 0.3852,1.412411 0.54573,1.762435 l 0.29188,0.636417 0.11307,-0.636417 c 0.46347,-2.608658 1.86972,-5.224178 3.76797,-7.008185 1.14139,-1.072675 1.97058,-1.622503 3.92378,-2.601726 1.76533,-0.88505 1.72409,-0.841457 3.05628,-3.230514 0.30628,-0.549255 1.16121,-1.629388 1.89985,-2.400295 1.97858,-2.06505 4.07045,-3.357042 6.80373,-4.20215 1.31572,-0.406804 1.58069,-0.432677 4.42256,-0.431869 2.97149,8.4e-4 3.04876,0.0099 4.5345,0.506095 0.84017,0.280833 2.11215,0.874374 2.86389,1.33638 1.55133,0.953438 4.06645,3.365477 4.98968,4.78522 0.59826,0.919969 1.13229,2.030153 0.97656,2.030153 -0.0462,0 -0.7406,-0.61426 -1.54311,-1.365026 -1.74068,-1.62846 -2.30187,-2.026922 -4.18449,-2.971088 -2.01453,-1.01034 -3.32556,-1.374306 -5.63941,-1.565564 -2.21917,-0.183455 -3.19447,-0.115173 -4.90897,0.3437 -3.26877,0.87483 -6.10034,3.097925 -7.49503,5.884413 -0.35827,0.715812 -0.6514,1.461067 -0.6514,1.65614 0,0.536962 -0.43739,0.813308 -1.74534,1.102668 -3.11787,0.689783 -5.68235,2.763334 -7.10529,5.745077 -0.89187,1.868902 -1.21426,3.372462 -1.21106,5.648217 0.007,4.999181 2.05744,8.730371 6.32273,11.505461 1.37336,0.89353 4.27463,1.71949 6.8415,1.9477 1.80718,0.16066 2.10858,0.30404 1.1555,0.54968 -0.41458,0.10689 -0.72088,0.2475 -0.68067,0.31255 0.0402,0.0651 0.46281,0.16408 0.93911,0.22006 0.4763,0.0559 0.97951,0.14534 1.1182,0.19856 1.35675,0.52063 -2.90735,1.00741 -8.81678,1.00652 -2.49319,-3.7e-4 -2.74274,-0.0242 -2.38657,-0.22782 0.21877,-0.12506 0.70206,-0.22991 1.07396,-0.23302 0.37191,-0.003 0.6762,-0.0675 0.6762,-0.14312 0,-0.0756 -0.34009,-0.26344 -0.75575,-0.41737 -0.41566,-0.15393 -1.17386,-0.48803 -1.6849,-0.74244 l -0.92916,-0.46256 -0.82099,0.50358 c -3.99497,2.45037 -8.09864,8.07 -9.87602,13.52434 -1.11585,3.42428 -1.38103,6.01961 -0.97365,9.52929 0.45018,3.87842 0.7221,4.8901 2.09239,7.78445 2.88648,6.09698 8.37638,11.09051 15.60135,14.19078 5.29765,2.27323 12.16892,3.11755 19.14408,2.35235 z m -32.42512,-15.93568 c -0.32562,-0.39235 -0.38296,-1.00713 -0.11471,-1.22978 0.21712,-0.18019 0.32003,-0.16503 0.67412,0.0993 0.55335,0.41314 0.75375,0.75245 0.63192,1.06993 -0.11949,0.31139 -0.94819,0.35348 -1.19133,0.0605 z m -2.07273,-3.0227 c -0.82901,-0.39886 -1.2517,-2.15971 -0.75089,-3.12816 0.31807,-0.61508 1.27089,-1.0596 1.77696,-0.82901 0.82927,0.37783 1.33179,1.86418 1.02079,3.01917 -0.27337,1.0152 -1.09952,1.39379 -2.04686,0.938 z m 3.086,-4.82368 c -0.34456,-0.34458 -0.31292,-0.89995 0.0797,-1.39913 0.39359,-0.50037 0.82722,-0.53509 1.2613,-0.10104 0.3563,0.3563 0.42979,1.25671 0.12728,1.55924 -0.27233,0.27232 -1.17314,0.23606 -1.46831,-0.0591 z m -3.71762,-2.93966 c -0.42868,-0.17204 -0.82823,-1.03351 -0.82823,-1.78578 0,-0.68733 0.69844,-2.08405 1.20967,-2.41902 0.2213,-0.145 0.6253,-0.2395 0.90727,-0.21221 1.41839,0.13731 1.4962,3.62849 0.097,4.35204 -0.50557,0.26146 -0.85528,0.27784 -1.38568,0.065 z m 4.4143,-4.46217 c -0.18564,-0.34687 -0.0864,-1.03219 0.19931,-1.37646 0.2604,-0.31376 1.04602,-0.24507 1.23497,0.10804 0.2224,0.41555 0.20826,1.1761 -0.0262,1.41059 -0.32393,0.3239 -1.20632,0.23485 -1.40807,-0.14211 z m -2.208,-4.06381 c -0.39101,-0.49709 -0.4043,-0.6854 -0.0999,-1.41407 0.30885,-0.7392 0.9442,-1.34881 1.40573,-1.34881 0.49723,0 1.06915,0.62593 1.06915,1.17011 0,0.56052 -0.55011,1.63639 -0.94469,1.84756 -0.53498,0.28632 -1.08124,0.18902 -1.43034,-0.25479 z m 4.63432,-2.15828 c -0.29844,-0.29845 -0.22685,-0.69659 0.22098,-1.22881 0.92475,-1.09901 2.05634,-0.12934 1.16759,1.00052 -0.35477,0.45103 -1.0513,0.56554 -1.38857,0.22829 z m 0.0724,-4.07765 c -0.37704,-0.41662 -0.3259,-0.88309 0.16011,-1.46069 1.03159,-1.22596 2.42032,-0.82688 1.9614,0.56367 -0.34218,1.03678 -1.53759,1.54224 -2.12151,0.89702 z m 6.82923,-3.02832 c -0.53309,-0.0574 -0.97064,-0.18784 -1.00766,-0.30035 -0.0502,-0.15275 0.44511,-0.19833 2.13552,-0.19645 2.04553,0.002 2.83655,0.13098 2.55223,0.41532 -0.1563,0.15626 -2.50315,0.20823 -3.68009,0.0815 z m 18.36423,-7.92573 c -2.11868,-0.34269 -4.34282,-1.05471 -5.6743,-1.8165 -1.02703,-0.58761 -2.70575,-2.1136 -3.13511,-2.84988 l -0.2973,-0.50982 0.37685,0.11594 c 0.20727,0.0637 1.2904,0.60597 2.40695,1.20492 3.5338,1.89554 5.77665,2.74477 8.85128,3.3514 1.20671,0.23809 1.7058,0.39458 1.50733,0.47259 -0.30766,0.12095 -3.33637,0.14446 -4.0357,0.0314 z m 16.62644,-10.799945 c -0.63656,-0.327586 -0.997,-0.821104 -1.11772,-1.530409 -0.31056,-1.824907 1.47707,-1.557234 2.29478,0.343608 0.54412,1.264832 0.0138,1.799606 -1.17706,1.186801 z m 6.17595,-2.348162 c -0.52615,-0.497115 -0.72661,-0.809366 -0.72661,-1.131837 0,-1.24504 1.52501,-0.764961 2.17934,0.686082 0.58718,1.30214 -0.26848,1.564681 -1.45273,0.445755 z M 233.98549,76.991715 c -0.68839,-0.688388 0.55252,-2.494184 1.4716,-2.141493 0.32864,0.126109 0.48039,0.847466 0.2737,1.301083 -0.29739,0.652707 -1.40139,1.184319 -1.7453,0.84041 z m 26.25508,45.910655 c 0.43518,-0.1383 0.92032,-0.43983 1.15352,-0.71698 1.336,-1.58775 -1.05688,-3.62335 -4.05065,-3.44583 l -0.81817,0.0486 0.7256,0.933 c 0.74579,0.95894 1.20448,2.1342 1.20448,3.08614 0,0.52507 0.0149,0.53766 0.51709,0.43723 0.28438,-0.0568 0.85505,-0.2108 1.26813,-0.34208 z m 10.23899,-39.238518 c -0.21708,-1.357499 -0.98276,-2.939491 -2.0208,-4.175183 -1.18527,-1.410968 -2.22395,-2.173905 -3.58255,-2.63149 -0.90264,-0.304014 -2.54156,-0.390642 -2.64422,-0.139776 -0.0647,0.158239 8.06911,7.748644 8.21313,7.664369 0.075,-0.04388 0.0906,-0.36698 0.0345,-0.71792 z m 11.13652,43.081228 c -0.52545,-1.25757 -1.14942,-1.92509 -2.41897,-2.58772 l -1.23041,-0.64221 1.10322,-0.55843 c 1.30268,-0.65937 1.77988,-1.13476 2.4149,-2.40572 l 0.47059,-0.94186 0.51438,0.96508 c 0.67048,1.25795 1.22855,1.81046 2.39386,2.37003 0.52445,0.25181 0.954,0.49366 0.95456,0.53742 6e-4,0.0438 -0.50396,0.35458 -1.12117,0.69074 -1.16359,0.6337 -1.73859,1.25429 -2.28509,2.46623 -0.16407,0.36385 -0.35808,0.66154 -0.43113,0.66154 -0.073,0 -0.23717,-0.2498 -0.36474,-0.5551 z m -6.42968,-7.78345 c -0.25651,-0.48353 -0.59016,-0.81718 -1.07369,-1.07369 -0.38583,-0.20468 -0.70152,-0.41729 -0.70152,-0.47246 0,-0.0551 0.21513,-0.1894 0.47805,-0.29831 0.5321,-0.22041 1.34695,-1.07463 1.50744,-1.58028 0.0573,-0.18078 0.16627,-0.32868 0.24198,-0.32868 0.0757,0 0.1846,0.1479 0.24198,0.32868 0.16049,0.50565 0.97534,1.35987 1.50744,1.58028 0.26293,0.10896 0.47804,0.24315 0.47804,0.29831 0,0.0551 -0.31568,0.26778 -0.70151,0.47246 -0.48353,0.25651 -0.81718,0.59016 -1.07369,1.07369 -0.20468,0.38583 -0.40821,0.70152 -0.45226,0.70152 -0.044,0 -0.24757,-0.31569 -0.45226,-0.70152 z m 7.36979,-3.92036 c -0.32057,-0.71088 -0.96525,-1.33766 -1.8702,-1.81827 -0.32582,-0.17303 -0.59219,-0.35203 -0.59194,-0.39777 2.4e-4,-0.0457 0.41194,-0.29793 0.91485,-0.56045 0.74453,-0.38865 1.01547,-0.64875 1.4585,-1.40013 l 0.5441,-0.92281 0.49008,0.91269 c 0.41731,0.77716 0.64005,0.99438 1.5,1.46271 l 1.00992,0.55001 -0.74311,0.35814 c -0.94427,0.4551 -1.39167,0.87835 -1.85835,1.75805 -0.20485,0.38615 -0.41541,0.70209 -0.46789,0.70209 -0.0525,0 -0.22618,-0.28991 -0.38596,-0.64426 z m -70.38142,-3.60586 c -0.23245,-0.56119 -0.84922,-1.17696 -1.52168,-1.51924 l -0.46858,-0.23849 0.68055,-0.34718 c 0.3743,-0.19096 0.79995,-0.56288 0.94589,-0.82651 0.57279,-1.03468 0.57311,-1.03476 1.04069,-0.2369 0.283,0.48291 0.6729,0.77256 1.08468,1.06972 0.19816,0.143 0.65303,0.33315 0.65303,0.33315 l -0.6154,0.3452 c -0.54828,0.30754 -0.8664,0.66825 -1.42963,1.62102 -0.15128,0.2559 -0.18884,0.23549 -0.36955,-0.20077 z m 3.6554,-5.00357 c -0.29581,-0.84855 -0.95898,-1.56371 -1.85967,-2.00544 -0.47301,-0.232 -0.86003,-0.4641 -0.86003,-0.5158 0,-0.0517 0.2327,-0.17836 0.51709,-0.28146 0.78147,-0.2833 1.6006,-1.03315 2.02053,-1.84959 0.20696,-0.40242 0.43161,-0.73166 0.49923,-0.73166 0.0676,0 0.28828,0.33111 0.49039,0.73579 0.40794,0.81679 1.21391,1.55989 2.00165,1.84546 0.2844,0.10311 0.51709,0.23244 0.51709,0.2874 0,0.055 -0.35623,0.2668 -0.79161,0.47074 -0.89948,0.42127 -1.20399,0.72207 -1.81388,1.79174 -0.237,0.41565 -0.45668,0.75574 -0.4882,0.75574 -0.0315,0 -0.13617,-0.22631 -0.23259,-0.50292 z"
     id="path1-4" /></svg>
