<?xml version="1.0" encoding="UTF-8" standalone="no"?>
<svg
   width="492"
   height="302"
   fill="none"
   version="1.1"
   id="svg14"
   sodipodi:docname="holding_chameleon.svg"
   inkscape:version="1.3.2 (091e20e, 2023-11-25, custom)"
   xmlns:inkscape="http://www.inkscape.org/namespaces/inkscape"
   xmlns:sodipodi="http://sodipodi.sourceforge.net/DTD/sodipodi-0.dtd"
   xmlns="http://www.w3.org/2000/svg"
   xmlns:svg="http://www.w3.org/2000/svg">
  <defs
     id="defs14" />
  <sodipodi:namedview
     id="namedview14"
     pagecolor="#505050"
     bordercolor="#eeeeee"
     borderopacity="1"
     inkscape:showpageshadow="0"
     inkscape:pageopacity="0"
     inkscape:pagecheckerboard="0"
     inkscape:deskcolor="#505050"
     inkscape:zoom="2.2987805"
     inkscape:cx="246"
     inkscape:cy="151.16711"
     inkscape:window-width="1920"
     inkscape:window-height="1017"
     inkscape:window-x="-8"
     inkscape:window-y="-8"
     inkscape:window-maximized="1"
     inkscape:current-layer="svg14" />
  <style
     id="style1"><![CDATA[.B{stroke:#fff}.C{stroke-width:2}.D{stroke-linecap:round}]]></style>
  <path
     d="M4.275 22.667 43.442 43.5m11.064 5.84 70.849 38.007m16.235 8.856-5.535-3.321m15.867 8.487 41.328 22.14m51.66 48.709v90.775m.371 5.166v27.675M1 64.838l192.989 68.634M1 108.011l200.738 36.163M1 159.303l93.358-2.952m13.285-.369 98.155-3.321M10.225 218.343l11.439-3.321m12.178-2.952 104.797-30.258M1 287.347l39.483-21.771m35.423-19.558 140.222-79.705m-97.784 112.916 13.653-13.653m5.165-4.797 64.945-64.945m-13.285 85.978 7.749-18.082m1.847-3.689 33.21-77.491M86.978 11.701l67.897 60.148m4.797 4.059 32.472 29.151m-41.697-93.727 49.816 73.432m4.796-77.491 4.428 15.498m1.107 5.166 10.701 37.27M245.65 1v64.945m241.125-43.278L447.609 43.5m-10.816 5.84-70.849 38.007m-16.237 8.856 5.535-3.321m-15.867 8.487-41.328 22.14m192.252-58.671L297.31 133.472m192.989-25.461-200.738 36.163m200.738 15.129-93.358-2.952m-13.285-.369-98.155-3.321m195.573 65.682-11.439-3.321m-11.809-3.321-106.642-30.627m139.115 106.273-39.484-21.771m-35.424-20.296-140.96-78.967m98.526 112.916-13.653-13.653m-4.429-4.797-64.945-64.207m12.547 85.24-7.75-18.082m-1.846-3.689-33.21-77.491M404.32 11.701 336.424 71.85m-4.797 4.058-32.472 29.151m41.697-93.727-49.816 73.432m-4.798-77.491L281.81 22.77m-1.105 5.167-10.701 37.27M245.65 1v64.945"
     class="B C D"
     id="path1" />
  <circle
     cx="49.338"
     cy="118.343"
     r="26.568"
     fill="#fff"
     id="circle1" />
  <circle
     cx="443.759"
     cy="113.232"
     r="20.771"
     class="B C"
     id="circle2" />
  <circle
     cx="126.459"
     cy="46.388"
     r="15.129"
     fill="#000"
     id="circle3" />
  <circle
     cx="431.26"
     cy="248.563"
     r="30.627"
     fill="#9c9c9c"
     id="circle4" />
  <circle
     cx="362.551"
     cy="88.595"
     fill="#000"
     r="10.332"
     id="circle5" />
  <path
     d="m 370.73372,25.050682 a 9.332,9.332 0 0 1 -18.664,0 9.332,9.332 0 0 1 18.664,0 z"
     id="path5"
     style="stroke:#ffffff;stroke-width:2" />
  <circle
     cx="62.098"
     cy="253.923"
     r="13.76"
     id="circle6"
     style="stroke:#ffffff;stroke-width:2" />
  <circle
     cx="248.098"
     cy="115.624"
     r="59.274"
     fill="#fff"
     id="circle7" />
  <path
     d="M232.421 243.805L209.911 301h-52.768c4.674-6.888 14.318-21.328 15.499-23.985s-1.23-6.765-2.584-8.487l-22.14-32.472c-3.837-6.2-4.305-15.13-4.059-18.82l.738-66.789c0-4.133 1.968-5.658 2.952-5.904l-.738-8.487c0-1.723.96-5.314 4.797-5.905s5.781 2.706 6.273 4.428l8.487 40.222c.591 3.542 3.69 7.872 5.167 9.594l12.546 11.439 21.033 18.081c3.247-3.542 3.567-7.38 3.321-8.856l-3.321-20.664c-.738-3.198-.812-10.037 4.797-11.808s8.733 2.46 9.594 4.797l12.916 50.922c2.361 8.856.984 14.023 0 15.499z"
     fill="#1a1a1a"
     id="path7" />
  <g
     class="B C"
     id="g10">
    <g
       class="D"
       id="g9">
      <path
         d="M209.911 301l22.51-57.195c.984-1.476 2.361-6.642 0-15.499l-12.916-50.922c-.861-2.337-3.985-6.568-9.594-4.797s-5.535 8.61-4.797 11.808l3.321 20.664c.246 1.476-.074 5.314-3.321 8.856l-21.033-18.081-12.546-11.439c-1.477-1.722-4.576-6.052-5.167-9.594s-5.904-28.29-8.487-40.222c-.492-1.722-2.435-5.018-6.273-4.428s-4.797 4.182-4.797 5.905l.738 8.487c-.984.246-2.952 1.771-2.952 5.904l-.738 66.789c-.246 3.69.222 12.62 4.059 18.82s16.359 24.231 22.14 32.472c1.354 1.722 3.764 5.83 2.584 8.487S161.817 294.112 157.143 301m-8.486-156.826c2.214-.738 6.716-.369 7.011 5.535l1.476 35.793.738 14.022c.123 1.722 1.107 6.273 4.059 10.702s11.562 18.573 15.498 25.092"
         id="path8" />
      <path
         d="M156.406 165.207c0-1.968-1.181-5.904-5.904-5.904s-5.904 3.936-5.904 5.904m23.246 25.092-2.952 18.82"
         id="path9" />
    </g>
    <path
       d="M198.102 222.034c1.476-3.248 5.289-6.765 7.011-8.118l-10.701-9.226-1.403 36.472a26.62 26.62 0 0 0-.073 1.905l.073-1.905c.498-6.807 3.41-15.425 5.093-19.128z"
       fill="#fff"
       id="path10" />
  </g>
  <path
     d="M258.304 243.805L280.813 301h52.768c-4.674-6.888-14.317-21.328-15.498-23.985s1.23-6.765 2.583-8.487l22.14-32.472c3.838-6.2 4.305-15.13 4.059-18.82l-.738-66.789c0-4.133-1.968-5.658-2.952-5.904l.738-8.487c0-1.723-.959-5.314-4.797-5.905s-5.781 2.706-6.273 4.428l-8.487 40.222c-.59 3.542-3.69 7.872-5.166 9.594l-12.546 11.439-21.033 18.081c-3.247-3.542-3.567-7.38-3.321-8.856l3.321-20.664c.738-3.198.812-10.037-4.797-11.808s-8.733 2.46-9.594 4.797l-12.916 50.922c-2.362 8.856-.984 14.023 0 15.499z"
     fill="#1a1a1a"
     id="path11" />
  <g
     class="B C"
     id="g14">
    <g
       class="D"
       id="g13">
      <path
         d="M280.813 301l-22.509-57.195c-.984-1.476-2.362-6.642 0-15.499l12.916-50.922c.861-2.337 3.985-6.568 9.594-4.797s5.535 8.61 4.797 11.808l-3.321 20.664c-.246 1.476.074 5.314 3.321 8.856l21.033-18.081 12.546-11.439c1.476-1.722 4.576-6.052 5.166-9.594s5.904-28.29 8.487-40.222c.492-1.722 2.436-5.018 6.273-4.428s4.797 4.182 4.797 5.905l-.738 8.487c.984.246 2.952 1.771 2.952 5.904l.738 66.789c.246 3.69-.221 12.62-4.059 18.82s-16.359 24.231-22.14 32.472c-1.353 1.722-3.764 5.83-2.583 8.487s10.824 17.097 15.498 23.985m8.486-156.826c-2.214-.738-6.715-.369-7.011 5.535l-1.476 35.793-.738 14.022c-.123 1.722-1.107 6.273-4.059 10.702s-11.562 18.573-15.498 25.092"
         id="path12" />
      <path
         d="M334.32 165.207c0-1.968 1.181-5.904 5.904-5.904s5.904 3.936 5.904 5.904m-23.247 25.092l2.952 18.82"
         id="path13" />
    </g>
    <path
       d="M292.622 222.034c-1.476-3.248-5.289-6.765-7.011-8.118l10.701-9.226 1.403 36.472c.048.653.073 1.29.073 1.905l-.073-1.905c-.497-6.807-3.409-15.425-5.093-19.128Z"
       fill="#fff"
       id="path14" />
  </g>
  <path
     style="fill:#000000"
     d="m 245.95585,159.18615 c -2.31979,-0.30554 -6.19936,-1.20957 -8.24467,-1.9212 -3.41814,-1.18927 -7.93334,-3.93532 -10.73887,-6.53117 -2.18367,-2.02045 -3.82226,-3.9763 -5.02425,-5.99702 -2.07858,-3.49438 -2.58896,-4.57415 -3.10132,-6.5613 -0.6568,-2.54732 -0.79533,-3.70167 -0.79998,-6.66609 l -0.004,-2.69434 0.41762,-1.01699 c 0.22969,-0.55935 0.41762,-1.12746 0.41762,-1.26246 0,-0.14019 -0.21403,-0.48352 -0.49901,-0.80049 -1.14828,-1.27716 -1.02638,-2.90072 0.33116,-4.41062 0.62751,-0.69795 1.95567,-1.73303 3.23563,-2.52163 0.54623,-0.33654 1.02277,-0.65983 1.05898,-0.71843 0.0362,-0.0586 -0.0347,-0.26282 -0.15751,-0.45384 -0.12285,-0.19101 -0.37536,-0.65418 -0.56114,-1.02927 -0.29918,-0.60402 -0.33165,-0.75835 -0.28414,-1.35033 0.0948,-1.18056 0.64942,-1.92015 1.91444,-2.55276 0.38529,-0.19268 1.78362,-0.70748 3.10739,-1.144 1.32378,-0.43652 2.5248,-0.85547 2.66893,-0.93099 l 0.26208,-0.13731 -0.71073,-1.02003 c -1.32016,-1.89468 -2.04799,-3.61667 -2.52488,-5.97368 -0.13148,-0.64987 -0.27929,-1.28739 -0.32845,-1.4167 -0.0492,-0.12931 -0.41399,-0.59181 -0.81071,-1.02778 -0.89086,-0.97896 -1.89774,-2.481659 -2.19475,-3.275489 -0.19839,-0.53024 -0.22312,-0.83372 -0.2217,-2.72128 0.002,-2.427375 0.10574,-3.047808 0.7124,-4.253391 1.24754,-2.479158 2.81801,-3.759179 5.97061,-4.866386 1.33461,-0.468721 1.89125,-0.764742 2.18629,-1.162666 l 0.21539,-0.2905 -0.38536,-1.649422 c -0.48106,-2.059053 -0.55579,-2.744414 -0.40306,-3.69619 0.43488,-2.710008 2.48296,-4.993351 5.55686,-6.195185 1.50638,-0.588965 2.18611,-0.72932 4.20615,-0.868503 3.17752,-0.218936 5.71786,0.10836 8.83016,1.137671 2.61794,0.865816 4.91204,1.950983 7.37971,3.490793 0.681,0.424937 1.35015,0.800717 1.48701,0.835066 0.13685,0.03435 0.76787,-0.04967 1.40227,-0.186698 2.26155,-0.488509 3.8257,-0.267429 5.99405,0.847215 4.00993,2.061313 6.42172,5.875756 6.42172,10.156487 v 1.052644 l 1.64354,1.517603 c 2.68176,2.47626 3.50426,3.558512 3.97886,5.235452 0.21102,0.74563 0.24431,1.10818 0.2379,2.5913 -0.008,1.934849 -0.21789,3.197549 -0.80814,4.870109 -1.6183,4.58567 -5.91834,9.2865 -10.77825,11.78287 -0.83796,0.43043 -3.49865,1.50685 -3.72463,1.50685 -0.1504,0 0.0609,0.49893 0.56093,1.32436 0.32686,0.53958 0.6459,1.17274 0.70898,1.40702 0.0631,0.23427 0.0988,1.02079 0.0793,1.74781 l -0.0354,1.32186 0.86219,0.23426 c 2.90698,0.78983 5.77385,2.41052 7.81638,4.41871 1.86254,1.83123 3.06566,3.87919 4.15264,7.06868 0.3835,1.12529 0.40295,1.25192 0.45108,2.93712 0.13094,4.58514 -0.82738,7.9152 -3.19016,11.0854 -0.83723,1.12333 -3.14447,3.45953 -4.43402,4.48967 -4.49727,3.5926 -10.16321,5.75504 -16.27379,6.21099 -1.36663,0.10197 -7.322,0.12734 -8.02913,0.0342 z m 6.19698,-3.37282 c 3.28036,-0.13039 5.02879,-0.43882 8.08301,-1.42588 4.84183,-1.56476 8.72125,-4.18913 11.32918,-7.66399 2.03759,-2.71493 2.88914,-5.16519 2.89478,-8.32941 0.004,-2.0461 -0.38717,-3.66 -1.32696,-5.47969 -1.84158,-3.56584 -5.82437,-6.41858 -9.56981,-6.85454 -1.53644,-0.17884 -3.90063,-0.0747 -4.88991,0.21543 -3.39189,0.9947 -6.55924,3.81871 -7.72243,6.88533 l -0.35478,0.93535 -0.003,2.0477 c -0.003,2.20975 0.0624,2.65712 0.58811,4.02035 0.85211,2.2096 3.21703,4.62081 5.44445,5.55102 0.78619,0.32833 2.11294,0.61322 2.85577,0.61322 2.03075,0 4.22829,-1.05877 5.88945,-2.83753 1.30532,-1.39772 1.79453,-2.61492 1.80813,-4.49878 0.008,-1.13168 0.005,-1.14558 -0.45311,-2.07076 -1.15717,-2.33631 -3.58475,-3.6888 -5.73264,-3.19387 -0.77094,0.17765 -1.74347,0.69504 -2.25035,1.19721 -0.70618,0.69961 -0.87808,1.11361 -0.87808,2.11484 0,1.93567 0.72929,2.66082 2.67599,2.66082 0.87761,0 0.90477,-0.008 1.21245,-0.35196 0.22028,-0.24635 0.31473,-0.4647 0.31473,-0.72765 0,-0.32736 -0.0693,-0.42549 -0.53887,-0.76283 -0.29638,-0.21292 -0.53887,-0.4163 -0.53887,-0.45196 0,-0.0357 0.13032,-0.20084 0.2896,-0.36709 0.50011,-0.52201 1.46911,-0.34217 2.23264,0.41436 0.44396,0.43989 0.60328,0.89774 0.60259,1.73175 -9.6e-4,1.16403 -0.1406,1.50082 -0.95531,2.30398 -0.88055,0.86807 -1.59609,1.18093 -2.87339,1.25638 -2.18064,0.1288 -4.2398,-1.06566 -5.16488,-2.99599 -1.24256,-2.59278 -0.77599,-5.00266 1.38845,-7.17151 1.47762,-1.48063 2.85222,-2.04962 5.23714,-2.1678 1.64153,-0.0813 2.72119,0.12597 4.05765,0.77914 2.29973,1.12395 4.22824,3.72138 4.57344,6.15977 0.13512,0.95447 0.0543,2.83664 -0.16812,3.91591 -0.75212,3.64929 -3.54975,6.5398 -7.61799,7.87093 -1.84048,0.60221 -3.19024,0.78258 -5.91276,0.79016 -1.44904,0.004 -2.83693,-0.0502 -3.44875,-0.1347 -5.14533,-0.71089 -9.4396,-2.36958 -12.28617,-4.74564 -1.37565,-1.14826 -4.32589,-3.91556 -4.76026,-4.46508 -0.51393,-0.65017 -0.55966,-0.96895 -0.0812,-0.5664 0.42508,0.35769 0.72422,0.42845 1.50997,0.3572 0.76002,-0.0689 1.79473,-0.53285 2.43759,-1.09295 0.6413,-0.55874 1.69102,-1.98804 2.21428,-3.01496 l 0.44534,-0.874 0.0789,0.53887 c 0.0434,0.29638 0.13396,1.57976 0.2013,2.85197 0.13061,2.46766 0.30461,3.75419 0.57967,4.28611 0.25369,0.49057 0.81306,1.00583 1.36089,1.25357 0.99491,0.44991 3.51744,0.20083 3.92991,-0.38806 0.10637,-0.15186 0.16669,-0.47693 0.16669,-0.89835 0,-0.55372 -0.0492,-0.72826 -0.30458,-1.0807 -0.71418,-0.98555 -1.40696,-1.23208 -2.37449,-0.84495 -0.25042,0.1002 -0.47599,0.1615 -0.50126,0.13622 -0.0253,-0.0253 0.0771,-0.40721 0.22742,-0.84873 0.66566,-1.95477 0.92027,-4.23534 0.6995,-6.26561 -0.21406,-1.96849 -0.52331,-2.66911 -1.45429,-3.2947 -0.81495,-0.54763 -1.54238,-0.71891 -2.41089,-0.56767 -1.51666,0.26412 -3.52687,1.18742 -4.99969,2.29638 -0.98334,0.74041 -2.89266,2.69282 -3.58011,3.6609 -0.28413,0.40011 -0.55991,0.72747 -0.61285,0.72747 -0.17668,0 -0.23698,-0.54876 -0.16193,-1.47368 0.16046,-1.97755 0.73739,-3.07796 2.59424,-4.9481 1.12178,-1.12981 1.42232,-1.36824 2.26633,-1.79796 1.7588,-0.89548 2.41998,-1.0604 4.51816,-1.12702 l 1.83739,-0.0583 1.37411,0.72439 c 0.84628,0.44613 1.37263,0.66901 1.37027,0.58021 -0.002,-0.0793 -0.0741,-0.43516 -0.15998,-0.79081 -0.0859,-0.35565 -0.15689,-0.8824 -0.15782,-1.17056 l -0.002,-0.52392 -0.35026,0.0603 c -0.19265,0.0332 -1.35282,0.11988 -2.57815,0.19269 -2.6319,0.15638 -3.1926,0.0848 -3.72405,-0.47533 -0.7365,-0.77627 -0.87595,-1.54418 -0.6892,-3.79518 0.10015,-1.20717 0.41502,-2.76284 0.62942,-3.10974 0.13697,-0.22163 0.23292,0.39606 0.35123,2.26118 0.13707,2.16098 0.26294,3.04135 0.46351,3.24191 0.20706,0.20706 2.96675,0.2902 5.03531,0.1517 1.47186,-0.0985 2.0661,-0.1934 3.44875,-0.55048 0.91877,-0.23728 1.70686,-0.43151 1.75132,-0.43164 0.16646,-4.6e-4 0.0653,0.21092 -0.49616,1.03696 -0.76812,1.13003 -0.93184,1.46692 -0.93184,1.91745 0,0.73467 0.83351,0.81724 2.06016,0.20409 0.59667,-0.29824 1.04078,-0.64214 1.77456,-1.37411 0.85445,-0.85234 1.00416,-1.05842 1.17901,-1.62295 0.30588,-0.98759 0.26244,-1.93566 -0.12129,-2.64703 -0.45298,-0.83973 -1.04347,-1.24977 -1.93771,-1.34553 -0.90738,-0.0972 -3.54248,0.0238 -4.94854,0.22723 -1.33795,0.19355 -2.95879,0.61742 -3.64551,0.95335 -0.78738,0.38518 -0.78845,0.27119 -0.0241,-2.56355 0.49262,-1.82705 0.57998,-1.9038 0.69824,-0.61352 0.0379,0.4133 0.10512,0.78769 0.14942,0.83199 0.0443,0.0443 0.26088,0.0258 0.4813,-0.0411 0.81072,-0.246 3.92455,-1.3233 4.08595,-1.41362 0.12407,-0.0694 -0.0498,-0.18222 -0.68157,-0.44196 -2.81833,-1.1588 -3.81193,-1.63976 -3.81193,-1.84517 0,-0.0522 0.12878,-0.0459 0.28617,0.0139 0.63229,0.2404 3.28918,0.34248 7.41963,0.28508 l 4.20317,-0.0584 1.72437,-0.48423 c 4.97354,-1.39666 8.50863,-3.34982 11.53619,-6.37383 2.19283,-2.19026 3.57465,-4.29979 4.25109,-6.48986 0.1431,-0.46328 0.18484,-0.75547 0.11754,-0.82277 -0.0673,-0.0673 -0.6684,0.15461 -1.69261,0.62487 -2.84792,1.30761 -6.82711,2.427 -9.47017,2.66408 -1.90714,0.17107 -10.73744,0.041 -12.12452,-0.17862 -2.84019,-0.44966 -4.39131,-0.9099 -6.14309,-1.82277 -2.26729,-1.18152 -2.48255,-1.27346 -3.1162,-1.33091 -0.77759,-0.0705 -1.67012,0.11686 -2.18933,0.45961 -0.57336,0.37849 -0.66304,0.34957 -0.57737,-0.18618 0.1159,-0.72477 0.66042,-1.37755 1.49675,-1.794309 0.39702,-0.19784 0.72186,-0.42161 0.72186,-0.49727 0,-0.0757 -0.33697,-0.83524 -0.74881,-1.68798 -0.84055,-1.74039 -1.06349,-2.45586 -1.15472,-3.705893 -0.0791,-1.083208 0.12079,-2.975935 0.39986,-3.78709 0.68683,-1.996304 2.56147,-4.122982 4.45308,-5.051777 1.52448,-0.748533 2.06449,-0.854566 4.32529,-0.84929 2.24071,0.0052 2.91079,0.128536 4.34127,0.798882 3.90064,1.827903 6.17099,5.010406 6.16523,8.642242 -0.002,1.194456 -0.32711,2.705506 -0.78896,3.665736 -0.40364,0.83919 -1.48374,2.18937 -2.21429,2.76799 -0.45347,0.359149 -2.19364,1.133509 -2.39582,1.066119 -0.0609,-0.0203 0.31691,-0.32403 0.83964,-0.67493 1.3668,-0.917499 2.59843,-2.188069 3.09103,-3.188739 0.55729,-1.13208 0.74583,-2.13617 0.68699,-3.658576 -0.0549,-1.421616 -0.24016,-2.023982 -0.97122,-3.158681 -0.45525,-0.706601 -1.70909,-2.09322 -2.15985,-2.388567 -0.20748,-0.135947 -0.29569,-0.136442 -0.6683,-0.0038 -0.2361,0.08408 -0.52975,0.154994 -0.65256,0.157596 -1.21004,0.02564 -2.34973,1.274814 -2.14935,2.355828 0.18917,1.020557 0.954,1.581553 2.15709,1.582217 0.93492,5.17e-4 1.5233,-0.307843 2.14012,-1.121596 0.22866,-0.301662 0.45237,-0.548476 0.49713,-0.548476 0.11126,0 0.71119,1.24766 0.85507,1.778262 0.14699,0.542099 0.14786,1.8949 0.002,2.532673 -0.60015,2.61739 -3.20537,4.63575 -5.64204,4.37109 -1.0996,-0.11943 -2.43708,-0.47852 -3.26432,-0.8764 l -0.78688,-0.37848 0.64781,-0.59975 c 0.53343,-0.49386 0.6478,-0.66098 0.6478,-0.94656 0,-0.62907 -0.71531,-1.06048 -1.27686,-0.77009 -0.29217,0.15109 -0.77083,0.91365 -0.77083,1.22803 0,0.38395 -0.6672,-0.16124 -1.19311,-0.97493 -0.53188,-0.82292 -0.76502,-1.83968 -0.76038,-3.316149 0.006,-1.766216 0.24379,-2.687301 0.96806,-3.742783 0.54016,-0.787175 1.40304,-1.621777 2.19074,-2.118947 1.23553,-0.779816 0.75964,-0.803869 -0.9624,-0.04864 -1.6662,0.730739 -2.9546,1.860021 -4.03806,3.539357 -0.84849,1.315142 -0.97038,1.8767 -0.92843,4.277372 l 0.0354,2.02738 0.36562,0.64664 c 0.52319,0.92529 1.21444,1.79211 1.88812,2.36765 1.76324,1.506379 4.56268,2.420259 8.41583,2.747349 1.68211,0.14279 6.96335,0.14311 8.74095,5.3e-4 1.96126,-0.15731 5.47789,-0.88752 8.1256,-1.68724 1.10438,-0.33357 3.58985,-1.453349 4.44281,-2.001619 0.78954,-0.50751 0.84943,-0.7249 0.46771,-1.69782 -0.53876,-1.37321 -1.06174,-1.92826 -4.80275,-5.097256 -2.14365,-1.81588 -4.76381,-4.098776 -8.66227,-7.547285 -2.92285,-2.585495 -5.29426,-4.320304 -7.55763,-5.52881 -4.30658,-2.299454 -7.70347,-3.271855 -11.42958,-3.271855 -1.71868,0 -2.72031,0.116291 -3.87425,0.449808 -1.59178,0.460062 -3.06683,1.502334 -3.59708,2.541701 -0.30804,0.603817 -0.5522,1.574097 -0.5522,2.194422 0,0.278512 0.1769,1.104914 0.3931,1.836449 0.27108,0.917183 0.40904,1.623723 0.44442,2.276066 0.0485,0.893153 0.0325,0.984203 -0.28532,1.629812 -0.61925,1.257867 -1.51608,1.860666 -3.94872,2.654113 -1.86759,0.609145 -2.55566,0.971553 -3.34478,1.761709 -0.79086,0.791908 -1.24903,1.689191 -1.57398,3.082563 l -0.22975,0.985123 0.24137,0.99063 c 0.13275,0.54485 0.34239,1.22732 0.46586,1.51659 l 0.2245,0.52596 0.3113,-1.1726 c 0.59807,-2.25271 1.67824,-4.110568 3.29595,-5.668884 0.95176,-0.916822 1.78855,-1.472795 3.91366,-2.600292 l 1.147,-0.608554 0.6047,-1.067981 c 2.15991,-3.814712 5.63613,-6.441165 9.5155,-7.189422 1.21464,-0.23428 4.26997,-0.266073 5.4223,-0.05642 2.60523,0.473986 4.76482,1.640923 6.79626,3.672366 1.24454,1.244536 2.85803,3.536525 2.64182,3.752734 -0.0681,0.06808 -0.10554,0.03895 -1.30118,-1.011511 -1.78982,-1.572485 -2.71746,-2.161131 -4.79592,-3.043304 -1.41941,-0.602447 -2.08803,-0.758464 -3.80868,-0.888726 -1.84611,-0.13976 -3.9876,0.0048 -5.084,0.343268 -1.70209,0.525395 -3.60914,1.707065 -4.77304,2.957521 -1.00663,1.081493 -2.17698,3.130499 -2.17698,3.811377 0,0.347031 -0.39971,0.571505 -1.69394,0.9513 -2.10495,0.617705 -3.52917,1.480693 -4.79408,2.904922 -1.01428,1.142015 -1.90185,2.874266 -2.31787,4.523716 -0.14526,0.57596 -0.18728,1.21663 -0.18987,2.895109 -0.003,2.02982 0.0138,2.21558 0.2911,3.1867 0.66838,2.34103 1.50573,3.77833 3.09213,5.30763 2.20067,2.12145 4.50092,3.10852 8.32525,3.57248 0.75106,0.0911 1.44188,0.19496 1.53515,0.23075 0.27181,0.1043 0.10328,0.22754 -0.41808,0.30572 -0.26608,0.0399 -0.51063,0.11598 -0.54344,0.16907 -0.065,0.10521 0.47122,0.26773 1.24925,0.37861 1.01036,0.14398 0.92657,0.50329 -0.14819,0.63545 -2.22651,0.27378 -9.56054,0.50353 -9.56054,0.2995 0,-0.12581 0.47405,-0.27479 1.27668,-0.40123 0.2576,-0.0406 0.42734,-0.10875 0.3772,-0.1515 -0.14708,-0.12538 -2.8699,-1.33682 -3.00464,-1.33682 -0.28692,0 -2.23284,1.46518 -3.26824,2.46083 -3.04302,2.92617 -5.50608,7.09177 -6.69333,11.31996 -0.46723,1.66396 -0.6765,3.15165 -0.67409,4.79217 0.003,2.28404 0.44518,5.5964 0.94517,7.08585 0.65171,1.94138 2.2313,4.98232 3.36135,6.47108 0.75907,1.00001 3.58933,3.85581 4.71613,4.75869 2.61534,2.0956 6.00766,3.8822 9.49924,5.00285 2.01158,0.64563 5.2061,1.38938 6.45123,1.50198 0.87406,0.079 3.08499,0.0665 5.55034,-0.0315 z m -25.4134,-11.8882 c -0.50991,-0.5261 -0.43198,-1.15343 0.14329,-1.15343 0.40509,0 0.99352,0.85106 0.84894,1.22784 -0.0488,0.12711 -0.35746,0.27383 -0.58808,0.27951 -0.0328,8.1e-4 -0.21469,-0.15845 -0.40415,-0.35392 z m -2.54914,-3.24054 c -0.60081,-0.60081 -1.02852,-1.88829 -1.02852,-3.096 0,-0.79792 0.014,-0.84481 0.33159,-1.11206 0.63114,-0.53108 1.31525,-0.25049 1.81139,0.74294 0.73694,1.47559 0.71959,2.88668 -0.0429,3.48644 -0.38586,0.30351 -0.75408,0.29619 -1.07159,-0.0213 z m 2.57699,-6.47598 c -0.30251,-0.30251 -0.33664,-0.68447 -0.10176,-1.13868 0.32635,-0.63109 0.99128,-0.68747 1.29021,-0.10941 0.22826,0.44141 0.21142,1.11263 -0.0335,1.33426 -0.2949,0.26687 -0.84281,0.22599 -1.15498,-0.0862 z m -3.60185,-1.75639 c -0.60263,-0.304 -0.81231,-0.78523 -0.80996,-1.85892 0.002,-0.73862 0.0508,-1.01601 0.25401,-1.43195 0.28421,-0.58177 0.8771,-1.04684 1.33456,-1.04684 0.42401,0 1.22671,0.81564 1.32657,1.34797 0.22078,1.17683 -0.26622,2.67223 -0.98065,3.01125 -0.45209,0.21454 -0.66467,0.21047 -1.12453,-0.0215 z m 4.38133,-3.7778 c -0.71297,-0.74418 0.0178,-1.99983 0.89166,-1.53215 0.48378,0.25891 0.46851,1.32467 -0.0239,1.66959 -0.33843,0.23704 -0.53948,0.2052 -0.86774,-0.13744 z m -1.97533,-4.4853 c -1.2278,-0.54312 -0.1293,-3.21549 1.15428,-2.8081 0.4916,0.15603 0.70076,1.44041 0.35368,2.17184 -0.3001,0.6324 -0.92277,0.89513 -1.50796,0.63626 z m 4.91893,-5.74256 c -0.39753,-0.14532 -0.64664,-0.50237 -0.64664,-0.92682 0,-0.35987 0.0736,-0.50003 0.4708,-0.89729 0.53692,-0.53692 0.99398,-0.62262 1.36135,-0.25525 0.27185,0.27185 0.30038,1.23198 0.0473,1.59324 -0.29145,0.41609 -0.8365,0.63101 -1.23286,0.48612 z m 5.40487,-3.07481 c -0.31711,-0.046 -0.65591,-0.12801 -0.75289,-0.18229 -0.33233,-0.18598 0.38862,-0.25792 1.8718,-0.18679 1.39423,0.0669 2.12067,0.19915 1.77478,0.32317 -0.28166,0.101 -2.29364,0.13291 -2.89369,0.0459 z m -3.46495,-1.75277 c 0,-0.11291 0.11377,-0.16166 0.37721,-0.16166 0.39035,0 0.50526,0.14334 0.20673,0.2579 -0.30252,0.11609 -0.58394,0.0697 -0.58394,-0.0962 z m 20.04587,-5.3374 c -2.36441,-0.32665 -4.56352,-1.12388 -6.0943,-2.20931 -0.65017,-0.46102 -1.87741,-1.68967 -2.09635,-2.09876 -0.21688,-0.40526 0.22155,-0.23974 2.80769,1.05997 1.39611,0.70164 2.89155,1.41067 3.32321,1.57561 1.04892,0.40082 3.39806,1.07052 4.57116,1.30316 0.62819,0.12458 0.91253,0.22431 0.84165,0.2952 -0.14364,0.14363 -2.47661,0.19522 -3.35306,0.0741 z m 14.92662,-9.714469 c -0.76572,-0.42163 -1.2093,-1.20395 -1.07876,-1.90254 0.0928,-0.49643 0.23009,-0.66656 0.53805,-0.66656 0.25271,0 0.97702,0.44195 1.21496,0.74132 0.50441,0.63461 0.72053,1.53898 0.43582,1.82369 -0.1607,0.16071 -0.82122,0.16314 -1.11007,0.004 z m 6.00368,-1.77649 c -0.46486,-0.23237 -1.20776,-1.08229 -1.20776,-1.38175 0,-0.26436 0.41292,-0.70414 0.66113,-0.70414 0.22798,0 1.00324,0.68577 1.27819,1.13065 0.31837,0.51514 0.26475,1.06844 -0.10717,1.10569 -0.14819,0.0148 -0.42916,-0.0529 -0.62439,-0.15045 z M 236.37171,80.848145 c -0.51509,-0.515089 0.26805,-1.876485 1.08028,-1.877935 0.3158,-5.63e-4 0.58251,0.332443 0.58251,0.727286 0,0.409524 -0.44545,0.968657 -0.93452,1.173002 -0.447,0.186767 -0.52143,0.184482 -0.72827,-0.02235 z m 23.14158,41.707775 c 1.38055,-0.35774 1.90806,-0.81684 1.90806,-1.6606 0,-0.91925 -0.80019,-1.70059 -2.14296,-2.09249 -0.72442,-0.21142 -1.84326,-0.33093 -2.21789,-0.2369 l -0.28357,0.0712 0.61162,0.86788 c 0.70644,1.00245 0.99287,1.68287 1.08682,2.58181 0.076,0.72686 0.0641,0.72148 1.03792,0.46913 z m 9.88185,-35.368386 c -0.002,-0.61115 -0.55425,-2.072287 -1.13511,-3.004236 -1.39642,-2.240474 -3.40361,-3.596867 -5.38044,-3.635932 -0.61251,-0.0121 -0.75763,0.01726 -0.78644,0.15912 -0.0456,0.224378 6.92687,6.885198 7.20731,6.885198 0.0529,0 0.0955,-0.181867 0.0947,-0.40415 z"
     id="path15" />
  <g
     id="g15"
     transform="matrix(0.18173587,0,0,0.18173587,206.80838,91.068431)">
    <path
       d="m 70.005191,93.55597 c 0,0.46499 -8.68055,3.61111 -12.29166,7.08333 -3.47222,3.47222 -6.74722,12.28269 -7.29166,12.29166 -0.61698,0.0102 -3.54167,-8.54167 -6.875,-11.875 -3.61111,-3.74999 -12.68719,-6.92815 -12.70832,-7.49999 -0.0183,-0.49563 8.81944,-3.61111 12.29166,-7.08333 3.61111,-3.47222 6.88119,-12.30375 7.29166,-12.29166 0.40423,0.0119 3.81944,8.95833 7.29166,12.29166 3.61111,3.47222 12.29166,6.58419 12.29166,7.08333 z"
       id="text1"
       style="fill:#000000;fill-opacity:1;stroke-width:10"
       aria-label="✦"
       sodipodi:nodetypes="scscscscs" />
    <path
       d="m 436.58804,195.25518 c 0,0.5936 -11.08156,4.60993 -15.69148,9.04255 -4.43262,4.43262 -8.61348,15.68003 -9.3085,15.69147 -0.78763,0.013 -4.52128,-10.90425 -8.7766,-15.15956 -4.60992,-4.78722 -16.19641,-8.84445 -16.22339,-9.57446 -0.0233,-0.63272 11.25887,-4.60993 15.69149,-9.04255 4.60992,-4.43261 8.78449,-15.70691 9.3085,-15.69148 0.51603,0.0152 4.87588,11.43617 9.3085,15.69148 4.60992,4.43262 15.69148,8.40535 15.69148,9.04255 z"
       id="text1-0"
       style="fill:#000000;fill-opacity:1;stroke-width:12.766"
       aria-label="✦"
       sodipodi:nodetypes="scscscscs" />
    <path
       d="m 386.69369,156.8777 c 0,0.35616 -6.64893,2.76596 -9.41488,5.42553 -2.65957,2.65957 -5.16809,9.40802 -5.5851,9.41488 -0.47258,0.008 -2.71277,-6.54255 -5.26596,-9.09573 -2.76595,-2.87234 -9.71785,-5.30667 -9.73403,-5.74468 -0.014,-0.37963 6.75532,-2.76596 9.41489,-5.42553 2.76595,-2.65957 5.27069,-9.42414 5.5851,-9.41489 0.30962,0.009 2.92553,6.8617 5.5851,9.41489 2.76595,2.65957 9.41488,5.04321 9.41488,5.42553 z"
       id="text1-0-2"
       style="fill:#000000;fill-opacity:1;stroke-width:7.6596"
       aria-label="✦"
       sodipodi:nodetypes="scscscscs" />
    <path
       d="m 436.81701,128.20627 c 0,0.45113 -8.42198,3.50354 -11.92552,6.87234 -3.36879,3.36878 -6.54625,11.91682 -7.07446,11.92551 -0.5986,0.0102 -3.43618,-8.28723 -6.67022,-11.52126 -3.50354,-3.6383 -12.30928,-6.72178 -12.32977,-7.27659 -0.0178,-0.48087 8.55673,-3.50355 11.92553,-6.87235 3.50353,-3.36879 6.67621,-11.93724 7.07446,-11.92553 0.39219,0.0114 3.70567,8.69149 7.07446,11.92553 3.50354,3.3688 11.92552,6.38808 11.92552,6.87235 z"
       id="text1-0-2-6"
       style="fill:#000000;fill-opacity:1;stroke-width:9.70216"
       aria-label="✦"
       sodipodi:nodetypes="scscscscs" />
    <path
       d="m 41.183171,129.85458 c 0,0.405 -6.29341,2.61806 -8.91147,5.13542 -2.51736,2.51737 -4.93253,8.90192 -5.28646,8.91147 -0.36696,0.01 -2.56771,-6.19272 -4.98438,-8.60939 -2.61805,-2.71875 -9.216424,-5.1498 -9.213547,-5.4375 0.004,-0.39802 6.394097,-2.61806 8.911467,-5.13542 2.61806,-2.51737 4.92235,-8.89272 5.28646,-8.91147 0.41572,-0.0214 2.7691,6.4948 5.28646,8.91147 2.61806,2.51736 8.91147,4.6109 8.91147,5.13542 z"
       id="text1-9"
       style="fill:#000000;fill-opacity:1;stroke-width:10"
       aria-label="✦"
       sodipodi:nodetypes="scscscscs" />
  </g>
</svg>
