<?xml version="1.0" encoding="UTF-8" standalone="no"?>
<!-- Created with Inkscape (http://www.inkscape.org/) -->

<svg
   version="1.1"
   id="svg1"
   width="540"
   height="660"
   viewBox="0 0 540 660"
   sodipodi:docname="Plain_Chameleon.svg"
   inkscape:version="1.4 (86a8ad7, 2024-10-11)"
   xmlns:inkscape="http://www.inkscape.org/namespaces/inkscape"
   xmlns:sodipodi="http://sodipodi.sourceforge.net/DTD/sodipodi-0.dtd"
   xmlns="http://www.w3.org/2000/svg"
   xmlns:svg="http://www.w3.org/2000/svg">
  <sodipodi:namedview
     id="namedview1"
     pagecolor="#505050"
     bordercolor="#eeeeee"
     borderopacity="1"
     inkscape:showpageshadow="0"
     inkscape:pageopacity="0"
     inkscape:pagecheckerboard="0"
     inkscape:deskcolor="#505050"
     inkscape:zoom="1.3767215"
     inkscape:cx="228.80445"
     inkscape:cy="324.32123"
     inkscape:window-width="1920"
     inkscape:window-height="1137"
     inkscape:window-x="1912"
     inkscape:window-y="-8"
     inkscape:window-maximized="1"
     inkscape:current-layer="svg1" />
  <defs
     id="defs1" />
  <g
     id="g2"
     transform="translate(35.947594,5.6787446)">
    <g
       id="g1"
       transform="translate(-136.73715,-44.264382)">
      <path
         id="path1"
         style="fill:#ffffff;fill-opacity:1;stroke-width:0.794767"
         d="m 323.40136,44.279476 c -8.82409,0.12174 -17.7476,0.10952 -26.40752,2.02547 -7.76,1.72127 -14.96209,5.22789 -22.01621,8.7887 -11.70868,6.15472 -21.7949,15.71035 -27.72446,27.611641 -3.11109,6.2777 -5.16468,13.14356 -5.60097,20.153323 -0.45362,7.95128 1.71816,15.71436 3.70294,23.33101 0.81216,3.44779 1.79458,6.87044 2.29861,10.38036 0.24945,1.74703 -0.7334,3.40796 -2.14948,4.36752 -3.46417,2.42904 -7.64737,3.44797 -11.61367,4.74707 -6.20473,2.08146 -12.32902,4.45174 -18.20252,7.34725 -9.32012,4.7138 -17.33223,11.88812 -23.20001,20.51469 -4.51737,6.60711 -7.92768,13.9482 -10.31743,21.57736 -1.56121,5.57145 -1.48358,11.41731 -1.56582,17.15375 0.025,5.47174 -0.13212,10.9663 0.46954,16.41428 0.59494,5.12938 2.85858,9.86704 5.23135,14.38637 4.07934,7.52604 9.37434,14.33169 15.2385,20.54477 1.50722,1.67771 3.29116,3.58615 4.05361,5.88515 1.1813,3.62257 1.49285,7.45184 2.34599,11.15428 2.51863,11.7843 6.64494,23.28363 12.69542,33.72665 2.29833,3.99283 4.99319,7.7478 7.98655,11.24757 0.73559,0.94245 1.43971,1.91693 2.00892,2.97009 -3.07248,1.62047 -6.43516,2.59097 -9.70796,3.72019 -8.83668,2.94916 -17.86314,5.32784 -26.58677,8.61049 -5.48253,2.13396 -11.07814,4.55986 -15.30075,8.78315 -5.21154,5.29674 -7.46649,13.26525 -5.92426,20.5222 0.9609,4.96675 3.49521,9.47723 6.58596,13.42607 0.37946,0.5025 0.95994,1.07056 0.0243,1.30187 -8.34467,5.06147 -16.86829,9.95605 -24.31401,16.32147 -6.1641,5.21155 -11.61385,11.62427 -14.32552,19.32757 -1.67479,4.70869 -1.69304,10.02324 0.23052,14.66182 1.67956,4.31748 4.71733,7.89908 7.83583,11.25003 0.35884,0.4218 1.09663,0.9202 0.15214,1.03735 -2.39738,1.02167 -5.02594,2.28036 -6.23888,4.7307 -4.94416,11.03974 -6.77522,23.29443 -6.23773,35.32948 0.63435,14.84936 4.47204,29.38383 9.66321,43.249 6.80717,18.07371 15.96801,35.16032 25.90252,51.68668 15.56591,25.39779 36.17213,47.63168 60.00655,65.46701 19.42786,14.51982 41.15134,26.07439 64.31103,33.37028 28.80488,9.14621 59.27085,12.34357 89.40433,11.32228 22.39133,-0.77787 44.69732,-3.85247 66.48964,-9.04411 23.53078,-5.66732 46.55761,-14.03775 67.48021,-26.31083 15.27856,-8.99363 29.41931,-20.16759 40.78906,-33.83148 12.62296,-15.34492 21.23817,-33.77544 25.95705,-53.02401 3.60795,-15.00991 4.9693,-30.6691 2.95858,-46.01711 -2.47344,-19.21516 -9.40714,-37.85275 -20.12396,-53.99476 -4.09267,-6.16129 -8.80522,-11.928 -14.24919,-16.94724 -11.80883,-10.9951 -26.03351,-18.96085 -40.51994,-25.85689 -6.11928,-2.8815 -12.29435,-5.6504 -18.52367,-8.28367 -1.77104,-0.62349 -4.1718,-1.14678 -4.71039,-2.94239 -1.73852,-5.79602 -0.39659,-12.64385 -2.06492,-18.68337 -1.72804,-6.25573 -5.32051,-11.84042 -8.09793,-17.70609 -0.29142,-0.61544 4.03246,-2.76738 6.13351,-4.01512 14.15418,-8.40564 30.24684,-13.50839 43.52412,-23.33696 17.30641,-12.81139 32.43086,-28.67119 43.95421,-46.88638 8.34937,-13.26949 14.82502,-27.88429 17.79531,-43.3307 1.44414,-8.20552 1.78213,-16.57953 1.46779,-24.89507 -0.23701,-5.28435 -0.78341,-10.6002 -2.37562,-15.66771 -1.3826,-5.02218 -3.37725,-9.93052 -6.46037,-14.16192 -4.22516,-5.88186 -9.46593,-10.92906 -14.60968,-15.99273 -6.34001,-6.1412 -12.80037,-12.1509 -19.23052,-18.19614 -0.36203,-8.08655 -0.51228,-16.22602 -2.04815,-24.1997 -1.67556,-9.35783 -5.15086,-18.40172 -10.33655,-26.37949 -4.24833,-6.57046 -9.36198,-12.56016 -14.94568,-18.02957 -9.63536,-9.206693 -21.21817,-16.457943 -33.872,-20.702673 -6.75779,-2.22655 -13.87525,-3.62334 -21.01304,-3.37285 -5.17122,0.38376 -10.24393,1.53462 -15.2445,2.86079 -2.0377,0.47245 -4.07562,1.0061 -6.15144,1.26526 -3.30844,-1.47278 -6.34437,-3.48722 -9.40014,-5.415421 -8.75822,-5.94999 -18.03205,-11.11859 -27.61596,-15.61071 -15.8022,-7.42271 -32.36884,-13.18908 -49.32753,-17.32443 -4.74531,-1.23669 -9.60616,-2.05236 -14.51278,-2.21555 -7.93779,-0.30658 -15.88722,-0.18561 -23.82933,-0.19592 z m 4.55815,27.55586 c 3.38247,0.003 6.62787,0.0907 10.00259,0.29143 1.6085,0.10259 3.51835,0.24623 5.11805,0.41561 5.68748,0.50149 11.21803,1.98467 16.74725,3.33245 16.29049,4.12484 32.18004,9.938791 47.08918,17.716251 5.41094,2.8112 10.69507,5.86242 15.86157,9.100173 0.7806,0.49546 1.87627,1.19057 2.6586,1.6963 7.46862,4.84606 14.67085,10.04315 21.68268,15.50073 8.37374,6.64057 16.20338,13.85197 24.1484,20.97283 10.34841,9.35417 20.66037,18.74987 31.20705,27.88057 9.87545,8.63793 19.90247,17.10057 30.01589,25.45848 6.95508,5.84259 13.99507,11.59765 20.64442,17.79094 0.37967,0.36171 1.11147,0.98061 0.22624,0.43661 -2.33133,-1.26622 -5.48038,-1.78999 -7.73629,-0.0842 -2.21755,1.68998 -2.7292,4.83118 -2.19083,7.42248 0.86329,3.17623 3.3782,5.50786 5.68283,7.70363 2.43553,2.17704 5.20952,4.31381 8.52346,4.82621 2.03397,0.36153 4.34082,-0.64893 5.07177,-2.66311 0.77635,-1.93666 0.33789,-4.10559 -0.30589,-6.01602 1.87167,3.44979 3.61259,7.06982 4.19639,10.98737 0.0484,0.98348 -0.99652,1.52945 -1.5535,2.20001 -0.93069,0.81401 -2.18084,1.57924 -3.10514,2.15314 -6.93154,4.10362 -14.24209,7.53325 -21.64251,10.69794 -4.23196,1.8079 -8.57377,3.34613 -13.00132,4.60103 -5.93673,1.7754 -11.93157,3.35407 -17.96575,4.76249 -10.14183,2.35187 -20.60069,4.21536 -30.93723,5.78044 -4.08761,0.6208 -8.20571,1.03875 -12.337,1.21353 -0.70714,0.0275 -1.74606,0.0607 -2.58054,0.0904 -11.27528,0.23012 -22.55288,-0.0471 -33.82795,-0.16772 -8.60051,-0.13107 -17.11238,-0.28986 -25.68817,-0.719 -4.86694,-0.25466 -9.79735,-0.62607 -14.55774,-1.27176 -8.24328,-1.07876 -16.28147,-3.40986 -24.00723,-6.44227 -6.69144,-2.69208 -13.029,-6.31677 -18.59573,-10.91606 -0.27492,-0.24619 -0.9146,-0.76591 -1.32123,-1.13185 -6.1976,-5.39344 -11.19717,-12.1199 -14.66062,-19.56543 -1.12682,-2.29872 -2.26398,-4.91417 -2.74313,-7.55195 -0.32067,-1.72337 -0.46586,-3.4611 -0.57058,-5.12662 -0.14416,-2.23969 -0.22982,-4.70742 -0.1406,-7.03783 0.22109,-8.00673 2.90441,-15.76185 6.63693,-22.78028 6.10393,-11.32035 15.43817,-20.97076 26.78718,-27.0806 1.67734,-0.89293 3.39793,-1.70552 5.15906,-2.41977 -5.51243,4.41166 -10.50512,9.49977 -14.72356,15.1646 -5.81729,7.76309 -8.1131,17.70965 -7.69458,27.29387 0.32806,7.12318 2.05515,14.22579 5.2953,20.59086 2.17802,3.96566 4.84401,7.69479 8.03836,10.9063 1.24405,1.18284 2.81918,2.62784 4.67707,2.17825 1.75794,-0.69825 2.48492,-2.65182 3.08962,-4.29649 0.79236,-2.51357 2.59319,-4.78679 5.0057,-5.90708 0.94987,-0.25037 1.87453,0.42592 2.64477,0.90383 1.50228,1.16982 3.15685,2.62874 3.36041,4.6411 0.0368,2.03116 -1.79765,3.41487 -3.39449,4.32503 -2.33627,1.1919 -4.73107,2.26832 -7.09044,3.41458 1.68431,1.71328 3.21456,3.58748 5.00222,5.19325 3.58029,2.74047 7.65651,4.77886 11.82653,6.45891 4.14946,1.73089 8.71773,1.72821 13.136,1.68235 9.70182,-0.0295 19.63996,-2.03965 27.93478,-7.2582 6.98639,-4.33271 12.42457,-11.02092 15.38285,-18.67944 2.25355,-5.70747 2.92375,-11.91083 2.9754,-18.00597 0.0269,-4.86121 -0.56059,-9.73604 -1.96587,-14.39794 -0.68506,-2.25942 -1.16176,-4.73702 -2.77447,-6.55346 -1.19335,-1.29776 -3.24847,-1.34791 -4.66779,-0.39909 -2.75976,1.78185 -4.69046,4.53374 -7.2148,6.60294 -2.89764,2.47401 -6.26915,4.81718 -10.17458,5.15936 -4.17781,0.15645 -8.13877,-2.2193 -10.62104,-5.47602 -2.99167,-3.91899 -4.41298,-9.28233 -2.92275,-14.07496 0.92377,-3.02229 3.4514,-5.39536 6.45538,-6.3056 4.09095,-1.28479 8.46569,-1.65997 12.7253,-1.22138 1.70383,0.17265 3.40787,0.6836 4.71565,1.83496 4.16913,3.34483 7.7526,7.36141 11.08994,11.5196 2.50217,3.11386 4.60085,6.57019 5.95061,10.34096 0.15195,0.43402 0.34551,0.9542 0.52454,1.50734 0.62733,1.95094 1.11436,3.96867 1.44777,5.90532 0.385,2.161 0.60787,4.54214 0.69665,6.6155 0.18587,6.52805 -0.47316,13.13115 -2.37843,19.39385 -0.51833,1.6735 -1.11321,3.27013 -1.84176,4.9212 -0.81861,1.85639 -1.79302,3.69424 -2.78526,5.35444 -3.06853,5.00898 -6.67992,9.79097 -11.37221,13.39301 -4.11479,3.30751 -8.68711,5.97199 -12.99945,8.99947 -1.22473,0.96287 -2.78604,1.91533 -3.11445,3.5506 -0.0677,0.59798 0.0334,1.15189 0.40952,1.63453 0.74692,1.11778 2.31354,1.11477 3.50148,0.8009 3.47837,-0.91594 6.81309,-2.32657 10.05375,-3.87287 8.42836,-4.09581 15.69957,-10.55867 20.63803,-18.53331 5.1596,-8.37012 8.24805,-17.97664 9.18874,-27.75151 1.32814,-13.70935 -1.86298,-27.73618 -8.66086,-39.68679 -3.3301,-5.90264 -7.49495,-11.348 -12.48063,-15.95073 -7.86147,-7.31143 -16.97032,-13.27028 -26.75346,-17.67966 -5.40758,-2.39051 -11.07363,-4.3533 -16.97892,-4.99964 -8.37734,-1.01091 -16.85205,-1.14047 -25.27085,-0.64475 -4.73447,0.34409 -9.56264,0.77237 -13.99349,2.60503 -15.87094,5.90532 -29.52216,17.6321 -37.59027,32.53801 -6.09482,11.10352 -8.83217,23.98203 -7.89684,36.60623 0.88598,12.90042 5.39962,25.37063 12.0615,36.38939 1.00748,1.77684 2.09358,3.54413 2.7099,5.50342 -2.11947,0.0682 -3.99619,1.23986 -5.8299,2.18748 -2.94722,1.5774 -5.56477,3.76659 -7.531,6.47861 -2.01845,2.80109 -3.7414,6.08563 -3.71807,9.62074 0.0943,1.61872 0.60356,3.49656 2.09619,4.36321 1.39278,0.67368 2.88101,-0.18868 3.87884,-1.16366 1.82038,-1.83268 4.05232,-3.2977 6.58976,-3.894 3.69867,-0.87936 7.5636,-0.83872 11.32519,-0.4485 5.85204,0.64231 10.96415,3.82385 15.85634,6.86319 9.22648,5.78353 19.46565,9.84894 30.03944,12.38526 14.76748,3.54547 29.97525,4.72069 45.10908,5.38015 15.79075,0.63093 31.59944,0.54343 47.39913,0.41391 9.19829,-0.11588 18.44283,-0.33853 27.5197,-1.973 20.3256,-3.43483 40.49859,-8.67362 59.20662,-17.474 3.91378,-1.83537 7.73365,-3.87081 11.71038,-5.572 -1.45883,5.12835 -3.27437,10.15748 -5.36239,15.0627 -3.24166,7.65021 -7.89871,14.61313 -13.1594,21.01356 -2.59594,3.18582 -5.34478,6.40921 -8.06537,9.38661 -6.80014,7.39034 -14.582,14.14893 -22.76995,20.10574 -13.28026,9.6515 -27.88895,17.50199 -43.20363,23.53211 -9.45099,3.71605 -19.4388,6.80878 -29.47796,9.01713 -5.42387,1.28545 -10.97841,1.92795 -16.54412,2.12825 -10.65169,0.42856 -21.40761,0.39469 -32.11444,0.48518 -9.49861,0.0358 -19.0859,0.0871 -28.52861,-0.14059 -3.64315,-0.15809 -7.32823,-0.14532 -10.91493,-0.86922 -1.91246,-0.46447 -3.83901,-1.25742 -5.83644,-1.06618 -1.20123,0.14463 -2.14511,1.32103 -1.93754,2.52499 0.32482,1.68283 2.06193,2.48449 3.37365,3.33226 6.01594,3.39055 12.40227,6.06433 18.79089,8.66186 3.21093,1.26809 6.4523,2.46568 9.59186,3.9064 -5.9548,1.27372 -11.75346,3.17379 -17.49748,5.17617 -1.81635,0.6416 -3.58393,1.30065 -5.34505,1.89879 -2.04199,0.69627 -4.09506,1.36826 -6.18448,1.90868 -0.56139,-3.75506 0.16935,-7.6726 -1.03705,-11.32903 -0.44114,-1.36493 -2.02971,-2.35308 -3.4034,-1.70907 -1.66946,0.78292 -2.12698,2.78264 -2.62251,4.39509 -1.5151,6.09822 -3.22736,12.03449 -4.82128,18.13328 -0.79055,3.30549 -1.75308,6.60292 -2.01731,10.00444 -0.0796,1.17171 0.37083,2.52089 1.57286,2.93022 1.74822,0.42025 3.47936,-0.4248 5.11037,-0.96521 2.62856,-1.11462 5.28551,-2.17354 8.04835,-2.91362 7.14282,-2.00239 14.57823,-3.27815 21.85416,-4.26471 5.59397,-0.73591 11.26252,-1.27925 16.83321,-1.56173 2.76892,-0.13743 5.41755,-0.21441 8.21285,-0.19232 1.73993,0.0109 3.47169,0.0644 5.12729,0.16294 2.73737,0.20672 5.59558,0.12898 8.17266,1.19752 2.26024,1.17925 4.21054,2.91487 5.88757,4.82077 2.88715,3.29326 4.13396,7.7707 3.89866,12.09763 -0.19238,3.81235 -1.05064,7.59575 -2.4445,11.14546 -1.69983,3.92548 -4.90982,6.88927 -7.86618,9.87354 -4.64602,4.50219 -9.93623,8.66704 -16.21088,10.57662 -2.32669,0.63754 -4.79985,1.17723 -7.20758,0.72624 -0.78426,-0.085 -1.42528,-0.74397 -1.29773,-1.55973 0.17505,-2.58755 1.56057,-4.89388 2.80634,-7.10293 2.75448,-4.64589 6.42974,-8.73217 8.70991,-13.65916 0.50353,-1.0528 0.50003,-2.56238 -0.56353,-3.24596 -1.05872,-0.80675 -2.48233,-0.29589 -3.68206,-0.13469 -6.40547,1.20413 -12.54623,3.19312 -18.92226,4.47367 -15.91393,3.27333 -32.29729,4.11826 -48.48404,2.84955 -1.59542,-0.21535 -3.32868,-0.23327 -4.73723,-1.09473 -0.89215,-0.99802 -0.93062,-2.45856 -1.18999,-3.7169 -0.84273,-6.50392 -0.98884,-13.07169 -1.44844,-19.60854 -0.35068,-4.99003 -0.57044,-10.00542 -1.37507,-14.9485 -0.27061,-1.47701 -0.71118,-3.35771 -2.3589,-3.82446 -1.43134,-0.39568 -2.72221,0.74641 -3.2039,2.01673 -1.32105,3.21012 -1.97344,6.64498 -2.80736,10.00281 -1.91011,8.09062 -2.20703,16.44581 -2.10862,24.72564 0.0748,3.57011 -0.0847,7.21313 0.82256,10.6974 0.75549,2.63379 2.53133,4.80287 4.16655,6.94324 1.9286,2.47001 4.73881,4.1948 7.81741,4.78476 4.57547,0.92556 9.28046,0.70985 13.91956,0.60847 9.04501,-0.31817 18.07993,-0.86704 27.1194,-1.30911 0.68061,4.186 1.27923,8.38726 2.15245,12.53891 -5.61025,-3.67625 -12.001,-6.11903 -18.62357,-7.16664 -8.07404,-1.28753 -16.32208,-1.10255 -24.42758,-0.20718 -3.45307,0.36258 -6.85201,1.1488 -10.10643,2.36109 -6.8558,2.47902 -13.49268,5.59531 -19.74304,9.35068 -5.76233,3.42998 -10.2959,8.54307 -14.17725,13.93603 -6.1294,8.67877 -10.69857,18.47026 -13.3862,28.75048 -1.11558,4.58547 -2.17182,9.26761 -2.04245,14.01489 0.0749,1.7869 0.47404,3.98711 2.27558,4.82262 1.64305,0.72536 3.39223,-0.34496 4.39948,-1.6264 2.00888,-2.32347 2.93777,-5.32032 4.89607,-7.67902 4.34425,-5.60191 9.57609,-10.43818 14.87588,-15.11723 7.65844,-6.5957 15.7088,-12.79997 24.44704,-17.90711 6.03555,-3.44558 12.60502,-5.94117 19.36,-7.55164 3.40352,-0.79879 6.9908,-1.23888 10.42572,-0.35362 5.4493,1.24948 9.9562,5.22195 12.616,10.04778 2.90179,5.18725 3.86806,11.16888 4.51914,17.0005 1.01561,10.6663 0.37748,21.47136 -1.6072,31.9919 -0.8927,4.78894 -2.26348,9.47111 -3.87666,14.06311 -0.50673,1.68371 -1.15019,3.34317 -1.38671,5.09357 0.24833,0.6078 0.35058,1.32834 1.04308,1.58771 1.28128,0.8079 2.88893,0.25431 4.25987,-0.0266 2.69421,-0.74932 5.41709,-1.76464 8.26094,-1.54102 2.89879,0.74439 5.21833,2.8992 7.02867,5.19519 1.74483,2.23139 2.85597,4.90771 3.53969,7.63845 0.16639,1.10946 -0.79292,1.96561 -1.30958,2.84787 -2.08857,2.98323 -5.6978,4.20735 -9.03368,5.20797 -4.80726,1.3626 -9.91395,2.6257 -14.90577,1.53469 -4.30753,-0.92219 -7.68718,-4.09872 -10.1649,-7.58886 -2.56527,-3.38833 -3.72595,-7.58193 -4.44472,-11.70812 -0.073,-0.48091 -0.18103,-1.07547 -0.25718,-1.64522 -1.45728,-10.51371 -0.89595,-21.15596 -1.38217,-31.72975 -0.14801,-4.00942 -0.3384,-8.02541 -0.98705,-11.99088 -0.39894,-2.93517 -0.79878,-5.87021 -1.19818,-8.80532 -2.71208,5.59542 -5.32382,11.24059 -8.10537,16.80163 -1.11386,2.09768 -2.3451,4.13247 -3.68188,6.09562 -0.44048,0.649 -1.06907,1.53407 -1.61125,2.2569 -4.17996,5.54048 -9.17673,10.64316 -15.30092,14.01615 -4.46274,2.26435 -9.4161,3.86685 -14.46657,3.74552 -2.56114,-0.0643 -5.17471,-0.79927 -7.1219,-2.52746 -1.34544,-1.02724 -3.16421,-2.1192 -4.86943,-1.28639 -1.6428,0.89242 -2.32969,2.89525 -2.45255,4.66466 -0.0722,3.35644 2.06067,6.22239 4.19948,8.60413 4.30438,4.70778 9.67797,8.22245 14.51097,12.33737 6.33524,5.21835 12.44253,10.72666 19.11422,15.52298 10.81482,7.96492 22.73067,14.34149 35.10706,19.51564 16.48418,6.94296 33.657,12.43151 51.34611,15.26897 16.25451,2.66243 32.78948,3.17339 49.22776,2.60656 8.18691,-0.28273 16.40199,-1.32157 24.21477,-3.8651 8.51093,-2.76952 16.80325,-6.31459 24.4516,-10.98751 9.74562,-5.92481 18.71391,-13.27508 25.91885,-22.14998 3.7274,-4.56184 6.80528,-9.64978 9.0461,-15.10057 5.42843,-12.71583 7.92967,-26.89983 5.82023,-40.64738 -1.26472,-8.32973 -4.35917,-16.40786 -9.25204,-23.28706 -8.10398,-11.85215 -19.29907,-21.73708 -32.51013,-27.50237 -12.93787,-5.68883 -27.65292,-7.34761 -41.50799,-4.49773 -9.74346,2.01975 -19.07066,6.75233 -25.82222,14.15173 -5.66361,6.12196 -9.3057,13.90448 -11.25342,21.96217 -2.50401,10.4135 -1.50874,21.66114 2.99808,31.39576 3.67032,8.09969 9.64376,15.01549 16.66945,20.40173 4.4291,3.39376 9.71032,5.67801 15.25091,6.41555 8.51609,1.26833 17.55232,-0.0524 25.00013,-4.50235 6.79963,-3.97926 12.14724,-10.67419 13.78256,-18.4559 1.11402,-5.2427 0.64289,-10.86484 -1.51191,-15.78596 -2.62993,-5.66104 -7.30704,-10.28191 -12.80357,-13.18135 -3.50067,-1.79403 -7.66501,-3.01737 -11.55712,-1.83472 -2.81452,0.88116 -5.11219,3.27898 -5.93422,6.10109 -0.80825,2.93655 0.65582,5.90145 2.4707,8.14218 2.14255,2.68209 4.97432,4.79074 6.74475,7.77177 -0.94303,1.98302 -2.25047,3.91633 -4.12664,5.12019 -2.5472,1.60261 -5.81481,0.93735 -8.30521,-0.43526 -3.29886,-1.8111 -6.11062,-4.47762 -8.27106,-7.54675 -3.48562,-4.97233 -4.52926,-11.4837 -2.95365,-17.3294 1.61735,-6.14479 5.6126,-11.54021 10.70832,-15.27269 4.37388,-3.16356 9.93879,-4.39131 15.27037,-3.86894 5.62223,0.53014 11.03581,2.48878 16.00689,5.10968 7.84092,4.38555 13.65057,11.77879 17.29917,19.88469 0.53891,1.19903 0.95635,2.24437 1.41804,3.5028 1.75023,4.82596 2.78734,9.91649 2.99832,15.04813 0.027,0.66842 0.0472,1.66043 0.0325,2.45832 -0.0182,2.19869 -0.24421,4.59722 -0.58521,6.63787 -1.81841,11.11107 -7.59532,21.5585 -16.21003,28.83669 -6.7088,5.71168 -15.03799,9.50602 -23.75613,10.79184 -0.46851,0.0598 -1.30714,0.18148 -1.91889,0.24508 -8.18713,0.86684 -16.51544,0.43682 -24.57779,-1.22208 -1.06752,-0.23098 -2.03389,-0.45897 -3.14322,-0.76149 -9.94321,-2.80757 -18.92761,-8.50934 -26.28579,-15.69822 -2.11469,-2.07816 -4.1194,-4.31299 -5.90679,-6.58275 -7.38517,-9.35555 -12.4808,-20.73199 -13.45133,-32.68385 -0.75135,-8.27502 -0.68983,-16.63265 0.22499,-24.89198 1.03098,-9.16184 4.11309,-18.07348 8.84514,-25.97933 0.39831,-0.6607 0.96281,-1.57551 1.45957,-2.31629 7.64725,-11.67441 19.04909,-20.63863 31.81259,-26.13829 1.81698,-0.79038 3.6978,-1.52671 5.42669,-2.13434 4.11921,-1.40545 8.41834,-3.0681 12.87431,-3.40526 6.00375,-0.48053 12.03526,-0.29383 18.05229,-0.34137 5.86265,0.0577 11.75394,-0.10424 17.58506,0.61026 4.74226,0.66413 9.27598,2.31515 13.74042,3.98646 10.35952,4.03639 19.85835,10.08722 28.32839,17.25137 5.18198,4.45716 9.89439,9.45986 14.0309,14.90118 0.81371,1.06424 1.74431,2.34832 2.56245,3.52715 4.84826,6.99994 8.78509,14.64146 11.55212,22.69826 0.25232,0.73488 0.58554,1.76801 0.85013,2.62275 0.27927,0.91451 0.62579,2.10106 0.89252,3.13238 0.379,1.42365 0.71939,2.89081 0.99765,4.23541 1.78806,8.52415 2.06327,17.3824 0.55738,25.9718 -2.35556,14.26304 -7.32099,28.02701 -13.98001,40.83142 -5.67083,10.75 -12.57552,20.96076 -21.25482,29.51873 -0.34069,0.33483 -0.82209,0.79798 -1.21124,1.15797 -9.58197,8.92194 -20.86419,15.82234 -32.57915,21.5689 -8.94492,4.35641 -18.26314,8.00941 -27.69126,11.02472 -15.68411,5.00927 -32.02541,8.36293 -48.47253,9.87233 -7.15761,0.6744 -14.33762,1.10469 -21.52456,1.29028 -1.44615,0.0177 -3.13381,0.0623 -4.6743,0.0737 -6.87387,0.0608 -13.74898,-0.12769 -20.61054,-0.53998 -2.06975,-0.13688 -4.34515,-0.29763 -6.49155,-0.48327 -10.17732,-0.87308 -20.37976,-2.3197 -30.37137,-4.40024 -4.1674,-0.86885 -8.45572,-1.88514 -12.56481,-2.98656 -11.06419,-2.95548 -21.87285,-6.86518 -32.24304,-11.72792 -28.01544,-12.93518 -53.8101,-31.30297 -73.64839,-55.07494 -9.74163,-11.64646 -17.94222,-24.58665 -24.21004,-38.42046 -3.59055,-7.67335 -6.88497,-15.55321 -8.69859,-23.85835 -1.95762,-8.79257 -2.93403,-17.76317 -3.97596,-26.6993 -0.35934,-3.4226 -0.63397,-6.85418 -0.79385,-10.292 -0.0765,-1.68659 -0.1335,-3.5962 -0.14683,-5.37158 -0.0873,-8.35209 0.68745,-16.71011 2.29928,-24.90551 0.22817,-1.13596 0.53796,-2.63973 0.79787,-3.78237 1.37536,-6.09368 3.09269,-11.95988 5.07611,-17.86961 4.33517,-12.7199 10.24942,-24.87151 17.22222,-36.3478 8.4384,-13.76704 18.52325,-26.83537 30.39972,-37.92373 1.9489,-1.81006 3.9271,-3.54494 5.93945,-5.19118 4.27346,-3.54311 8.87715,-6.66381 13.65032,-9.49128 0.52835,-0.32403 1.05671,-0.64807 1.58507,-0.9721 5.30367,2.66988 10.63493,5.30955 16.18062,7.44618 -2.61351,0.31941 -5.39589,0.76671 -7.53662,2.41574 -0.90792,0.741 -1.23745,2.19177 -0.46627,3.13322 0.93592,1.29664 2.74168,1.20673 4.17427,1.3586 6.44227,0.25927 12.89337,0.16596 19.33951,0.16155 13.65286,-0.12712 27.32202,-0.50604 40.91444,-1.85796 4.42857,-0.51216 8.91546,-0.94751 13.18484,-2.29498 1.45678,-0.48266 3.16416,-1.43033 3.25081,-3.14887 0.11987,-1.66965 -1.44001,-2.80078 -2.85552,-3.30205 -2.55603,-0.83795 -5.25899,-1.11101 -7.91383,-1.48162 1.3651,-0.41976 3.05398,-1.0432 3.40393,-2.59629 0.33783,-1.34108 -0.72573,-2.58762 -1.96091,-2.97879 -2.98512,-0.96956 -6.15614,-1.12717 -9.25485,-1.49169 -10.207,-0.83039 -20.37325,-2.77902 -30.17873,-5.80375 -1.81855,-0.57586 -3.83084,-1.24248 -5.69302,-1.94638 -4.51815,-1.67605 -8.92293,-3.73869 -12.84301,-6.56757 -1.92114,-1.30227 -4.03342,-2.84748 -5.86526,-4.27296 -2.31425,-1.80234 -4.73481,-3.85432 -6.94563,-5.93398 -1.50638,-1.40713 -3.13849,-3.03977 -4.59842,-4.63078 -8.29304,-8.9142 -14.507,-19.75987 -17.87263,-31.46849 -2.28335,-7.81487 -3.37974,-15.94443 -3.60499,-24.07312 -0.0337,-1.41722 -0.0538,-3.07511 -0.0297,-4.58623 0.017,-2.53128 0.11524,-5.06209 0.29692,-7.5869 0.0906,-1.20582 0.23243,-2.66803 0.39418,-3.96778 0.30653,-2.48833 0.71017,-4.83674 1.27671,-7.30199 1.705,-7.31866 4.63175,-14.32068 8.26942,-20.88116 6.57536,-11.70814 16.63438,-21.50138 28.73181,-27.39549 5.22408,-2.59568 10.81792,-4.37579 16.51729,-5.579 3.20778,-0.84269 6.61197,-1.64638 9.21547,-3.81953 1.54106,-1.27982 2.33593,-3.27147 2.32499,-5.25037 0.85719,-3.23225 2.32331,-6.2686 3.74867,-9.28246 6.12994,-12.60353 16.40705,-22.91427 28.35761,-30.09196 0.34216,-0.20377 1.06674,-0.62343 1.55529,-0.90985 7.13512,-4.08282 14.9074,-6.99592 22.91861,-8.81092 5.88422,-1.43505 11.95612,-2.04207 18.00822,-1.84076 1.89949,0.0447 3.60487,0.13399 5.50385,0.25292 6.89741,0.46388 13.8163,1.08103 20.56708,2.63045 1.262,0.29006 2.75634,0.67433 4.09202,1.06636 7.56392,2.18803 14.69799,5.73289 21.59874,9.34565 5.2173,2.70045 10.16762,5.9308 14.60161,9.79355 6.17906,5.2452 11.81151,11.10891 18.0973,16.23145 0.58051,0.35158 1.2602,0.90914 1.95485,0.54328 0.71398,-0.0492 1.20778,-0.582 1.57257,-1.13999 0.6771,-1.67349 -0.30723,-3.39181 -0.9132,-4.93094 -2.06581,-4.47418 -4.52439,-8.78035 -7.39446,-12.78806 -4.9024,-6.55356 -10.69121,-12.38992 -16.68122,-17.94511 -5.22263,-4.73652 -10.62922,-9.35124 -16.69994,-12.97638 -5.76022,-3.28799 -11.79853,-6.10907 -18.04713,-8.33672 -4.38755,-1.491873 -8.84156,-2.985583 -13.50161,-3.282073 -6.59969,-0.47022 -13.22358,-0.29182 -19.83488,-0.33604 -6.13179,0.0538 -12.29316,-0.12037 -18.39198,0.62757 -4.87916,0.67465 -9.55914,2.297073 -14.21096,3.856813 -11.27771,3.91102 -21.92307,9.70831 -31.14399,17.30706 -8.20989,6.74876 -15.50054,14.61807 -21.63069,23.29753 -2.27495,3.32074 -3.99615,6.97756 -6.07771,10.41748 -1.98321,3.37846 -4.10616,6.91371 -7.54982,8.99215 -3.79383,2.34131 -7.82078,4.08033 -11.74924,6.18301 -6.80141,3.50613 -13.43834,7.45777 -19.17965,12.55741 -7.05112,6.01509 -13.06697,13.21619 -17.79686,21.18288 -5.03564,8.43199 -8.76098,17.67091 -10.78521,27.28872 -1.65157,-4.70173 -2.95119,-9.54251 -3.72345,-14.46806 -0.52803,-3.68722 0.63608,-7.31286 1.46021,-10.86473 1.73262,-6.74124 4.57138,-13.42824 9.55517,-18.4229 5.47965,-5.55127 12.74511,-8.84957 19.97929,-11.46822 1.67816,-0.58988 3.37837,-1.16427 4.99302,-1.66559 6.67098,-2.09426 13.55324,-4.10621 19.41684,-8.05802 3.8395,-2.63935 7.09774,-6.07975 9.77585,-9.87748 2.61772,-3.74945 4.02087,-8.30103 3.98258,-12.87265 -0.008,-6.42002 -1.78182,-12.6657 -3.5872,-18.77345 -0.71539,-2.34651 -1.51827,-4.8436 -2.12012,-7.1127 -0.91415,-3.24289 -1.44134,-6.64498 -0.95598,-10.00752 0.67372,-6.286413 3.03357,-12.469413 7.21394,-17.266843 5.21479,-6.07583 12.55055,-9.856981 20.01367,-12.434551 0.38331,-0.11971 1.17371,-0.38604 1.71284,-0.56187 3.81824,-1.26579 7.77007,-2.08916 11.77047,-2.50096 4.86373,-0.55147 9.76595,-0.78607 14.60583,-0.84787 0.71584,-0.0118 1.43185,-0.009 2.14777,-0.0144 z m -39.18637,22.830921 c -3.61184,0.18851 -6.61477,2.74063 -8.62739,5.571893 -1.92302,2.77248 -3.30107,6.32204 -2.3869,9.70647 0.54977,2.0496 2.24105,3.92642 4.45171,4.07435 3.08778,0.24784 6.03866,-1.23437 8.44371,-3.04549 2.38416,-1.81915 4.31778,-4.49063 4.46771,-7.57279 0.16981,-2.72824 -0.43806,-5.817993 -2.61672,-7.661223 -1.04476,-0.81805 -2.42965,-1.09889 -3.73212,-1.07321 z M 473.2815,110.5434 c 4.41131,0.0221 8.86972,0.54488 13.06809,1.94074 6.30395,2.11085 11.98447,5.83496 16.71543,10.47677 5.24612,5.11421 9.88356,10.90965 13.282,17.42102 1.23355,2.32022 2.38675,4.88121 3.25752,7.24161 1.06326,2.90424 1.91898,5.89803 2.34741,8.96556 -9.03478,-7.85795 -17.78267,-16.03874 -26.54483,-24.1974 -7.65648,-7.19607 -15.33686,-14.37251 -22.74463,-21.8262 0.20634,-0.007 0.41264,-0.0164 0.61901,-0.0221 z m 32.05171,110.23352 c -2.50326,8.5e-4 -4.77654,1.79133 -5.52686,4.15218 -1.0217,3.06777 -0.49483,6.42673 0.47159,9.43798 1.27574,3.90516 4.32441,7.05328 7.99332,8.81708 2.56909,1.26291 5.57563,2.37899 8.43561,1.4783 2.24868,-0.67476 3.59297,-3.01315 3.60109,-5.27915 0.059,-3.51083 -1.41795,-6.8386 -3.09019,-9.84994 -2.12984,-3.64028 -5.19215,-7.0611 -9.30804,-8.39871 -0.83381,-0.24688 -1.70545,-0.38943 -2.57652,-0.35774 z m -169.50749,58.96245 c 1.39579,2.41158 2.72886,4.88775 4.62044,6.95982 4.45002,5.04699 9.52308,9.5335 14.94292,13.5123 5.38597,3.95368 11.63684,6.49887 17.88434,8.74526 8.26609,2.87744 16.79336,5.03093 25.44542,6.35784 5.78891,0.50643 11.6121,0.43143 17.41757,0.34947 3.08745,-0.11521 6.20501,-0.0851 9.25644,-0.62117 1.20855,-0.22659 2.2588,-1.32154 2.09034,-2.59766 -0.21943,-1.5618 -1.87665,-2.20516 -3.20776,-2.60361 -5.57381,-1.61409 -11.34282,-2.39894 -16.96493,-3.82005 -5.7944,-1.37608 -11.7664,-3.13088 -17.48409,-5.20779 -8.25765,-2.97836 -16.27338,-6.66806 -24.05635,-10.60777 -8.08157,-4.08544 -15.93677,-8.62487 -24.18707,-12.37086 -2.76388,-0.9955 -5.61301,-1.74759 -8.41016,-2.64788 0.8843,1.51737 1.76859,3.03474 2.65289,4.5521 z m -56.23117,80.87088 c -3.33421,0.0946 -6.71462,-0.0543 -10.0006,0.60696 -1.37754,0.25231 -2.68154,1.48669 -2.41982,2.97401 0.29856,1.78489 2.21641,2.49064 3.74925,2.92697 4.60772,1.24236 9.42613,1.23335 14.16264,1.36398 4.74601,0.0163 9.5184,0.0344 14.2298,-0.60014 1.37541,-0.1282 2.8608,-0.7342 3.36488,-2.12879 0.68919,-1.47953 -0.34592,-3.1835 -1.79272,-3.70801 -2.56467,-0.99631 -5.37243,-1.03843 -8.0839,-1.23887 -4.39853,-0.23075 -8.8062,-0.21326 -13.20953,-0.19611 z m -39.60843,8.86507 c -4.23888,0.14927 -7.90831,2.90269 -10.44805,6.12233 -1.90997,2.34696 -3.41654,5.49016 -2.5277,8.55873 0.94948,3.32843 4.13696,5.95411 7.64864,5.93915 4.58661,0.0655 8.75698,-3.02986 10.87619,-6.96261 1.49926,-2.85871 2.34938,-6.38835 1.1321,-9.49997 -1.02038,-2.68724 -3.86966,-4.28313 -6.68118,-4.15763 z m 199.17562,21.85016 c 6.77797,0.0872 13.73065,1.81564 19.25354,5.87051 2.66106,2.01857 5.1792,4.81708 5.4368,8.29874 0.19302,3.15998 -1.93853,5.98423 -4.53655,7.56371 -2.77736,1.89982 -6.1127,2.60912 -9.30008,3.50475 -1.36368,0.35752 -2.73096,0.70692 -4.12099,0.94749 0.15696,-6.7568 -2.29492,-13.31961 -5.77406,-19.0204 -1.50946,-2.47509 -3.35439,-4.71613 -5.1249,-7.00402 1.38737,-0.0867 2.77544,-0.17165 4.16624,-0.16078 z m -202.08576,8.51335 c -3.40743,0.0491 -6.22491,2.46171 -8.11156,5.10719 -1.57046,2.08847 -2.85073,4.85629 -1.92721,7.47996 0.91218,2.69132 3.77273,4.35328 6.55183,4.22453 3.38675,-0.0454 6.58233,-2.06347 8.22617,-5.0017 1.66623,-2.60568 2.32955,-6.2123 0.58458,-8.94477 -1.10458,-1.82311 -3.20708,-2.90408 -5.32381,-2.86521 z m -29.34857,7.37182 c -3.03045,0.12264 -5.55268,2.20018 -7.49007,4.3623 -2.50521,2.8302 -4.17126,6.34621 -5.08502,9.99545 -0.53776,2.18059 0.15839,4.47304 1.49104,6.22938 1.44697,2.22476 3.63882,4.08635 6.31286,4.54898 2.72475,0.48536 5.68907,-0.25268 7.83607,-2.00373 2.46669,-2.32782 4.03863,-5.44543 5.2219,-8.5834 0.90558,-2.46468 1.44288,-5.27688 0.36098,-7.7796 -1.27007,-3.10733 -3.90916,-5.85303 -7.24897,-6.63071 -0.46005,-0.0944 -0.92921,-0.14594 -1.39879,-0.13867 z m 11.00143,34.96587 c -2.27631,-0.0335 -4.71333,0.92339 -5.83142,3.01497 -1.62362,2.76019 -2.22896,6.21177 -1.37544,9.32217 0.59714,2.39804 2.94018,3.8542 5.24111,4.29074 2.73197,0.56431 5.98911,0.2913 8.02809,-1.81569 1.66351,-1.98984 1.8122,-4.78334 1.62136,-7.26124 -0.26397,-2.31617 -0.87806,-4.95726 -2.99089,-6.2848 -1.38896,-0.88514 -3.05923,-1.26334 -4.69281,-1.26615 z m -26.9067,10.78037 c -2.92272,0.18021 -5.98864,1.14815 -7.91371,3.47563 -2.67537,3.09004 -4.56363,6.80507 -5.93646,10.63565 -0.95081,2.57928 -1.42254,5.37898 -0.92234,8.10966 0.57245,3.58343 1.92148,7.21313 4.53106,9.81594 1.55833,1.49587 3.75454,2.06183 5.82736,2.40667 3.12231,0.4177 6.27477,-0.76608 8.77928,-2.57472 3.54651,-2.81688 5.20309,-7.33011 5.89653,-11.67418 0.69191,-4.82518 0.40796,-9.94847 -1.65908,-14.42252 -1.29186,-2.82679 -3.79698,-5.36412 -7.01122,-5.71392 -0.52612,-0.0753 -1.06121,-0.0753 -1.59142,-0.0583 z m 22.15965,37.01984 c -3.03686,0.0705 -5.38326,2.45188 -6.87138,4.88774 -1.72434,2.75462 -2.2497,6.52457 -0.40799,9.35546 1.36099,2.30669 4.10946,3.22925 6.64241,3.43391 2.4348,0.17733 5.19414,-0.0334 7.07223,-1.76982 1.93835,-2.07952 2.08367,-5.18629 1.66138,-7.85364 -0.38663,-2.54329 -1.60458,-5.04404 -3.76561,-6.53426 -1.24116,-0.93334 -2.75778,-1.56609 -4.33104,-1.51939 z m -20.75684,17.36035 c -3.80707,0.14206 -7.43295,2.09934 -9.95492,4.90363 -2.72038,3.11467 -3.34637,7.49356 -3.07287,11.49031 0.35825,4.36632 1.72265,8.84452 4.70691,12.14673 2.07854,2.26715 5.18022,3.35849 8.18823,3.59343 3.57447,0.27609 7.16272,-1.53208 9.12701,-4.51981 2.64823,-3.9527 3.11045,-8.98758 2.43172,-13.59635 -0.72478,-4.48043 -2.55452,-9.03665 -6.10422,-12.01608 -1.49029,-1.24333 -3.34893,-2.09042 -5.32186,-2.00186 z m 9.96441,37.91218 c -2.26515,0.17084 -4.19413,2.12187 -4.55941,4.33436 -0.54386,3.0276 0.53746,6.29947 2.67272,8.49203 2.05865,1.7193 5.03342,1.88777 7.54471,1.25536 1.78118,-0.41099 3.46979,-1.75639 3.70569,-3.65831 0.53024,-2.63914 -1.1606,-5.08074 -3.01901,-6.77549 -1.53771,-1.33973 -3.12042,-2.7594 -5.06046,-3.4731 -0.41386,-0.12392 -0.8521,-0.19224 -1.28424,-0.17485 z" />
    </g>
    <path
       d="m 38.516293,260.89901 c 0,0.53088 -9.910671,4.12284 -14.033512,8.08711 -3.964268,3.96427 -7.703369,14.02327 -8.324961,14.03351 -0.704412,0.0116 -4.04356,-9.75211 -7.849257,-13.55781 -4.122841,-4.2814 -14.485093,-7.90993 -14.509217,-8.56281 -0.02089,-0.56586 10.069244,-4.12284 14.033512,-8.08711 4.122841,-3.96427 7.856324,-14.04731 8.324962,-14.03351 0.461513,0.0136 4.360693,10.22782 8.324961,14.03351 4.122841,3.96427 14.033512,7.51724 14.033512,8.08711 z"
       id="text1"
       style="fill:#ffffff;fill-opacity:1;stroke-width:11.4171"
       aria-label="✦"
       sodipodi:nodetypes="scscscscs" />
    <path
       d="m 494.65333,382.72033 c 0,0.67772 -12.65193,5.2632 -17.91512,10.32397 -5.06076,5.06077 -9.83409,17.90205 -10.62761,17.91511 -0.89924,0.0148 -5.16199,-12.44949 -10.02033,-17.30782 -5.26319,-5.46562 -18.4916,-10.0978 -18.52241,-10.93126 -0.0266,-0.72238 12.85437,-5.2632 17.91514,-10.32397 5.26319,-5.06076 10.02934,-17.93274 10.6276,-17.91512 0.58916,0.0173 5.56685,13.05679 10.62761,17.91512 5.26319,5.06077 17.91512,9.59647 17.91512,10.32397 z"
       id="text1-0"
       style="fill:#ffffff;fill-opacity:1;stroke-width:14.5751"
       aria-label="✦"
       sodipodi:nodetypes="scscscscs" />
    <path
       d="m 437.68845,338.90437 c 0,0.40664 -7.59115,3.15793 -10.74906,6.19439 -3.03646,3.03645 -5.90046,10.74123 -6.37657,10.74906 -0.53955,0.009 -3.09719,-7.4697 -6.0122,-10.38469 -3.15791,-3.27938 -11.09496,-6.05868 -11.11344,-6.55876 -0.016,-0.43342 7.71262,-3.15792 10.74908,-6.19438 3.15791,-3.03646 6.0176,-10.75963 6.37656,-10.74907 0.3535,0.0103 3.34011,7.83407 6.37657,10.74907 3.15791,3.03646 10.74906,5.75789 10.74906,6.19438 z"
       id="text1-0-2"
       style="fill:#ffffff;fill-opacity:1;stroke-width:8.74504"
       aria-label="✦"
       sodipodi:nodetypes="scscscscs" />
    <path
       d="m 494.91475,306.16991 c 0,0.51506 -9.61546,4.00003 -13.61549,7.84622 -3.84618,3.84617 -7.47392,13.60556 -8.07698,13.61548 -0.68343,0.0116 -3.92312,-9.46162 -7.61546,-13.15394 -4.00002,-4.15388 -14.05362,-7.67432 -14.07702,-8.30776 -0.0203,-0.54901 9.76931,-4.00003 13.6155,-7.84623 4.00001,-3.84618 7.6223,-13.62886 8.07698,-13.61549 0.44777,0.013 4.2308,9.92316 8.07698,13.61549 4.00003,3.8462 13.61549,7.29334 13.61549,7.84623 z"
       id="text1-0-2-6"
       style="fill:#ffffff;fill-opacity:1;stroke-width:11.0771"
       aria-label="✦"
       sodipodi:nodetypes="scscscscs" />
    <path
       d="m 5.609903,302.3415 c 0,0.46239 -7.18525,2.98906 -10.174315,5.86316 -2.874096,2.87411 -5.631519,10.16341 -6.035605,10.17431 -0.418962,0.0114 -2.93158,-7.07029 -5.690717,-9.82942 -2.989054,-3.10403 -10.52249,-5.87958 -10.519202,-6.20805 0.0046,-0.45442 7.300208,-2.98907 10.174314,-5.86316 2.989066,-2.87411 5.619897,-10.15291 6.035605,-10.17432 0.474632,-0.0244 3.161509,7.41518 6.035605,10.17432 2.989065,2.87409 10.174315,5.26431 10.174315,5.86316 z"
       id="text1-9"
       style="fill:#ffffff;fill-opacity:1;stroke-width:11.4171"
       aria-label="✦"
       sodipodi:nodetypes="scscscscs" />
  </g>
</svg>
