<?xml version="1.0" encoding="UTF-8" standalone="no"?>
<svg
   viewBox="0 0 133599.92 114333.18"
   version="1.1"
   id="svg1"
   width="133599.92"
   height="114333.18"
   xmlns="http://www.w3.org/2000/svg"
   xmlns:svg="http://www.w3.org/2000/svg">
  <defs
     id="defs1" />
  <path
     d="m 363.001,176.7 a 43.8,43.8 0 0 0 -0.5,-9.9 10.5,10.5 0 0 0 -3.5,-6.7 c -3,-2.4 -7.5,-2.9 -9.6,-2.9 -9.3,0.2 -23.6,5.2 -92.5,33.8 q -36.2,15.1 -144.6,62.3 -17.7,7 -18.5,13.7 c -1.1,8.6 11.3,11.3 26.8,16.3 12.7,4.1 29.7,8.9 38.6,9.1 q 12.1,0.3 26.9,-9.9 101.3,-68.4 104.6,-69.1 c 1.5,-0.3 3.6,-0.8 5.1,0.5 1.5,1.3 1.4,3.7 1.2,4.4 -1.2,5.2 -64.6,62.9 -68.3,66.7 -13.9,14.5 -29.8,23.4 -5.3,39.5 21.1,14 33.5,22.9 55.3,37.2 14,9.2 24.9,20 39.3,18.7 6.6,-0.6 13.4,-6.8 16.9,-25.4 8.2,-43.9 24.4,-139.1 28.1,-178.3 z"
     id="path2"
     style="fill:#000000;fill-opacity:1;stroke:none"
     transform="translate(-46491.103,-80486.398)" />
  <!--!Font Awesome Free 6.7.2 by @fontawesome - https://fontawesome.com License - https://fontawesome.com/license/free Copyright 2024 Fonticons, Inc.-->
  <path
     d="m 363,176.7 a 43.8,43.8 0 0 0 -0.5,-9.9 10.5,10.5 0 0 0 -3.5,-6.7 c -3,-2.4 -7.5,-2.9 -9.6,-2.9 -9.3,0.2 -23.6,5.2 -92.5,33.8 q -36.2,15.1 -144.6,62.3 -17.7,7 -18.5,13.7 c -1.1,8.6 11.3,11.3 26.8,16.3 12.7,4.1 29.7,8.9 38.6,9.1 q 12.1,0.3 26.9,-9.9 101.3,-68.4 104.6,-69.1 c 1.5,-0.3 3.6,-0.8 5.1,0.5 1.5,1.3 1.4,3.7 1.2,4.4 -1.2,5.2 -64.6,62.9 -68.3,66.7 -13.9,14.5 -29.8,23.4 -5.3,39.5 21.1,14 33.5,22.9 55.3,37.2 14,9.2 24.9,20 39.3,18.7 6.6,-0.6 13.4,-6.8 16.9,-25.4 8.2,-43.9 24.4,-139.1 28.1,-178.3 z M 248,8 C 385,8 496,119 496,256 496,393 385,504 248,504 111,504 0,393 0,256 0,119 111,8 248,8 Z"
     id="path1"
     style="fill:none;fill-opacity:1;stroke:#000000;stroke-opacity:1"
     transform="translate(-46491.103,-80486.398)" />
</svg>
